<?xml version="1.0" encoding="utf-8"?>
<!-- Generator: Adobe Illustrator 27.5.0, SVG Export Plug-In . SVG Version: 6.00 Build 0)  -->
<svg version="1.1" xmlns="http://www.w3.org/2000/svg" xmlns:xlink="http://www.w3.org/1999/xlink" x="0px" y="0px"
	 viewBox="0 0 750 500" style="enable-background:new 0 0 750 500;" xml:space="preserve">
<g id="BACKGROUND">
	<g>
		<rect y="-0.004" style="fill:#FFFFFF;" width="750" height="500"/>
	</g>
</g>
<g id="OBJECTS">
	<g>
		<g>
			<path style="fill:#EF6E4B;" d="M419.574,308.46c0,0-1.751,3.457-2.001,5.582s3.125,9.375,3.125,9.375s3.125-1.5,3.125-1.875
				s1.75-6.5,1.75-6.5l-1.375-6.582H419.574z"/>
			<g>
				<polygon style="fill:#7F9093;" points="434.178,342.452 413.238,337.212 413.238,311.962 430.068,314.222 434.178,315.042 				
					"/>
				<polygon style="fill:#A1B3B7;" points="434.178,315.556 411.324,313.556 412.324,338.556 434.178,342.452 				"/>
				<path style="fill:#B5C4C9;" d="M413.292,319.022c-0.211-0.541,0.097-1.226,0.642-1.427c0.545-0.201,1.224,0.119,1.416,0.667
					c1.743,0.546,3.547-0.453,5.176-1.281c1.628-0.828,3.714-1.48,5.175-0.382c0.81,0.609,1.202,1.614,1.816,2.421
					c0.591,0.776,1.392,1.37,1.997,2.134c0.605,0.764,1.004,1.821,0.612,2.714c-0.178,0.404-0.498,0.73-0.698,1.124
					c-0.608,1.196,0.02,2.609,0.429,3.887c0.409,1.278,0.391,3.03-0.841,3.56c-0.578,0.249-1.247,0.126-1.862,0.259
					c-1.75,0.377-2.409,2.512-3.773,3.67c-1.445,1.226-3.814,1.16-5.189-0.144c-0.366-0.347-0.664-0.764-1.06-1.075
					c-1.057-0.828-2.762-0.648-3.622,0.383c-1.236-2.597-1.157-5.781,0.205-8.314c-0.374-0.081-0.747-0.162-1.121-0.243
					c-0.642-0.835,0.363-1.911,0.675-2.917c0.292-0.942-0.068-1.944-0.284-2.906c-0.216-0.962-0.219-2.132,0.551-2.748"/>
				<g>
					<path style="fill:#7F9093;" d="M421.554,327.658c0.221,0.175,0.476,0.364,0.817,0.519c0.17,0.077,0.366,0.148,0.59,0.182
						c0.111,0.018,0.225,0.022,0.365,0.005c0.068-0.007,0.214-0.038,0.303-0.083c0.4-0.207,0.486-0.504,0.618-0.715
						c0.127-0.233,0.257-0.47,0.386-0.707c0.12-0.241,0.239-0.483,0.357-0.72c0.124-0.242,0.203-0.467,0.342-0.611
						c0.13-0.14,0.314-0.235,0.516-0.253c0.208-0.017,0.411,0.04,0.655,0.14c0.473,0.201,0.844,0.44,1.087,0.628
						c0.244,0.187,0.37,0.315,0.37,0.315s-0.059-0.146-0.241-0.39c-0.181-0.241-0.505-0.581-1.008-0.89
						c-0.235-0.151-0.617-0.336-1.01-0.348c-0.393-0.02-0.769,0.098-1.017,0.319c-0.247,0.218-0.386,0.474-0.51,0.7
						c-0.128,0.233-0.257,0.47-0.387,0.707c-0.12,0.241-0.24,0.483-0.358,0.72c-0.127,0.245-0.204,0.48-0.318,0.534
						c-0.036,0.02-0.038,0.024-0.118,0.042c-0.012,0-0.055,0.01-0.104,0.008c-0.094,0-0.213-0.024-0.334-0.064
						c-0.244-0.083-0.496-0.209-0.723-0.336c-0.942-0.551-1.62-0.879-1.62-0.879S420.717,326.978,421.554,327.658z"/>
					<path style="fill:#7F9093;" d="M415.461,327.518c0.36,0.328,0.858,0.81,1.485,1.363c0.315,0.28,0.639,0.577,1.026,0.896
						c0.384,0.314,0.863,0.667,1.479,0.873c0.609,0.205,1.245,0.25,1.81,0.182c0.566-0.066,1.092-0.208,1.569-0.415
						c0.939-0.421,1.649-1.082,2.124-1.753c0.489-0.674,0.816-1.348,1.119-1.907c0.074-0.133,0.146-0.26,0.213-0.381
						c0.018-0.065,0.122-0.076,0.293-0.051c0.315,0.043,0.598,0.143,0.816,0.25c0.443,0.214,0.64,0.424,0.64,0.424
						s-0.035-0.053-0.12-0.152c-0.086-0.095-0.222-0.238-0.442-0.382c-0.217-0.144-0.512-0.298-0.88-0.401
						c-0.152-0.05-0.483-0.119-0.669,0.061c-0.139,0.138-0.206,0.241-0.319,0.376c-0.824,1.012-1.662,2.539-3.333,3.256
						c-0.801,0.36-1.821,0.544-2.681,0.299c-0.425-0.125-0.836-0.366-1.219-0.637c-0.392-0.285-0.763-0.555-1.106-0.803
						c-0.69-0.502-1.289-0.901-1.697-1.189c-0.414-0.284-0.658-0.439-0.658-0.439S415.107,327.186,415.461,327.518z"/>
					<path style="fill:#7F9093;" d="M425.003,330.508c0.596-0.594,1.043-1.223,1.376-1.77c0.165-0.265,0.328-0.481,0.551-0.598
						c0.221-0.124,0.499-0.127,0.725-0.093c0.228,0.038,0.408,0.113,0.513,0.188c0.105,0.073,0.147,0.13,0.147,0.13
						s-0.022-0.056-0.115-0.154c-0.092-0.094-0.27-0.224-0.532-0.3c-0.252-0.076-0.603-0.126-0.931-0.022
						c-0.336,0.097-0.602,0.326-0.816,0.577c-0.855,0.969-2.078,2.199-3.727,2.994c-0.812,0.406-1.724,0.697-2.634,0.869
						c-0.907,0.154-1.84,0.254-2.583,0.133c-0.749-0.135-1.341-0.571-1.704-0.875c-0.371-0.311-0.578-0.501-0.578-0.501
						s0.142,0.216,0.453,0.576c0.16,0.178,0.363,0.394,0.651,0.618c0.286,0.225,0.665,0.45,1.137,0.582
						c0.461,0.133,0.955,0.177,1.435,0.18c0.486,0.009,0.994-0.011,1.498-0.081c1.018-0.122,2.017-0.43,2.907-0.855
						C423.656,331.667,424.414,331.108,425.003,330.508z"/>
					<path style="fill:#7F9093;" d="M429.048,330.068c-0.238-0.123-0.632-0.256-1.091-0.269c-0.229-0.009-0.475,0.005-0.715,0.062
						c-0.229,0.046-0.51,0.153-0.689,0.271c-0.435,0.254-0.719,0.621-0.991,0.952c-0.132,0.176-0.244,0.325-0.391,0.485
						c-0.133,0.14-0.268,0.296-0.414,0.426c-0.288,0.269-0.586,0.504-0.854,0.7c-0.543,0.385-0.953,0.635-0.953,0.635
						s0.566-0.013,1.293-0.266c0.364-0.122,0.763-0.308,1.133-0.564c0.183-0.132,0.37-0.262,0.534-0.434
						c0.152-0.151,0.314-0.337,0.446-0.502c0.256-0.347,0.502-0.671,0.777-0.902c0.167-0.131,0.282-0.208,0.462-0.287
						c0.168-0.07,0.341-0.125,0.512-0.159c0.69-0.148,1.288,0.075,1.288,0.075S429.294,330.195,429.048,330.068z"/>
					<path style="fill:#7F9093;" d="M420.478,320.818c0.236,0.034,0.454,0.088,0.699,0.15c0.476,0.138,0.979,0.329,1.441,0.588
						c0.938,0.492,1.704,1.228,2.176,1.831c0.121,0.154,0.218,0.3,0.352,0.448c0.127,0.145,0.298,0.253,0.434,0.302
						c0.287,0.104,0.422,0.029,0.417,0.037c0,0-0.163-0.009-0.343-0.152c-0.091-0.07-0.162-0.162-0.219-0.282
						c-0.053-0.115-0.1-0.284-0.184-0.46c-0.162-0.364-0.423-0.78-0.806-1.19c-0.194-0.202-0.406-0.409-0.654-0.595
						c-0.129-0.097-0.254-0.185-0.38-0.267c-0.142-0.093-0.274-0.172-0.416-0.251c-0.568-0.301-1.187-0.525-1.772-0.627
						c-0.583-0.106-1.125-0.093-1.538-0.009c-0.417,0.078-0.71,0.221-0.889,0.337c-0.179,0.118-0.255,0.203-0.255,0.203
						s0.517-0.15,1.306-0.122C420.043,320.765,420.262,320.787,420.478,320.818z"/>
					<path style="fill:#7F9093;" d="M423.99,320.451c0.444,0.228,0.9,0.496,1.221,0.811c0.164,0.148,0.29,0.313,0.377,0.481
						c0.081,0.169,0.145,0.357,0.18,0.555c0.075,0.391,0.125,0.843,0.353,1.216c0.204,0.373,0.53,0.64,0.77,0.765
						c0.248,0.128,0.393,0.15,0.393,0.15s-0.132-0.083-0.289-0.246c-0.158-0.165-0.316-0.416-0.388-0.721
						c-0.081-0.305-0.033-0.639-0.049-1.083c-0.016-0.221-0.037-0.475-0.16-0.746c-0.122-0.271-0.316-0.534-0.553-0.765
						c-0.99-0.896-2.242-1.225-3.1-1.369c-0.878-0.141-1.421-0.062-1.421-0.062s0.575,0.169,1.367,0.46
						C423.084,320.045,423.539,320.226,423.99,320.451z"/>
					<path style="fill:#7F9093;" d="M426.825,320.705c0.111,0.132,0.185,0.242,0.29,0.397c0.16,0.267,0.302,0.577,0.361,0.884
						c0.082,0.31,0.08,0.605,0.076,0.931c-0.007,0.319,0.005,0.662,0.122,0.964c0.106,0.3,0.302,0.537,0.459,0.672
						c0.159,0.138,0.268,0.189,0.268,0.189s-0.25-0.37-0.217-0.831c0.011-0.231,0.085-0.485,0.158-0.795
						c0.082-0.303,0.107-0.702,0.021-1.102c-0.099-0.401-0.293-0.805-0.597-1.156c-0.126-0.154-0.313-0.328-0.473-0.451
						c-0.165-0.133-0.338-0.242-0.502-0.331c-0.327-0.181-0.626-0.272-0.827-0.319c-0.205-0.044-0.319-0.05-0.319-0.05
						s0.421,0.245,0.858,0.658C426.611,320.468,426.718,320.584,426.825,320.705z"/>
					<path style="fill:#7F9093;" d="M419.473,323.439l0.488,0.304c0.167,0.103,0.341,0.228,0.55,0.333
						c0.209,0.107,0.438,0.214,0.692,0.273c0.248,0.053,0.504,0.082,0.743,0.028c0.104-0.02,0.258-0.084,0.311-0.135
						c0.104-0.078,0.137-0.156,0.173-0.233c0.067-0.15,0.072-0.291,0.207-0.399c-0.213-0.004-0.379,0.129-0.503,0.214
						c-0.06,0.043-0.14,0.075-0.18,0.08c-0.093,0.029-0.116,0.011-0.199,0.009c-0.136-0.017-0.29-0.054-0.432-0.121
						c-0.138-0.061-0.282-0.139-0.425-0.238c-0.286-0.187-0.637-0.465-1.021-0.668c-0.376-0.215-0.776-0.392-1.182-0.538
						l-0.479-0.172l-0.005,0.325c-0.007,0.451-0.037,0.901-0.028,1.395c0.278-0.239,0.46-0.535,0.606-0.848
						C419.018,323.178,419.249,323.307,419.473,323.439z"/>
					<path style="fill:#7F9093;" d="M421.455,326.69c0,0,0.206,0.014,0.391-0.102c0.193-0.107,0.33-0.354,0.297-0.632
						c-0.035-0.278-0.235-0.555-0.453-0.705c-0.218-0.164-0.419-0.192-0.419-0.192s-0.016,0.164-0.029,0.315
						c-0.01,0.163-0.014,0.331,0.002,0.491c0.022,0.16,0.067,0.329,0.114,0.496C421.403,326.524,421.455,326.69,421.455,326.69z"/>
					<path style="fill:#7F9093;" d="M420.661,325.792c0.009,0.006-0.137-0.116-0.279-0.044c-0.143,0.073-0.124,0.264-0.017,0.36
						c0.106,0.102,0.307,0.131,0.409,0.057c0.049-0.031,0.098-0.088,0.071-0.128c-0.01-0.047-0.016-0.073-0.016-0.073
						s-0.016-0.026-0.043-0.071c-0.003-0.003-0.001-0.007-0.004-0.011C420.708,325.849,420.657,325.788,420.661,325.792z"/>
					<path style="fill:#7F9093;" d="M420.895,325.898c0.131-0.027,0.148-0.147,0.1-0.189c-0.048-0.046-0.169-0.036-0.21,0.049
						c-0.018,0.034-0.033,0.085-0.003,0.122C420.816,325.896,420.854,325.906,420.895,325.898z"/>
					<path style="fill:#7F9093;" d="M421.422,322.003c0,0-0.05,0.086-0.126,0.216c-0.059,0.104-0.109,0.193-0.112,0.28
						c0.002,0.088,0.052,0.192,0.111,0.317c0.074,0.157,0.124,0.262,0.124,0.262s0.179,0.048,0.349-0.009
						c0.176-0.048,0.318-0.21,0.319-0.41c-0.002-0.201-0.146-0.411-0.32-0.521C421.596,322.014,421.422,322.003,421.422,322.003z"/>
					<path style="fill:#7F9093;" d="M420.25,322.308c-0.001,0.046,0.091,0.1,0.204,0.093c0.042,0,0.08-0.013,0.117-0.025
						c-0.033-0.027-0.068-0.057-0.11-0.072C420.354,322.25,420.255,322.263,420.25,322.308z"/>
					<path style="fill:#7F9093;" d="M420.677,322.339c0,0-0.047,0.02-0.106,0.038c0.054,0.044,0.096,0.087,0.098,0.084
						c0.002-0.005,0.111,0.106,0.239,0.128c0.125,0.036,0.237-0.006,0.244-0.085c0.003-0.08-0.1-0.168-0.225-0.187
						C420.806,322.293,420.677,322.339,420.677,322.339z"/>
					<path style="fill:#7F9093;" d="M415.784,324.031c0.146,0.193,0.327,0.344,0.496,0.449c0.337,0.216,0.612,0.257,0.612,0.257
						s-0.093-0.188-0.233-0.469c-0.06-0.129-0.121-0.267-0.17-0.403c-0.035-0.083-0.024-0.107-0.061-0.209
						c-0.012-0.048-0.025-0.123-0.025-0.182c-0.021-0.127-0.003-0.245,0.017-0.36c0.016-0.055,0.032-0.109,0.047-0.16
						c0.035-0.061,0.068-0.119,0.099-0.173c0.077-0.116,0.132-0.261,0.101-0.372c-0.029-0.112-0.103-0.151-0.096-0.151
						c0,0-0.012,0.057-0.079,0.092c-0.064,0.038-0.17,0.053-0.316,0.094c-0.067,0.014-0.173,0.053-0.246,0.095
						c-0.099,0.061-0.179,0.119-0.244,0.206c-0.14,0.163-0.196,0.388-0.183,0.62c0.016,0.121,0.045,0.227,0.096,0.357
						C415.625,323.802,415.721,323.951,415.784,324.031z"/>
				</g>
			</g>
			<path style="fill:#FF8B66;" d="M423.448,294.277l2,14.016l1.16,5.5h-3.16c0,0-0.5,4.75-1.75,5.25s-2.75,1.309-2.75,1.309
				s-2-1.059,0-2.059s0.986-3.5,0.625-4.5c-0.361-1,0.375-4.194,0.375-4.194l-0.75-2.284l-3-14.522L423.448,294.277z"/>
		</g>
		<path style="fill:#0E3944;" d="M406.024,191.909c4.758,2.717,13.591,56.396,14.758,57.473c1.167,1.077,0,3.577,0,3.577
			s4.333,30.463,5.5,35.982c1.167,5.518-1.167,10.602-1.167,10.602l0.333,3.75c0,0-4.833,2.333-7.833,0.667l-0.333-3.787
			c0,0-4.333-6.858-4.833-8.952c-0.5-2.094-4.782-29.725-4.782-29.725s0.5-4.666,0-6c-0.5-1.333-1.877-4.488-1.881-5.504
			c-0.004-1.016-5.67-33.42-5.67-33.42L406.024,191.909z"/>
		<g>
			<path style="fill:#072228;" d="M411.956,432.25h-25.891c-1.81-10.292,1.077-20.595,1.077-20.595l11.835-2.032
				c1.077,6.506,2.376,9.071,4.175,10.392c0.011,0,0.011,0,0.011,0c1.31,0.955,2.876,1.266,4.83,1.943
				c2.232,0.777,3.409,2.187,3.997,3.719C413.155,428.719,411.956,432.25,411.956,432.25z"/>
			<path style="fill:#0E3944;" d="M411.99,425.677c-6.384,0.799-20.406,2.165-19.552-1.532c0.711-3.087,6.628-3.919,10.714-4.13
				c0.011,0,0.011,0,0.011,0c1.31,0.955,2.876,1.266,4.83,1.943C410.224,422.735,411.401,424.145,411.99,425.677z"/>
		</g>
		<g>
			<path style="fill:#072228;" d="M358.266,432.25h-25.891c0,0-0.822-2.42-0.444-4.985c0.311-2.087,1.421-4.275,4.408-5.307
				c2.243-0.777,3.964-1.066,5.374-2.387c1.532-1.443,2.676-4.108,3.642-9.948l11.835,2.032
				C357.189,411.654,360.065,421.957,358.266,432.25z"/>
			<path style="fill:#0E3944;" d="M331.931,427.265c0.311-2.087,1.421-4.275,4.408-5.307c2.243-0.777,3.964-1.066,5.374-2.387
				c3.275,1.01,7.861,2.865,9.282,5.673C352.97,429.096,337.837,428.486,331.931,427.265z"/>
		</g>
		<path style="fill:#105E99;" d="M400.617,391.753c0,0-1.773-69.735-2.489-92.987c-0.836-27.184-1.076-31.231-1.076-31.231
			l-25.02-5.137l-25.02,5.137c0,0-0.245,7.405-1.001,29.22c-0.822,23.752-2.564,94.998-2.564,94.998
			c2.049,2.352-2.64,24.363-1.18,24.422c1.46,0.06,11.286,1.73,16.591,7.13l1.134-22.628c0,0,8.171-100.3,9.171-101.308
			c0.558-0.562,1.842-1.066,2.869-1.402c1.027,0.336,2.311,0.839,2.869,1.402c1,1.008,8.265,99.058,8.265,99.058l2.039,24.878
			c5.305-5.4,15.13-7.071,16.591-7.13C403.257,416.116,398.984,405.678,400.617,391.753z"/>
		<path style="fill:#0A2D35;" d="M337.399,192.479c0,0-11.494,21.724-13.828,34.65l8.167,14.759c0,0,9.035-12.798,13.748-18.563
			C350.199,217.562,337.399,192.479,337.399,192.479z"/>
		<path style="fill:#0E3944;" d="M372.072,183.745c24.382,0,34.716,8.734,34.716,8.734s-10.506,42.008-7.172,95.493
			c0,0-18.816,4.083-55.333,0c0,0-0.494-56.109-6.828-95.493C337.454,192.479,349.357,183.745,372.072,183.745z"/>
		<path style="fill:#EF6E4B;" d="M365.62,175.436c0,0,2.069,6.509,0,9.017c0,0,2.149,4.509,6.012,4.709
			c4.463,0.23,6.012-4.709,6.012-4.709s-2.361-6.287,0-8.496L365.62,175.436z"/>
		<g>
			<path style="fill:#FF8B66;" d="M359.806,163.721c0,0-3.247-3.24-3.647,0.548c-0.463,4.389,3.523,6.157,4.302,4.761
				C361.24,167.633,359.806,163.721,359.806,163.721z"/>
			<path style="fill:#FF8B66;" d="M382.544,163.95c0,0,3.247-3.241,3.647,0.548c0.463,4.389-3.523,6.157-4.302,4.761
				C381.11,167.862,382.544,163.95,382.544,163.95z"/>
			<path style="fill:#FF8B66;" d="M370.833,179.618c-7.205,0-11.271-4.706-11.271-18.822c0-7.281,3.704-11.747,11.775-11.747
				c8.07,0,11.469,4.466,11.469,11.747C382.805,175.964,378.276,179.618,370.833,179.618z"/>
			<path style="fill:#DB614D;" d="M380.419,165.831c0.127,0.724-0.505,1.439-1.411,1.597s-1.742-0.301-1.868-1.025
				c-0.126-0.724,0.505-1.439,1.411-1.597C379.456,164.648,380.293,165.107,380.419,165.831z"/>
			<path style="fill:#DB614D;" d="M365.6,166.225c-0.047,0.734-0.83,1.28-1.748,1.22c-0.917-0.06-1.622-0.703-1.574-1.437
				c0.048-0.733,0.83-1.28,1.748-1.22C364.942,164.848,365.647,165.491,365.6,166.225z"/>
			<g>
				<path style="fill:#FFB878;" d="M377.124,158.506c-0.095,0-0.189-0.037-0.26-0.111c-0.999-1.047-2.747-1.002-2.773-1.002
					c-0.195,0.001-0.365-0.15-0.371-0.349c-0.007-0.199,0.149-0.365,0.348-0.371c0.077-0.005,2.099-0.052,3.316,1.225
					c0.137,0.144,0.132,0.372-0.011,0.509C377.303,158.474,377.213,158.506,377.124,158.506z"/>
			</g>
			<g>
				<path style="fill:#FFB878;" d="M363.558,158.506c-0.089,0-0.178-0.032-0.248-0.099c-0.144-0.137-0.149-0.365-0.013-0.509
					c1.218-1.278,3.237-1.229,3.316-1.225c0.199,0.007,0.354,0.173,0.348,0.371c-0.006,0.199-0.18,0.352-0.371,0.349
					c-0.013-0.003-1.784-0.036-2.771,1.002C363.747,158.469,363.653,158.506,363.558,158.506z"/>
			</g>
			<path style="fill:#1A4850;" d="M376.501,162.329c0,0.895-0.403,1.62-0.9,1.62c-0.497,0-0.9-0.726-0.9-1.62
				c0-0.895,0.403-1.62,0.9-1.62C376.098,160.709,376.501,161.434,376.501,162.329z"/>
			<path style="fill:#1A4850;" d="M366.88,162.329c0,0.895-0.403,1.62-0.9,1.62c-0.497,0-0.9-0.725-0.9-1.62
				c0-0.895,0.403-1.62,0.9-1.62C366.477,160.709,366.88,161.435,366.88,162.329z"/>
			<path style="fill:#1A4850;" d="M367.348,172.298c0,0,5.885,0.422,9.153-1.147c0,0-1.38,2.024-5.318,1.981
				C367.692,173.095,367.348,172.298,367.348,172.298z"/>
			<g>
				<path style="fill:#DB614D;" d="M372.088,169.639c-0.7,0.001-1.411-0.181-1.626-0.241l0.204-0.737
					c0.756,0.209,1.942,0.333,2.2,0.028c0.089-0.106,0.054-0.352-0.099-0.675c-1.041-2.215-1.258-7.822-1.267-8.059l0.766-0.028
					c0.002,0.057,0.219,5.688,1.194,7.761c0.298,0.632,0.294,1.135-0.009,1.495C373.157,169.532,372.626,169.639,372.088,169.639z"
					/>
			</g>
			<path style="fill:#FFB878;" d="M359.801,166.193c0,0,0.275-3.863,0.892-6.266c0,0-1.075-5.013,1.779-7.783
				c0,0,4.194,0.605,8.712,0.605c4.517,0,7.596-0.605,7.596-0.605s2.171,1.943,1.921,7.024c0,0,1.014,3.451,1.88,6.949
				c0,0,5.87-20.993-12.63-20.993C351.201,145.124,359.801,166.193,359.801,166.193z"/>
			<path style="fill:#FFB878;" d="M359.202,150.182c0,0,0.56-4.156,4.737-5.058c4.177-0.902,12.338,0.265,14.841-2.402
				c0,0,0.724,2.082,0.669,3.73l1.333-2.896c0,0,4.161,6.51-2.003,8.588C372.615,154.222,359.202,150.182,359.202,150.182z"/>
		</g>
		<path style="fill:#8BBDDB;" d="M359.561,194.767c4.137,6.789-5.363,82.872-5.363,82.872s-17.239,0.085-16.745-2.249
			s2.998-59.308,2.998-59.308s-2.492-22.179-2.998-23.603s15.995-6.674,15.995-6.674L359.561,194.767z"/>
		<path style="fill:#7AB0C1;" d="M359.561,194.767c0,0-4.863-13.163-7.363-13.687s-3.75,3.607-3.75,3.607s-3.957,2.273-4,3.214
			C344.405,188.841,359.561,194.767,359.561,194.767z"/>
		<path style="fill:#8BBDDB;" d="M383.466,195.876c-1.517,4.43,4.483,80.913,4.483,80.913s11.75,1.549,15.25-1.092l-1.093-58.512
			c0,0,4.771-21.781,4.682-24.705s-15.714-6.674-15.714-6.674L383.466,195.876z"/>
		<path style="fill:#7AB0C1;" d="M383.466,195.876c0,0,2.316-11.923,5.15-14.288c2.833-2.365,7.833,4.301,7.833,4.301
			s4.167,0.177,4.167,2.589C400.615,190.889,383.466,195.876,383.466,195.876z"/>
		<g>
			<path style="fill:#EF6E4B;" d="M331.233,182.618c0,0,1.14-3.168,1.99-3.397c0.85-0.228,2.124-1.557,0.725-1.812
				c-1.399-0.255-2.313,1.019-2.313,1.019l-2.875,2.252L331.233,182.618z"/>
			<path style="fill:#0A4563;" d="M337.645,178.428l-21.312-0.641c0,0-0.887-0.423-0.325-1.398l21.553,0.278l2.75,0.984
				L337.645,178.428z"/>
			<path style="fill:#FF8B66;" d="M323.412,200.164l0.992-9.669c0,0-1.187-5.717-1.316-7.493c-0.129-1.776,4.338-6.637,5.258-6.768
				c0.92-0.131,3.679-0.526,4.204-0.788c0.526-0.263,0.788,1.314,0,1.708c-0.788,0.394-2.628,1.231-2.628,1.231
				s2.102,1.588,2.365,2.346c0.263,0.758-0.788,4.437-0.788,4.437s1.051,2.214,0.657,4.26c-0.394,2.046-1.577,3.168-1.577,3.168
				l-0.255,8.585L323.412,200.164z"/>
			<path style="fill:#EF6E4B;" d="M329.922,178.385c-0.911-0.329-4.536,2.649-4.536,2.649l3.5-3.625
				c0.813,0.146,1.874,0.591,1.874,0.591L329.922,178.385z"/>
			<polygon style="fill:#EF6E4B;" points="327.449,181.431 330.011,179.618 331.998,180.268 330.946,179.222 330.032,179.222 			"/>
			<path style="fill:#EF6E4B;" d="M328.761,182.303l1.563-0.872c0,0,1.468,0.495,1.859,0.872c0.391,0.378-0.014,3.089-0.53,3.233
				c-0.516,0.144-1.454,0-1.454,0l0.352-1.168l0.21,0.438c0,0,1.165-1.279,0.928-2.052c-0.237-0.773-1.427-0.76-1.427-0.76
				L328.761,182.303z"/>
		</g>
		<path style="fill:#EF6E4B;" d="M330.199,185.536c0,0,1.786,1.707,1.799,4.269c0,0,0.796-2.226-0.345-4.269H330.199z"/>
		<path style="fill:#0E3944;" d="M323.572,195.876c0,0,3.627,1.32,7.377,0v4.843c0,0,2,6.337,2.25,10.337s-1.46,30.833-1.46,30.833
			s-2.794,6.956-8.167,4.436c-5.373-2.52-5.623-12.006-5.623-12.888c0-0.882,2-27.459,2-27.459l3.028-4.396L323.572,195.876z"/>
	</g>
	<g>
		<path style="fill:#EF6E4B;" d="M591.769,259.806c3.995,1.784,10.333,0.976,13.333-2.417s0.09-8.319-6.894-10.675
			s-16.344,6.766-16.344,6.766S587.103,257.722,591.769,259.806z"/>
		<path style="fill:#EF6E4B;" d="M577.7,251.195c3.234,2.649,13.593,5.759,15.259,4.888c1.666-0.871,3.153-5.838,2.062-6.945
			c-1.091-1.107-5.229-5.159-5.229-5.159s-2.453-3.393-4.646-3.772c-2.192-0.38-4.393-1.222-4.393-1.222s-0.646,1.626,0.552,2.561
			c1.198,0.935,4.846,2.536,4.223,3.352c-0.623,0.816-1.256,4.363-2.753,4.856C581.279,250.247,577.7,251.195,577.7,251.195z"/>
		<path style="fill:#EF6E4B;" d="M607.769,210.056l-11.25,34.744c0,0,1.32,12.261,6.32,13.761s17.436-38.786,17.436-38.786
			l1.744-4.72L607.769,210.056z"/>
		<g>
			<path style="fill:#105E99;" d="M574.248,223.227l63.447,25.033c0,0,4.653,1.839,1.188,5.959
				c-3.465,4.12-66.664-20.059-66.664-20.059S578.535,228.088,574.248,223.227z"/>
			<path style="fill:#094563;" d="M574.248,223.227c-2.512-2.289-7.921,8.715-2.029,10.933
				C578.11,236.378,578.105,226.741,574.248,223.227z"/>
			<path style="fill:#105E99;" d="M568.689,235.911l66.084,16.887c0,0,4.847,1.241,1.925,5.763
				c-2.921,4.521-68.652-11.548-68.652-11.548S573.551,240.197,568.689,235.911z"/>
			<polygon style="fill:#094563;" points="573.674,228.913 638.392,252.84 636.698,258.561 568.489,242.336 			"/>
			<path style="fill:#094563;" d="M568.689,235.911c-2.779-1.956-6.766,9.639-0.643,11.101
				C574.168,248.475,572.956,238.914,568.689,235.911z"/>
			<path style="fill:#105E99;" d="M561.747,226.939l64.787,21.328c0,0,4.751,1.567,1.53,5.88
				c-3.221,4.313-67.712-16.176-67.712-16.176S566.308,231.544,561.747,226.939z"/>
			<path style="fill:#094563;" d="M561.747,226.939c-2.64-2.14-7.404,9.158-1.395,11.032
				C566.362,239.844,565.801,230.224,561.747,226.939z"/>
		</g>
		<path style="fill:#7AB0C1;" d="M615.884,178.69c-4.865,1.866-12.865,34.134-12.865,34.134s8.013,6.919,17.256,6.95
			S615.884,178.69,615.884,178.69z"/>
		<path style="fill:#0E3944;" d="M663.502,162.556l13.017,112.049c0,0,9,2.408,15.75-1.695l-14.384-111.801
			C677.886,161.108,671.577,157.559,663.502,162.556z"/>
		<g>
			<path style="fill:#7AB0C1;" d="M580.296,430.395c0,1.088,0.111,1.854,0.111,1.854h31.453c0-0.622-0.011-1.243-0.044-1.854
				c-0.355-8.227-2.953-15.366-2.953-15.366l-7.861-3.375c-0.677,4.052-2.42,6.639-4.608,8.327
				c-0.577,0.455-1.177,0.833-1.799,1.155c-0.289,0.156-0.577,0.3-0.877,0.433c-0.655,0.3-1.332,0.544-2.01,0.744
				c-2.776,0.844-5.585,1.021-7.55,1.321C580.807,424.156,580.296,428.031,580.296,430.395z"/>
			<path style="fill:#8BBDDB;" d="M592.365,422.906c0,0,3.225,0.167,3.029,1.083c-0.196,0.917-2.779,2.5-5.696,2.75
				c-2.917,0.25-6.333-1.917-6.333-1.917s0.25-0.25,3.583-0.75C590.282,423.573,592.365,422.906,592.365,422.906z"/>
		</g>
		<g>
			<path style="fill:#7AB0C1;" d="M638.516,425.399c2.257-1.185,2.963-5.081,3.171-7.993h13.762c2.167,5.512,3.46,8.69,2.575,12.989
				c-0.133,0.633-0.322,1.244-0.589,1.854h-20.951c0,0-0.278-0.788-0.355-1.854C635.985,428.797,636.273,426.576,638.516,425.399z"
				/>
			<path style="fill:#8BBDDB;" d="M653.24,425.241c0,0-4.18-1.921-8.75-1.543c-4.57,0.377-6.983,2.75-6.792,3
				c1.522,1.992,6.917-1,10.667,0.625S653.24,425.241,653.24,425.241z"/>
		</g>
		<path style="fill:#0E3944;" d="M670.448,266.823c-2.084,62.785-10,115.667-10.75,137.917c-0.384,11.397-1.675,19.085-1.675,19.085
			s-10.858-8.777-17.009-2.256l0.208-9.915l1.134-5.981l2.733-110.982l-4.851-0.311l-23.207,111.026c0,0-5.127,14.68-5.171,19.835
			l-16.466-5.26l4.355-11.88l-0.455-3.358l2.195-8.671c0,0,20.188-118.324,18.881-130.261c0,0-0.089-1.989,1.077-2.489
			c9.484-4.065,40.252-2.372,48.668-0.925C671.625,262.657,670.448,266.823,670.448,266.823z"/>
		<path style="fill:#0E3944;" d="M690.269,210.583c1.212,2.84-5.374,13.379-12.167,10.973c-6.792-2.405-5.803-10.599-1.901-14.3
			C680.103,203.556,687.436,203.943,690.269,210.583z"/>
		<path style="fill:#EF6E4B;" d="M684.103,202.909c0,0,14.167,26.147,12.667,28.98c-1.5,2.833-4.833,6.5-8.167,5.833
			c-3.333-0.667-14-23.741-14-23.741S674.936,201.429,684.103,202.909z"/>
		<path style="fill:#7AB0C1;" d="M673.885,180.302c5.384,1.754,16.384,30.281,16.384,30.281s-7.716-4.401-13.75,1.307
			c-6.034,5.708-8.383-16.313-6.316-23.073C672.269,182.056,673.885,180.302,673.885,180.302z"/>
		<path style="fill:#072228;" d="M668.969,258.24v4.158c0,0-11.431,4.425-27.716,4.425s-20.952-3.5-20.952-3.5l-0.025-3.917
			L668.969,258.24z"/>
		<path style="fill:#0E3944;" d="M655.218,259.198c0,0,0.375,4.625,0,7.625h2.375c0,0,0.625-3.75,0-7.625H655.218z"/>
		<path style="fill:#0E3944;" d="M628.982,266.905c0,0-0.058-4.64,0.52-7.607l-2.37-0.162c0,0-0.879,3.699-0.52,7.607
			L628.982,266.905z"/>
		<path style="fill:#CFD8DC;" d="M646.683,260.89v5.804c0,0.324-0.262,0.586-0.586,0.586h-9.689c-0.324,0-0.586-0.262-0.586-0.586
			v-5.709c0-0.322,0.259-0.583,0.58-0.586l9.689-0.095C646.417,260.301,646.683,260.564,646.683,260.89z"/>
		<path style="fill:#8BBDDB;" d="M673.885,180.302c-3.667-0.896-15.784-2.476-29.392-2.686c-13.608-0.21-23.275-0.31-28.608,1.073
			c0,0,2.038,72.077-0.2,100.384c0,0,31.73,5.663,56.979,0.672c0,0-0.712-36.507,0.221-57.414
			C674.218,192.479,673.885,180.302,673.885,180.302z"/>
		<path style="fill:#EF6E4B;" d="M639.375,170.39c0,0,1.547,5.112-0.902,7.748c0,0-2.652,7.917,5.853,9.184
			c2.622,0.391,7.692-2.524,7.239-7.746c0,0-1.721-4.346,0-7.168L639.375,170.39z"/>
		<g>
			<path style="fill:#FF8B66;" d="M657.067,157.531c0,0,3.397-3.39,3.815,0.573c0.484,4.591-3.685,6.44-4.5,4.98
				C655.567,161.623,657.067,157.531,657.067,157.531z"/>
			<path style="fill:#FF8B66;" d="M633.281,157.77c0,0-3.397-3.39-3.815,0.573c-0.484,4.591,3.685,6.44,4.5,4.98
				C634.781,161.862,633.281,157.77,633.281,157.77z"/>
			<path style="fill:#FF8B66;" d="M633.008,154.473c0,10.03,1.9,15.25,5.26,17.72c1.95,1.45,4.4,1.97,7.26,1.97
				c2.91,0,5.33-0.73,7.2-2.49c2.99-2.78,4.59-8.14,4.59-17.2c0-7.62-3.87-12.29-12.31-12.29S633.008,146.853,633.008,154.473z"/>
			<path style="fill:#DB614D;" d="M635.504,159.737c-0.132,0.758,0.529,1.506,1.476,1.671c0.947,0.165,1.823-0.315,1.954-1.072
				c0.132-0.758-0.529-1.506-1.476-1.671C636.511,158.5,635.636,158.98,635.504,159.737z"/>
			<path style="fill:#DB614D;" d="M651.006,160.15c0.05,0.767,0.869,1.339,1.828,1.276c0.959-0.062,1.697-0.735,1.647-1.503
				c-0.05-0.767-0.869-1.339-1.828-1.276C651.694,158.71,650.956,159.383,651.006,160.15z"/>
			<g>
				<path style="fill:#8B383E;" d="M637.947,151.956c0.099,0.015,0.202-0.008,0.287-0.074c1.2-0.922,3-0.596,3.028-0.591
					c0.201,0.033,0.401-0.096,0.439-0.301c0.039-0.205-0.096-0.401-0.3-0.44c-0.079-0.017-2.161-0.39-3.624,0.735
					c-0.165,0.127-0.196,0.363-0.07,0.528C637.767,151.893,637.855,151.941,637.947,151.956z"/>
			</g>
			<g>
				<path style="fill:#8B383E;" d="M652.372,152.008c0.092-0.011,0.181-0.057,0.244-0.135c0.132-0.161,0.108-0.398-0.052-0.53
					c-1.428-1.17-3.519-0.86-3.6-0.846c-0.205,0.032-0.346,0.224-0.314,0.43c0.032,0.206,0.232,0.342,0.43,0.315
					c0.013-0.005,1.847-0.266,3.006,0.684C652.171,151.994,652.274,152.02,652.372,152.008z"/>
			</g>
			<path style="fill:#1A4850;" d="M638.727,156.21c0,0.936,0.422,1.695,0.941,1.695c0.52,0,0.942-0.759,0.942-1.695
				s-0.422-1.695-0.942-1.695C639.148,154.515,638.727,155.274,638.727,156.21z"/>
			<path style="fill:#1A4850;" d="M648.792,156.21c0,0.936,0.421,1.695,0.941,1.695c0.52,0,0.942-0.759,0.942-1.695
				c0-0.936-0.422-1.695-0.942-1.695C649.213,154.515,648.792,155.274,648.792,156.21z"/>
			<path style="fill:#8B383E;" d="M652.976,144.796c0,0-4.241,0.638-15.756-0.189c0,0-0.864,3.906-2.806,5.634
				c0,0-1.219,5.5-1.107,9.55c0,0-7.325-22.028,12.941-21.453c20.601,0.585,10.816,21.021,10.816,21.021s-0.122-3.119-0.794-6.579
				C656.269,152.78,653.537,149.263,652.976,144.796z"/>
			<g>
				<path style="fill:#DB614D;" d="M645.055,161.108l0.564-0.568l-1.491-1.481c1.445-2.044,1.438-6.774,1.437-6.984l-0.801,0.004
					c0,0.051,0.008,5.14-1.468,6.739l-0.262,0.284L645.055,161.108z"/>
			</g>
			<path style="fill:#1A4850;" d="M640.879,164.781c0,0,2.906,0.263,8.295-0.14c0,0-1.239,3.265-4.847,2.931
				C640.719,167.239,640.879,164.781,640.879,164.781z"/>
		</g>
		<path style="fill:#FF8B66;" d="M670.203,207.256c0,0,19.985,17.095,22.9,18.8c2.914,1.704,6,6.167,4.833,13
			c-1.167,6.833-10.667,2.167-13.167,0c-2.5-2.167-21.627-24.922-21.627-24.922L670.203,207.256z"/>
		<path style="fill:#FF8B66;" d="M582.791,248.784c0.099,0.457,1.066,1.902,1.066,1.902s0.389-2.857,0.552-3.294
			c0.541-1.455,1.038-2.074,1.917-1.677c0.531,0.24,0.964,0.776,0.688,2.132c-0.244,1.195-0.106,3.165-0.106,3.165
			s0.616-1.508,0.88-2.048c0.32-0.654,0.755-1.098,1.296-1.115c0.347-0.011,1.244,0.331,1.079,1.298
			c-0.079,0.462-0.606,1.593-0.575,1.834c0.047,0.45,0.19,2.064-0.628,2.229c-0.81,0.181-1.577-0.853-1.577-0.853
			s0.188,1.062-0.935,1.121c-1.14,0.058-2.155-1.176-2.155-1.176s-0.354,1.236-1.554,0.748c-1.182-0.487-1.909-1.792-1.909-1.792
			s-0.128,0.828-1.338,0.74c-0.758-0.066-1.792-0.533-2.153-1.29c-0.693-1.454-0.807-2.801-0.58-3.992
			c0.214-1.125,0.88-1.985,1.475-2.874c0.306-0.456,1.945,0.589,1.483,2.77c-0.246,1.16-0.477,1.969,0.655,3.623l-0.309-2.795
			c0,0,0.582-2.638,1.334-3.082c0.339-0.2,1.649-0.079,1.764,1.671C583.214,246.824,582.646,248.116,582.791,248.784z"/>
		<g>
			<g>
				<path style="fill:#5A919E;" d="M662.878,219.294l-1.069-0.074c-7.134-0.494-37.289-2.123-37.593-2.139l-0.946-0.051v-12.448
					l0.936-0.061c15.907-1.032,37.573,1.518,37.791,1.544l0.882,0.105V219.294z M625.269,215.135
					c4.947,0.268,27.852,1.515,35.608,2.019v-9.202c-4.119-0.452-21.822-2.253-35.608-1.491V215.135z"/>
			</g>
			<g>
				<rect x="628.503" y="208.306" style="fill:#5A919E;" width="2" height="4.435"/>
			</g>
			<g>
				<rect x="633.769" y="209.035" style="fill:#5A919E;" width="2" height="3.706"/>
			</g>
			<g>
				<rect x="639.166" y="209.809" style="fill:#5A919E;" width="2" height="3.603"/>
			</g>
			<g>
				
					<rect x="644.001" y="209.029" transform="matrix(0.9973 -0.0739 0.0739 0.9973 -13.8389 48.2155)" style="fill:#5A919E;" width="2" height="4.389"/>
			</g>
			<g>
				<rect x="649.269" y="210.523" style="fill:#5A919E;" width="2" height="2.889"/>
			</g>
			<g>
				<rect x="655.019" y="209.809" style="fill:#5A919E;" width="2" height="3.603"/>
			</g>
		</g>
		<g>
			<path style="fill:#072228;" d="M666.443,199.306c0,0-0.826-11.863,0-20.432l-5.522-1.32c0,0,0.363,18.292,1.856,23.147
				L666.443,199.306z"/>
			<path style="fill:#FF8B66;" d="M670.943,199.77c-3.227-3.484-7.728-0.193-7.728-0.193c-0.487-0.325-3.059,1.186-3.059,1.186
				s-0.794,5.792,0.942,7.503c0,0-0.245,4.24,2.045,5.868c2.29,1.628,7.219,0.969,8.972-0.962
				C673.869,211.24,672.384,201.326,670.943,199.77z"/>
			<path style="fill:#EF6E4B;" d="M663.215,199.577c-1.178,0.967,0.365,3.332,0.365,3.332s-0.481,1.066-0.335,1.903
				c0.146,0.837,1.426,2.064,1.426,2.064s-0.184,0.582-0.093,1.441c0.091,0.859,1.315,2.172,1.315,2.172s-0.348,0.417-0.031,1.27
				c0.317,0.853,3.657,1.168,3.657,1.168s-2.091,1.018-2.288,1.244c-1.792,2.051-4.562,0.858-5.352,0
				c-1.067-1.157-1.15-4.907-1.15-4.907c-2.792-3.745-4.208-7.477-2.5-9.458c2.083-2.417,2.958,0.333,2.958,0.333L663.215,199.577z"
				/>
			<path style="fill:#EF6E4B;" d="M663.579,202.909c0,0,0.851-0.572,1.497-0.865c0.646-0.293,4.108,0.108,4.108,0.108
				s-2.779-0.943-3.653-0.778c-0.874,0.165-2.514,1.469-2.514,1.469L663.579,202.909z"/>
			<path style="fill:#EF6E4B;" d="M664.082,206.856c0,0,0.564-0.621,1.188-1.086c0.624-0.465,4.861-0.141,4.861-0.141
				s0.407,0.244-0.74,0.511c-1.148,0.266-4.982,0.752-5.183,1.04C664.005,207.467,664.082,206.856,664.082,206.856z"/>
			<path style="fill:#EF6E4B;" d="M665.446,210.26c0,0,0.737-0.867,1.334-1.053s3.284-0.29,3.419,0.06
				c0.136,0.35-3.755,0.919-4.307,1.223C665.339,210.793,665.446,210.26,665.446,210.26z"/>
			<path style="fill:#FF8B66;" d="M659.975,198.806c0.908-0.15,1.901,4.59,1.901,4.59s0.137,1.41-1.901,0.744
				C657.936,203.472,655.43,199.556,659.975,198.806z"/>
			<path style="fill:#072228;" d="M666.101,212.741l3.417,0.186c0,0,2.626,14.879,7.001,22.004l-2,7.5
				C674.519,242.431,667.918,226.525,666.101,212.741z"/>
		</g>
	</g>
	<g>
		<g>
			<path style="fill:#0E3944;" d="M79.393,164.848l2.545,112.774c0,0,8.737,3.234,15.839-0.224l-3.929-112.654
				C93.849,164.743,87.897,160.624,79.393,164.848z"/>
			<path style="fill:#0D527C;" d="M153.287,275.306c0,0-30.768,15.625-56.527,0.215c-18.717-11.197,39.466-60.582,39.466-60.582
				l13.618-1.448L153.287,275.306z"/>
			<path style="fill:#FFC3BA;" d="M147.972,180.214l31.114,4.059c-2.132-6.762-2.407-25.446-4.878-38.22l7.73-0.607
				c1.891,11.709,6.391,20.066,10.417,37.257c1.003,4.283,1.11,15.87-0.596,16.016c-1.706,0.146-13.404,5.215-46.305,0
				L147.972,180.214z"/>
			<path style="fill:#0D527C;" d="M149.845,178.69c0,0,9.424,2.752,10.924,2.684c1.5-0.068,5.25-0.011,7.5,0.21
				c2.25,0.221,8.038,2.159,9.25,1.773c1.212-0.386-0.625-3.663-0.625-3.663l0.992-1.563c0,0-1.492-2.283,0.758-1.867
				c2.25,0.416,11.875,3.208,15.125,5.875c3.25,2.666,0,4.923,0,4.923s0.625,3.005,0.375,3.812s-0.125,7.078-0.375,8.13
				c-0.25,1.052-31.125,3.323-39.125,2.625S149.845,178.69,149.845,178.69z"/>
			<path style="fill:#FFC3BA;" d="M181.509,146.066c-1.68,1.45-5.68,1.2-5.68,1.2s-4.88-3.55-6.13-5.05
				c-0.32-0.39-1.81-2.1-3.31-4.85c-1.26-2.32-3.2-3.44-3.06-3.56c2.31-1.98,5.1,2.67,7.09,3.42c0,0,0.01,0,0.03,0.01
				c0.12,0.05,0.24,0.08,0.35,0.09c0.19,0.02,0.36,0,0.53-0.08c0,0-0.05-1.23-0.12-3.01c-0.15-4.32-0.36-11.86-0.01-12.66
				c0.5-1.12,1.63-0.56,1.63-0.56s0.12,3.87,1,9.62c0,0,3.37-0.5,4-0.12c0.62,0.37,1.25,0.75,2.12,0.75c0.88,0,1.75,0.14,2.38,2.07
				C182.949,135.266,183.179,144.626,181.509,146.066z"/>
			<path style="fill:#F2ADA2;" d="M181.199,136.706c0.07,0.18-0.81,0.93-0.81,0.93c-0.06,0.57-1.06,2.13-2.12,2.13
				c-1.07,0-3.07,0.87-3.07,0.87c-1.42-2.21-3.54-3.05-4.4-3.31c0.19,0.02,0.36,0,0.53-0.08c0,0-0.05-1.23-0.12-3.01l1.24,0.15
				c0-1,0.44-3.37,1.38-3.75c0,0,0.06,0.57-0.25,1.57c-0.31,1-0.13,1.56-0.06,1.87c0.06,0.31,2.06,0.38,2.25-0.75
				c0.17-1.05,1.06-1.72,1.17-1.8c-0.55,0.76-0.92,2.86-0.67,3.49c0.25,0.62,1.93,0.62,1.93,0.62s0-0.56,0.19-1.56s1-1.5,1-1.5
				s-1.37,2.81-0.37,3.38c1,0.56,1.25-0.32,1.25-0.32c0.37,0.07,0.94-1.12,0.94-1.12S181.139,136.516,181.199,136.706z"/>
			<path style="fill:#FFC3BA;" d="M69.513,232.44c0,0,16.549,28.16,23.089,35.601l9.167,3.485l-5.778,15.029l-7.389-10.894
				c0,0-22.339-18.722-32.589-34.125L69.513,232.44z"/>
			<path style="fill:#0D527C;" d="M91.173,181.375c-5.66-0.24-38.66,47.944-39.16,52.727s5,10.771,5,10.771l16.25-9.218
				l-1.686-3.214c0,0,2.186-0.194,2.936,0c0.75,0.194,1.5-2.559,1.5-2.559l17.75-16.516L91.173,181.375z"/>
			<path style="fill:#105E99;" d="M72.872,237.744c0,0,2.308-1.569,1.808-2.089c-0.5-0.52-2.244-1.577-2.244-1.577
				s1.205-1.637-0.859-1.637c-2.064,0-18.628,4.194-19.596,6.194c-0.968,2,2.51,2.902,2.51,2.902s0.356,5.858,1.523,5.561
				c1.167-0.297,3.484-0.922,3.484-0.922S65.064,238.186,72.872,237.744z"/>
			<g>
				<path style="fill:#072228;" d="M186.58,430.395c0,1.088-0.111,1.854-0.111,1.854h-31.454c0-0.622,0.011-1.243,0.044-1.854
					c0.355-8.227,2.953-15.366,2.953-15.366l7.861-3.375c0.677,4.052,2.42,6.639,4.608,8.327c0.577,0.455,1.177,0.833,1.799,1.155
					c0.289,0.156,0.577,0.3,0.877,0.433c0.655,0.3,1.332,0.544,2.01,0.744c2.776,0.844,5.585,1.021,7.55,1.321
					C186.07,424.156,186.58,428.031,186.58,430.395z"/>
				<path style="fill:#0E3944;" d="M174.512,422.906c0,0-3.225,0.167-3.029,1.083c0.196,0.917,2.779,2.5,5.696,2.75
					c2.917,0.25,6.333-1.917,6.333-1.917s-0.25-0.25-3.583-0.75C176.595,423.573,174.512,422.906,174.512,422.906z"/>
			</g>
			<g>
				<path style="fill:#072228;" d="M128.361,425.399c-2.257-1.185-2.963-5.081-3.171-7.993h-13.762
					c-2.167,5.512-3.461,8.69-2.575,12.989c0.133,0.633,0.322,1.244,0.589,1.854h20.951c0,0,0.278-0.788,0.355-1.854
					C130.892,428.797,130.603,426.576,128.361,425.399z"/>
				<path style="fill:#0E3944;" d="M113.637,425.241c0,0,4.18-1.921,8.75-1.543c4.57,0.377,6.983,2.75,6.792,3
					c-1.522,1.992-6.917-1-10.667,0.625S113.637,425.241,113.637,425.241z"/>
			</g>
			<path style="fill:#8BBDDB;" d="M96.428,266.823c2.084,62.785,10,115.667,10.75,137.917c0.384,11.397,1.675,19.085,1.675,19.085
				s10.858-8.777,17.009-2.256l-0.208-9.915l-1.134-5.981l-2.733-110.982l4.851-0.311l23.207,111.026c0,0,5.127,14.68,5.171,19.835
				l16.467-5.26l-4.355-11.88l0.455-3.358l-2.195-8.671c0,0-20.188-118.324-18.881-130.261c0,0,0.089-1.989-1.077-2.489
				c-9.484-4.065-40.252-2.372-48.668-0.925C95.251,262.657,96.428,266.823,96.428,266.823z"/>
			<path style="fill:#072228;" d="M96.76,258.24v4.158c0,0,11.431,4.425,27.716,4.425c16.285,0,20.952-3.5,20.952-3.5l0.025-3.917
				L96.76,258.24z"/>
			<path style="fill:#0E3944;" d="M110.512,259.198c0,0-0.375,4.625,0,7.625h-2.375c0,0-0.625-3.75,0-7.625H110.512z"/>
			<path style="fill:#0E3944;" d="M136.747,266.905c0,0,0.058-4.64-0.52-7.607l2.369-0.162c0,0,0.88,3.699,0.52,7.607
				L136.747,266.905z"/>
			<path style="fill:#CFD8DC;" d="M119.046,260.89v5.804c0,0.324,0.262,0.586,0.586,0.586h9.689c0.324,0,0.586-0.262,0.586-0.586
				v-5.709c0-0.322-0.259-0.583-0.58-0.586l-9.689-0.095C119.312,260.301,119.046,260.564,119.046,260.89z"/>
			<path style="fill:#B5C4C9;" d="M91.844,180.302c3.667-0.896,15.784-2.476,29.392-2.686c13.608-0.21,23.275-0.31,28.608,1.073
				c0,0-4.391,53.866-1.076,93.817c0,0-22.75,10.798-54.125-0.466c0,0-0.866-28.802-1.799-49.709
				C91.512,192.479,91.844,180.302,91.844,180.302z"/>
			<path style="fill:#8BBDDB;" d="M98.225,274.091c0,0-3.289,4.482-3.956,10.815l3.956,7.612
				C98.225,292.518,101.681,279.276,98.225,274.091z"/>
			<path style="fill:#105E99;" d="M120.562,176.265c10.044,1.237,17.207,5.35,19.541,20.237
				c2.333,14.887,10.833,84.221,10.833,84.221l7.333-9.196c0,0-6.75-19.635-3.625-69.898c0.548-8.818-4.799-22.939-4.799-22.939
				s-2.242-1.196-13.618-2.103C126.548,175.816,120.562,176.265,120.562,176.265z"/>
			<path style="fill:#105E99;" d="M118.515,177.677c0,0-6.9,0.046-10.656,4.462c-3.756,4.416-3.435,82.27-14.096,86.343
				l-1.161-0.441c0,0-4.167-12.002-4-13.911c0.167-1.908,2.5-8.858,2.5-8.858l0.705-30.088c0,0-3.888-28.97,0.037-34.883
				C91.844,180.302,109.76,175.632,118.515,177.677z"/>
			<path style="fill:#0D527C;" d="M119.704,174.625c0,0-8.567,0.97-13.001,2.533c-4.434,1.564-5.601,9.903-5.601,9.903l3.891-3.13
				l1.139,6.942c0,0,1.958-13.47,14.811-14.068c14.409-0.671,18.246,15.289,18.246,15.289l0.227-8.162h4.02c0,0-3-5.337-6-6.773
				C134.436,175.722,128.806,174.528,119.704,174.625z"/>
			<path style="fill:#F2ADA2;" d="M126.354,170.39c0,0-1.547,5.112,0.902,7.748c0,0-4.054,7.948-13.092,1.438
				c0,0,1.721-4.346,0-7.168L126.354,170.39z"/>
			<g>
				<path style="fill:#FFC3BA;" d="M108.677,158.729c0,0-3.247-3.24-3.647,0.548c-0.463,4.389,3.523,6.157,4.302,4.761
					C110.111,162.641,108.677,158.729,108.677,158.729z"/>
				<path style="fill:#FFC3BA;" d="M131.416,158.958c0,0,3.247-3.241,3.647,0.548c0.463,4.389-3.523,6.157-4.302,4.761
					C129.982,162.87,131.416,158.958,131.416,158.958z"/>
				<path style="fill:#FFC3BA;" d="M119.704,174.625c-7.205,0-11.271-4.706-11.271-18.822c0-7.281,3.704-11.747,11.775-11.747
					c8.07,0,11.469,4.466,11.469,11.747C131.677,170.971,127.148,174.625,119.704,174.625z"/>
				<path style="fill:#ED93A4;" d="M129.29,160.838c0.127,0.724-0.505,1.439-1.411,1.597c-0.906,0.158-1.742-0.301-1.868-1.025
					c-0.127-0.724,0.505-1.439,1.411-1.597C128.328,159.655,129.164,160.114,129.29,160.838z"/>
				<path style="fill:#ED93A4;" d="M114.471,161.232c-0.048,0.734-0.83,1.28-1.748,1.22c-0.917-0.06-1.622-0.703-1.574-1.437
					c0.048-0.733,0.83-1.28,1.748-1.22C113.814,159.856,114.519,160.499,114.471,161.232z"/>
				<g>
					<path style="fill:#0E3944;" d="M125.995,153.514c-0.095,0-0.189-0.037-0.26-0.111c-0.998-1.047-2.747-1.002-2.773-1.002
						c-0.195,0.002-0.365-0.149-0.371-0.349c-0.007-0.199,0.149-0.365,0.348-0.371c0.077-0.005,2.099-0.052,3.316,1.225
						c0.137,0.144,0.132,0.372-0.011,0.509C126.175,153.482,126.084,153.514,125.995,153.514z"/>
				</g>
				<g>
					<path style="fill:#0E3944;" d="M112.429,153.514c-0.089,0-0.178-0.032-0.248-0.099c-0.144-0.137-0.149-0.365-0.013-0.509
						c1.218-1.278,3.237-1.229,3.316-1.225c0.199,0.007,0.354,0.173,0.348,0.371c-0.006,0.199-0.18,0.352-0.371,0.349
						c-0.013-0.003-1.784-0.036-2.771,1.002C112.619,153.477,112.524,153.514,112.429,153.514z"/>
				</g>
				<path style="fill:#1A4850;" d="M125.373,157.337c0,0.895-0.403,1.62-0.9,1.62c-0.497,0-0.9-0.726-0.9-1.62
					c0-0.895,0.403-1.62,0.9-1.62C124.97,155.717,125.373,156.442,125.373,157.337z"/>
				<path style="fill:#1A4850;" d="M115.751,157.337c0,0.895-0.403,1.62-0.9,1.62c-0.497,0-0.9-0.725-0.9-1.62
					c0-0.895,0.403-1.62,0.9-1.62C115.348,155.717,115.751,156.442,115.751,157.337z"/>
				<path style="fill:#1A4850;" d="M115.751,166.91c0,0,6.354,0.818,9.622-0.751c0,0-1.848,4.326-5.318,3.938
					C116.585,169.71,115.751,166.91,115.751,166.91z"/>
				<g>
					<path style="fill:#ED93A4;" d="M120.96,164.646c-0.7,0.001-1.411-0.181-1.626-0.241l0.204-0.737
						c0.756,0.209,1.942,0.333,2.201,0.028c0.089-0.106,0.054-0.352-0.099-0.675c-1.041-2.215-1.258-7.822-1.267-8.059l0.765-0.028
						c0.002,0.057,0.219,5.688,1.194,7.761c0.298,0.632,0.294,1.135-0.009,1.495C122.028,164.54,121.498,164.646,120.96,164.646z"/>
				</g>
				<path style="fill:#0E3944;" d="M108.672,161.2c0,0,0.275-3.863,0.892-6.266c0,0-1.075-5.013,1.779-7.783
					c0,0,4.195,0.605,8.712,0.605s7.596-0.605,7.596-0.605s2.171,1.943,1.921,7.024c0,0,1.014,3.451,1.88,6.949
					c0,0,5.87-20.993-12.631-20.993C100.072,140.132,108.672,161.2,108.672,161.2z"/>
				<g>
					<path style="fill:none;stroke:#0E3944;stroke-width:0.5;stroke-miterlimit:10;" d="M128.411,157.667
						c0,1.851-1.5,3.351-3.351,3.351c-1.85,0-3.351-1.5-3.351-3.351c0-1.85,1.5-3.35,3.351-3.35
						C126.911,154.316,128.411,155.816,128.411,157.667z"/>
					<path style="fill:none;stroke:#0E3944;stroke-width:0.5;stroke-miterlimit:10;" d="M118.515,158.285
						c0,1.85-1.5,3.35-3.351,3.35c-1.85,0-3.351-1.5-3.351-3.35c0-1.851,1.5-3.351,3.351-3.351
						C117.015,154.934,118.515,156.434,118.515,158.285z"/>
					<path style="fill:none;stroke:#0E3944;stroke-width:0.5;stroke-miterlimit:10;" d="M118.515,158.285
						c0,0,1.802-1.004,3.195-0.254"/>
					
						<path style="fill:none;stroke:#0E3944;stroke-width:0.5;stroke-linecap:round;stroke-linejoin:round;stroke-miterlimit:10;" d="
						M128.411,157.438c0,0,2.025-0.532,3.234-0.532"/>
					
						<path style="fill:none;stroke:#0E3944;stroke-width:0.5;stroke-linecap:round;stroke-linejoin:round;stroke-miterlimit:10;" d="
						M111.814,158.285c0,0-1.676-0.653-3.381-0.266"/>
				</g>
				<path style="fill:#0E3944;" d="M131.677,152.889c0,0,2.342-3.167,1.926-5.917c-0.417-2.75-1.912-6.167-7.248-7.917
					c0,0,3.1,1.667,4.174,3.5c0,0-3.676-5.75-13.343-4.75c-9.667,1-13.083,7.833-12.667,10.833c0,0,0.368-2.5,2.184-3.75
					c0,0-3.172,5,0.114,8.625l1.616-0.917c0,0-3.413-6.783,2.753-6.995c6.167-0.212,11.367,0,11.367,0s3.666-2.871,5.858,0
					C130.603,148.472,131.677,152.889,131.677,152.889z"/>
				<path style="fill:#0E3944;" d="M122.553,147.056c0,0-7.021,1.833-7.069,4.625c0,0-0.699-3.375,3.585-4.625
					S122.553,147.056,122.553,147.056z"/>
			</g>
			<path style="fill:#105E99;" d="M177.59,175.724c0,0,10.334,3.382,13.673,2.565c0,0,1.756,0.1,2.589,1.517
				c0.833,1.417,0,1.833,0,1.833s1.222,1,1.361,3.083c0.139,2.083-1.445,2.34-1.445,2.34s-14.677-2.896-15.839-4.409
				c-1.161-1.514-0.745-4.18-0.745-4.18S175.911,175.809,177.59,175.724z"/>
			<g>
				<path style="fill:#0E3944;" d="M145.356,127.282c-0.314,1.178-2.397,1.647-4.651,1.046c-2.255-0.601-3.828-2.044-3.514-3.222
					c0.314-1.178,2.397-1.647,4.651-1.046C144.097,124.661,145.67,126.104,145.356,127.282z"/>
				<path style="fill:#FFB878;" d="M157.509,110.489c1.656-6.213-2.038-12.593-8.252-14.249c-6.213-1.656-12.593,2.038-14.249,8.252
					c-1.058,3.97,0.075,8.001,2.647,10.832l0.488,2.054l10.233,2.728l1.446-1.538C153.461,117.391,156.451,114.458,157.509,110.489z
					"/>
				<g>
					<path style="fill:#83989E;" d="M146.095,128.514l-10.159-2.708c-0.179-0.048-0.293-0.223-0.263-0.406l1.451-9.043
						c0.034-0.211,0.243-0.347,0.449-0.292l11.951,3.185c0.207,0.055,0.32,0.277,0.245,0.477l-3.242,8.565
						C146.46,128.466,146.274,128.562,146.095,128.514z"/>
				</g>
				<g>
					<path style="fill:#B5C4C9;" d="M136.732,118.439c-0.231-0.062-0.392-0.283-0.369-0.529c0.026-0.275,0.269-0.477,0.544-0.452
						l11.958,1.107c0.275,0.033,0.477,0.269,0.452,0.544c-0.026,0.275-0.269,0.477-0.544,0.452l-11.958-1.107
						C136.786,118.451,136.758,118.446,136.732,118.439z"/>
				</g>
				<g>
					<path style="fill:#B5C4C9;" d="M136.337,120.932c-0.231-0.062-0.391-0.282-0.368-0.529c0.025-0.275,0.268-0.477,0.543-0.452
						l12.598,1.154c0.277,0.028,0.478,0.268,0.452,0.543c-0.025,0.275-0.268,0.477-0.543,0.452l-12.598-1.154
						C136.391,120.944,136.363,120.939,136.337,120.932z"/>
				</g>
				<g>
					<path style="fill:#B5C4C9;" d="M135.944,123.414c-0.231-0.062-0.392-0.283-0.369-0.529c0.026-0.275,0.269-0.478,0.544-0.452
						l12.06,1.114c0.274,0.033,0.477,0.27,0.452,0.544c-0.026,0.275-0.269,0.478-0.544,0.452l-12.06-1.114
						C135.999,123.426,135.971,123.421,135.944,123.414z"/>
				</g>
				<g>
					<path style="fill:#B5C4C9;" d="M135.549,125.906c-0.231-0.062-0.391-0.282-0.368-0.529c0.025-0.275,0.268-0.477,0.543-0.452
						l11.537,1.057c0.278,0.025,0.478,0.269,0.452,0.543c-0.025,0.275-0.268,0.477-0.544,0.452l-11.537-1.057
						C135.604,125.918,135.576,125.913,135.549,125.906z"/>
				</g>
				<path style="fill:none;stroke:#F2A668;stroke-miterlimit:10;" d="M141.349,116.557c0,0,1.454-5.004,0.252-7.998l1.957,0.521
					l0.821-0.816l0.135,2.408l1.534-1.963l0.221,2.172l1.194-1.407l0.301,0.813l2.295,0.612c0,0-2.824,2.183-4.16,6.87"/>
				<path style="fill:#F2A668;" d="M151.517,93.706c0,0,1.5-6.449,2.833-5.974C155.684,88.206,151.517,93.706,151.517,93.706z"/>
				<path style="fill:#F2A668;" d="M159.736,99.965c0,0,5.609-3.592,5.945-1.925C166.017,99.706,159.736,99.965,159.736,99.965z"/>
				<path style="fill:#F2A668;" d="M138.85,94.455c0,0-1.146-6.415-2.49-5.581C135.017,89.706,138.85,94.455,138.85,94.455z"/>
				<path style="fill:#F2A668;" d="M131.514,104.54c0,0-4.978-1.667-4.571,0C127.35,106.206,131.514,104.54,131.514,104.54z"/>
				<path style="fill:#F2A668;" d="M161.35,111.706c0,0,4.688-0.213,4.344,1.31C165.35,114.54,161.35,111.706,161.35,111.706z"/>
			</g>
			<path style="fill:#83989E;" d="M137.719,199.626v38.43c-7.82,1.63-29.83,0.7-29.83,0.7c1.01-9.25-0.61-39.13-0.61-39.13
				C116.369,200.576,137.719,199.626,137.719,199.626z"/>
			<path style="fill:#8EA9AF;" d="M137.719,199.626v38.43c-7.82,1.63-29.83,0.7-29.83,0.7
				C122.769,225.826,137.719,199.626,137.719,199.626z"/>
			<polygon style="fill:#8EA9AF;" points="130.519,241.816 137.715,241.056 137.715,243.033 130.519,243.544 			"/>
			<path style="fill:#072228;" d="M89.769,177.493c0,0,6.742,0.726,7.246,20.519c0.504,19.793-10.996,48.104-10.996,48.104
				l1.5,2.777c0,0,14.667-24.931,13.583-47.134c-1.083-22.204-7.339-24.266-7.339-24.266H89.769z"/>
		</g>
		<g>
			<path style="fill:#0E3944;" d="M456.647,207.593l72.328,86.562c0,0,8.847-2.922,12.241-10.055l-73.335-85.605
				C467.881,198.496,460.659,198.988,456.647,207.593z"/>
			<path style="fill:#F2ADA2;" d="M538.84,196.743c0,0,9.125,6.952,12.792,8.549c3.667,1.597,4.167,8.817,1.167,10.79
				s-32.338,7.786-32.338,7.786l-3.229-12.116c0,0,19.068-0.905,23.568-2.717l-4.084-3.056L538.84,196.743z"/>
			<path style="fill:#CE364C;" d="M513.629,210.601c1.711-0.482,11.581,0.607,13.74,0c0,0,2.096,2.518,2.284,6.33
				s-3.313,10.655-3.313,10.655s-4.313,1.21-5.125,4.903C520.403,236.181,513.629,210.601,513.629,210.601z"/>
			<g>
				<g>
					<path style="fill:#0E3944;" d="M466.917,417.189l7.423-0.608c0,0,10.241-58.361,12.661-64.321c2.08-5.14,10.97-24.8,13.92-39.9
						c0.14,0.07,1.06-0.09,2.31-0.33h0.01c0.31-0.07,0.64-0.14,0.99-0.21c0.31-0.07,0.64-0.14,0.97-0.21
						c0.25,15.05,3.52,33.61,4.52,38.81c1.21,6.31-0.506,65.786-0.506,65.786l7.125,0.875c13.11-46.47,7.041-67.121,7.041-67.121
						s12.02-41.83,7.76-56.58c-1.41-4.92-3.15-9.38-4.83-13.13c-0.14-0.31-0.27-0.61-0.42-0.9c-3.2-6.98-6.11-11.31-6.11-11.31
						l-14.05,1.76l-0.13-0.23l-0.41,0.08v4.41l-1.78-0.09l-0.4-0.03h-0.01l-5.83-0.31l-0.8-0.04l-5.1-0.27c0,0-3.06,4.87-7.42,12.7
						c-0.16,0.3-0.33,0.6-0.49,0.9c-1.55,2.81-3.25,5.97-5.03,9.4c-7.05,13.65-4.64,52.83-4.64,52.83
						S463.097,369.059,466.917,417.189z"/>
				</g>
			</g>
			<path style="fill:#FFC3BA;" d="M519.785,268.046c-13.84,10.45-28.51,5.28-28.51,5.28s-19.77-41.95-19.32-49.76
				c0.1-1.72,1.35-2.89,3.25-3.67c1.46-0.61,3.28-0.97,5.27-1.19c7.18-0.79,16.29,0.5,16.29,0.5s5.02-3.51,10.27-5.95
				c2.37-1.1,4.79-1.98,6.82-2.21c1.46-0.18,2.72-0.02,3.61,0.63C522.355,215.216,519.785,268.046,519.785,268.046z"/>
			<path style="fill:#F2ADA2;" d="M497.938,201.726c0,0-1.168,14.105,2.757,16.122c0,0-2.9,5.346-10.674,2.092
				c0,0,1.314-7.255-3.828-15.868C482.748,198.305,497.938,201.726,497.938,201.726z"/>
			<g>
				<path style="fill:#7AB0C1;" d="M517.918,415.379c0,0-0.905,5.201,0.084,8.689c0.597,2.106,3.045,4.808,1.519,8.182h-14.049
					c0,0-1.927-3.796,1.094-7.339c1.67-1.959,1.299-11.05,1.299-11.05c1.59,0.253,1.286,1.518,1.286,1.518s-0.385-4.287,3.208-3.712
					c4.307,0.689,3.602,4.471,3.602,4.471S516.348,414.757,517.918,415.379z"/>
				<path style="fill:#8BBDDB;" d="M518.557,427.02c0,0-4.23-5.038-11.746-1.012c0,0-0.054,3.543,3.559,2.868
					C513.983,428.201,516.362,430.9,518.557,427.02z"/>
			</g>
			<g>
				<path style="fill:#7AB0C1;" d="M465.937,415.379c0,0,0.905,5.201-0.084,8.689c-0.597,2.106-3.045,4.808-1.519,8.182h14.049
					c0,0,1.927-3.796-1.094-7.339c-1.67-1.959-1.299-11.05-1.299-11.05c-1.59,0.253-1.286,1.518-1.286,1.518
					s0.385-4.287-3.208-3.712c-4.307,0.689-3.602,4.471-3.602,4.471S467.507,414.757,465.937,415.379z"/>
				<path style="fill:#8BBDDB;" d="M465.298,427.02c0,0,4.23-5.038,11.746-1.012c0,0,0.054,3.543-3.559,2.868
					C469.872,428.201,467.493,430.9,465.298,427.02z"/>
			</g>
			<g>
				<path style="fill:#FFC3BA;" d="M504.031,195.993c0,0,3.193-3.137,3.555,0.562c0.418,4.286-3.485,5.981-4.234,4.613
					C502.602,199.8,504.031,195.993,504.031,195.993z"/>
				<path style="fill:#FFC3BA;" d="M481.84,196.044c0,0-3.144-3.186-3.563,0.507c-0.485,4.279,3.392,6.035,4.162,4.678
					C483.21,199.873,481.84,196.044,481.84,196.044z"/>
				<path style="fill:#FFC3BA;" d="M493.15,211.422c7.031,0.055,11.035-4.507,11.142-18.282c0.055-7.105-3.526-11.491-11.401-11.553
					c-7.876-0.061-11.226,4.271-11.281,11.377C481.494,207.766,485.887,211.366,493.15,211.422z"/>
				<path style="fill:#ED93A4;" d="M483.9,197.896c-0.129,0.706,0.482,1.408,1.365,1.57c0.883,0.161,1.703-0.281,1.831-0.987
					c0.129-0.706-0.482-1.408-1.365-1.569C484.848,196.748,484.029,197.19,483.9,197.896z"/>
				<path style="fill:#ED93A4;" d="M498.358,198.393c0.041,0.716,0.8,1.255,1.696,1.204c0.896-0.051,1.589-0.674,1.547-1.39
					c-0.041-0.716-0.8-1.255-1.696-1.204C499.01,197.054,498.317,197.676,498.358,198.393z"/>
				<g>
					<path style="fill:#105E99;" d="M486.202,190.266c0.106,0.116,0.281,0.15,0.426,0.071c1.241-0.669,2.859-0.098,2.875-0.092
						c0.183,0.066,0.384-0.029,0.45-0.211c0.066-0.182-0.027-0.383-0.211-0.45c-0.078-0.028-1.933-0.682-3.448,0.136
						c-0.17,0.092-0.234,0.305-0.142,0.476C486.165,190.221,486.183,190.245,486.202,190.266z"/>
				</g>
				<g>
					<path style="fill:#105E99;" d="M497.276,189.72c0.054,0.031,0.116,0.048,0.182,0.046c0.017,0,1.734-0.027,2.698,1
						c0.133,0.143,0.355,0.149,0.497,0.015c0.141-0.133,0.148-0.355,0.015-0.497c-1.178-1.257-3.144-1.223-3.227-1.221
						c-0.194,0.005-0.347,0.165-0.342,0.359C497.102,189.55,497.172,189.661,497.276,189.72z"/>
				</g>
				<g>
					<path style="fill:#1A4850;" d="M497.094,194.538c-0.007,0.873,0.381,1.584,0.866,1.587c0.485,0.004,0.884-0.701,0.891-1.574
						c0.007-0.873-0.381-1.584-0.866-1.588C497.5,192.96,497.101,193.665,497.094,194.538z"/>
				</g>
				<path style="fill:#1A4850;" d="M496.195,203.752c0,0-4.407-0.361-6.348-2.002c0,0,0.918,2.473,3.315,2.712
					C495.56,204.703,496.195,203.752,496.195,203.752z"/>
				<g>
					<path style="fill:#1A4850;" d="M489.595,194.094c0,0-0.701-1.026-1.547-0.878c-0.846,0.148-1.424,0.855-1.424,0.855
						l-1.243-0.671l1.247,0.173c0,0,0.627-0.699,1.462-0.696C489.279,192.88,489.595,194.094,489.595,194.094z"/>
					<path style="fill:#1A4850;" d="M496.42,194.41c0,0,0.657-2.146,1.501-1.985c0.844,0.161,1.47,2.008,1.47,2.008l1.253-0.652
						l-1.249,0.153c0,0-0.635-1.926-1.47-1.937C496.734,191.984,496.42,194.41,496.42,194.41z"/>
				</g>
				<path style="fill:#105E99;" d="M481.776,198.016c0,0,1.763-5.889,1.95-10.451c0,0,1.924-4.438,9.149-4.5
					c7.226-0.063,9.226,4.967,9.226,4.967s0.762,6.479,1.85,10.975c0,0,0.365-2.294,1.508-4.024c0,0,5.095-17.839-12.583-17.844
					c-17.91-0.005-12.421,17.885-12.421,17.885S481.2,195.217,481.776,198.016z"/>
				<g>
					<path style="fill:#ED93A4;" d="M492.683,199.421c0.148,0.085,0.313,0.153,0.495,0.204l0.204-0.73
						c-0.622-0.174-0.756-0.56-0.758-0.853c-0.003-0.414,0.251-0.8,0.481-0.868c0.134-0.039,0.273,0.052,0.414,0.273l0.639-0.408
						c-0.468-0.734-1.042-0.658-1.268-0.591c-0.58,0.172-1.029,0.875-1.024,1.6C491.871,198.638,492.168,199.126,492.683,199.421z"
						/>
				</g>
				<path style="fill:#105E99;" d="M494.441,178.306c0,0,1.795-3.756,0.5-6.417c-2.392-4.917-10.226-3.557-12.167,0.583
					c-2.485,5.302,1.75,7.25,1.75,7.25s-4.416-2.261-3.25-5.256c0,0-1.748,2.839,0.543,4.756c2.291,1.917,11.298,1.721,13.124-0.083
					c1.826-1.805,1.75-4.244,1.75-4.244S496.441,177.472,494.441,178.306z"/>
				<path style="fill:#105E99;" d="M493.758,177.506c0,0,0.044-0.06,0.126-0.171c0.083-0.118,0.202-0.298,0.341-0.537
					c0.275-0.476,0.639-1.193,0.856-2.11c0.223-0.909,0.253-2.039-0.186-3.127c-0.218-0.525-0.552-1.094-0.969-1.5
					c-0.436-0.431-0.974-0.786-1.559-1.05c-2.378-1.05-5.227-0.819-6.993,0.042c-0.9,0.419-1.522,0.998-1.864,1.466
					c-0.172,0.233-0.291,0.43-0.357,0.572c-0.069,0.14-0.106,0.215-0.106,0.215s0.033-0.076,0.096-0.22
					c0.059-0.145,0.168-0.349,0.331-0.593c0.322-0.488,0.927-1.11,1.827-1.583c1.773-0.963,4.661-1.365,7.264-0.371
					c0.643,0.255,1.256,0.613,1.778,1.082c0.544,0.495,0.895,1.053,1.19,1.664c0.563,1.225,0.584,2.545,0.378,3.577
					c-0.199,1.046-0.566,1.853-0.848,2.398c-0.143,0.273-0.268,0.481-0.358,0.623c-0.097,0.145-0.148,0.222-0.148,0.222
					L493.758,177.506z"/>
			</g>
			<path style="fill:#F2ADA2;" d="M513.855,211.046c-1.79,4.38-11.55,11.59-13.09,12.39c-1.7,0.89-1.83,4.15-1.83,4.15
				s-2.3-3.36-7.07-3.62c-3.67-0.2-12.7-2.86-16.66-4.07c1.46-0.61,3.28-0.97,5.27-1.19c7.18-0.79,16.29,0.5,16.29,0.5
				s5.02-3.51,10.27-5.95C509.405,212.156,511.825,211.276,513.855,211.046z"/>
			<path style="fill:#CE364C;" d="M478.235,218.396c0,0,4.208,5.486,13.632,8.212c9.423,2.727,16.431-4.825,16.356-8.908
				c-0.074-4.082-0.605-5.289-0.605-5.289s6.181-2.636,9.181-1.829s9.64,10.786,2.987,57.463c0,0-8.367,12.05-28.51,5.28
				c0,0-19.143-39.043-20.143-45.74S475.995,218.086,478.235,218.396z"/>
			<g>
				<path style="fill:#8BBDDB;" d="M533.715,306.806c-5.5-0.25-29.42,10-29.42,10l-0.51-1.1l-0.65-1.4l-1.32,1.39l-1.05,1.11
					c-6.45-3-26.24-5.68-26.24-5.68s-0.37-0.73-0.37-2.61c-0.01-1.98,0.4-5.22,2.06-10.21c3.25-9.75,15.06-24.98,15.06-24.98
					c17.06,3.52,28.51-5.28,28.51-5.28s5.68,6.01,10.18,18.26c3.08,8.39,3.7,14.9,3.79,18.17
					C533.785,305.986,533.715,306.806,533.715,306.806z"/>
				<path style="fill:#7AB0C1;" d="M489.238,276.05c0,0,2.561,3.572,15.436,2.322s17.413-7.404,17.413-7.404l-2.373-3.787
					c0,0-12.167,10.042-28.876,5.253L489.238,276.05z"/>
				<path style="fill:#8BBDDB;" d="M506.649,275.697c0,0.603-0.489,1.092-1.092,1.092c-0.603,0-1.092-0.489-1.092-1.092
					s0.489-1.092,1.092-1.092C506.16,274.604,506.649,275.093,506.649,275.697z"/>
				<path style="fill:#7AB0C1;" d="M517.715,272.389c0,0,2.417,8.167,6.583,10.917c4.167,2.75,5.667,3,5.667,3
					s-6.56-13.892-9.505-15.75C517.515,268.698,517.715,272.389,517.715,272.389z"/>
				<path style="fill:#7AB0C1;" d="M495.798,276.789c0,0-5.417,9.517-13.917,11.184c0,0,6.5-10.915,8.5-12.583
					C492.382,273.722,495.798,276.789,495.798,276.789z"/>
				<path style="fill:#7AB0C1;" d="M504.798,277.639c0,0,1.921,26.083-1.664,36.667c0,0,4.477-8.083,2.529-36.667H504.798z"/>
				<path style="fill:#7AB0C1;" d="M508.965,276.789c0,0,1.667,12.424,1.083,15.637c-0.583,3.213-4.385,2.797-4.385,2.797
					l-0.106,1.25c0,0,4.158-0.427,5.075-4.047c0.917-3.62-0.917-15.637-0.917-15.637H508.965z"/>
				<path style="fill:#7AB0C1;" d="M474.155,308.516c4.51,0.19,19.17,1.25,27.66,7.18l-1.05,1.11c-6.45-3-26.24-5.68-26.24-5.68
					S474.155,310.396,474.155,308.516z"/>
				<path style="fill:#7AB0C1;" d="M533.715,306.806c-5.5-0.25-29.42,10-29.42,10l-0.51-1.1l0.17-0.07c0,0,18.93-12.99,29.8-11.16
					C533.785,305.986,533.715,306.806,533.715,306.806z"/>
			</g>
			<g>
				<path style="fill:#FFC3BA;" d="M538.452,195.876c2.245-0.041,4.452,2.149,4.336,6.029c-0.116,3.879-1.083,9.075-0.657,12.363
					c0.426,3.287-1.987,1.396-2.237-0.119c-0.26-1.516,0.066-4.633-1.737-5.57c-0.302-0.156-0.865-0.306-1.599-0.435
					c-3.699-0.677-11.91-1.064-15.148-0.815c-3.871,0.295-4.359,0.249-4.383-0.994c-0.023-1.633,6.567-1.093,10.661-1.817l0.01,0
					c0.273-0.046,0.536-0.102,0.78-0.159l1.065-8.355c0,0,4.639-0.054,7.475-0.093C537.579,195.9,538.081,195.886,538.452,195.876z"
					/>
				<path style="fill:#F2ADA2;" d="M529.542,196.003l-1.065,8.355c-0.243,0.057-0.507,0.113-0.78,0.159l0,0.01
					c0,0,1.599-0.125,2.327,1.255c0,0,0.278-0.526,1.16-0.529c0.881,0.007,2.894,0.574,3.362,0.429
					c0.346-0.102,1.583,1.306,2.012,2.46c0.734,0.129,1.297,0.279,1.599,0.435c-1.055-0.877-2.074-2.814-1.059-4.763
					c1.003-1.91,1.044-2.498,1.046-2.528c0,0-1.988-3.11-1.126-5.377C534.182,195.949,529.542,196.003,529.542,196.003z"/>
				<path style="fill:#FFC3BA;" d="M528.48,204.362c0,0-1.137-0.645-1.11-1.144c0.027-0.499,1.03-1.614,1.03-1.614
					s-0.981-0.887-0.857-1.631c0.123-0.745,1.247-1.436,1.247-1.436s-0.626-1.175-0.507-1.529c0.249-0.738,2.402-2,3.631-1.935
					c1.393,0.074,3.04,0.478,2.999,1.244c-0.053,0.999-2.856,0.808-2.856,0.808l-1.133,0.941c0,0,3.146-0.417,3.631,0.36
					c0.486,0.777,1.27,1.14,0.984,1.799c-0.285,0.659-1.582-0.084-1.582-0.084s-2.658,0.449-3.298,1.166
					c0,0,2.083-0.307,3.222,0.255c1.14,0.561,2.19,0.951,1.537,1.584c-0.652,0.633-2.124,0.054-2.124,0.054
					S529.542,204.158,528.48,204.362z"/>
			</g>
			<path style="fill:#A01F38;" d="M476.965,241.139c4.325,2.054,9.77-13,8.074-14.817c-1.696-1.817-6.574-4.35-9.407-3.766
				c-2.833,0.583-5.583,2.75-5.25,6.417C470.715,232.639,473.632,239.556,476.965,241.139z"/>
			<path style="fill:#F2ADA2;" d="M495.179,232.247c-2.171-0.976-19.247-11.88-21.024-11.256c-1.777,0.624-6.023,2.252-5.023,9.325
				s17.426,12.866,20.463,14.886c3.037,2.02,8.937-0.925,8.937-0.925S498.86,233.902,495.179,232.247z"/>
			<path style="fill:#CE364C;" d="M484.432,225.969c0,0-6.467-3.103-9.967,1.617c-3.5,4.72,1.083,12.637,2.5,13.553
				c0,0-6.134-3.75-7.984-9.083c-1.85-5.333-0.87-9.328,6.224-12.914C475.205,219.142,480.816,220.465,484.432,225.969z"/>
			<path style="fill:#072228;" d="M478.937,218.036c0,0,5.874-3.387,17.948,12.305c12.074,15.692,27.253,39.691,27.253,39.691
				l1.327-1.977c0,0-9.107-19.799-23.07-37.097c-13.963-17.298-20.232-15.276-20.232-15.276L478.937,218.036z"/>
			<path style="fill:#FFC3BA;" d="M537.537,219.824c-3.247,0.07-11.424-0.769-15.08-1.65c-0.726-0.169-1.28-0.35-1.573-0.523
				c-1.748-1.035-1.251-4.129-1.427-5.657c-0.166-1.527-2.471-3.548-2.227-0.242c0.244,3.306-1.008,8.441-1.338,12.307
				c-0.33,3.867,1.753,6.176,3.997,6.259c0.371,0.01,5.349,1.039,6.484,1.163c1.223,0.133,3.443-1.009,3.732-1.732
				c0.139-0.347-0.422-1.555-0.422-1.555s1.161-0.628,1.325-1.365s-0.766-1.676-0.766-1.676s1.063-1.058,1.117-1.555
				c0.053-0.491-1.013-1.182-1.041-1.2c0.245-0.044,0.511-0.085,0.785-0.115l0.01,0.001c4.128-0.497,10.679,0.407,10.745-1.226
				C541.904,219.816,541.419,219.743,537.537,219.824z"/>
			<path style="fill:#FFC3BA;" d="M516.458,219.774c-0.333,2.259-15.739,11.083-21.279,12.472c-5.539,1.389-8.86,9.667-5.706,11.633
				c10.838,6.756,25.447-14.575,29.057-14.493C522.139,229.469,516.458,219.774,516.458,219.774z"/>
		</g>
	</g>
	<g>
		<path style="fill:#4F1812;" d="M276.957,188.987c1.341,6.069-2.491,21.045-0.825,25.223c1.666,4.179,2.898,10.547,1.116,15.446
			c-1.783,4.899-25.34,7.733-31.811-0.767c-6.471-8.5-0.529-19,0-22.5c0.529-3.5-0.408-11.634,0-16.422
			c0.408-4.788,13.655-12.31,21.442-10.272C274.666,181.733,276.957,188.987,276.957,188.987z"/>
		<g>
			<g>
				<path style="fill:#8B383E;" d="M287.434,417.189l-7.423-0.608c0,0-10.241-58.361-12.661-64.321
					c-2.08-5.14-10.97-24.8-13.92-39.9c-0.14,0.07-1.06-0.09-2.31-0.33h-0.01c-0.31-0.07-0.64-0.14-0.99-0.21
					c-0.31-0.07-0.64-0.14-0.97-0.21c-0.25,15.05-3.52,33.61-4.52,38.81c-1.21,6.31,0.506,65.786,0.506,65.786l-7.125,0.875
					c-13.11-46.47-7.041-67.121-7.041-67.121s-12.02-41.83-7.76-56.58c1.41-4.92,3.15-9.38,4.83-13.13c0.14-0.31,0.27-0.61,0.42-0.9
					c3.2-6.98,6.11-11.31,6.11-11.31l14.05,1.76l0.13-0.23l0.41,0.08v4.41l1.78-0.09l0.4-0.03h0.01l5.83-0.31l0.8-0.04l5.1-0.27
					c0,0,3.06,4.87,7.42,12.7c0.16,0.3,0.33,0.6,0.49,0.9c1.55,2.81,3.25,5.97,5.03,9.4c7.05,13.65,4.64,52.83,4.64,52.83
					S291.254,369.059,287.434,417.189z"/>
			</g>
		</g>
		<g>
			<path style="fill:#072228;" d="M236.793,415.379c0,0,0.905,5.201-0.084,8.689c-0.597,2.106-3.045,4.808-1.519,8.182h14.049
				c0,0,1.927-3.796-1.094-7.339c-1.67-1.959-1.299-11.05-1.299-11.05c-1.59,0.253-1.286,1.518-1.286,1.518s0.385-4.287-3.208-3.712
				c-4.307,0.689-3.602,4.471-3.602,4.471S238.363,414.757,236.793,415.379z"/>
			<path style="fill:#0E3944;" d="M236.154,427.02c0,0,4.23-5.038,11.746-1.012c0,0,0.054,3.543-3.559,2.868
				C240.728,428.201,238.348,430.9,236.154,427.02z"/>
		</g>
		<g>
			<path style="fill:#072228;" d="M288.774,415.379c0,0-0.905,5.201,0.084,8.689c0.597,2.106,3.045,4.808,1.519,8.182h-14.049
				c0,0-1.927-3.796,1.094-7.339c1.67-1.959,1.299-11.05,1.299-11.05c1.59,0.253,1.286,1.518,1.286,1.518s-0.385-4.287,3.208-3.712
				c4.307,0.689,3.602,4.471,3.602,4.471S287.204,414.757,288.774,415.379z"/>
			<path style="fill:#0E3944;" d="M289.413,427.02c0,0-4.23-5.038-11.746-1.012c0,0-0.054,3.543,3.559,2.868
				C284.839,428.201,287.218,430.9,289.413,427.02z"/>
		</g>
		<path style="fill:#994239;" d="M195.83,240.971c-1.048,3.001-0.889,8.893,2.162,12.366c0.944,1.074,3.936-0.235,4.442-1.304
			c0.506-1.068,2.32-5.082,2.32-5.082s1.783-2.638,1.481-4.303c-0.301-1.665-0.275-3.457-0.275-3.457s-1.33-0.037-1.685,1.063
			c-0.355,1.1-0.546,4.124-1.292,3.892c-0.746-0.232-3.444,0.242-4.187-0.698C198.055,242.508,195.83,240.971,195.83,240.971z"/>
		<path style="fill:#A1B3B7;" d="M236.911,211.67c-4.5,0.167-26.446,43.106-26.446,43.106h-11.037c0,0,2.662,13.265,15.412,14.069
			c9.019,0.569,22.5-28.289,22.5-28.289L236.911,211.67z"/>
		<path style="fill:#B0574D;" d="M263.105,273.316c0,0-14.67,5.17-28.51-5.28c0,0-2.57-52.83,2.32-56.37
			c0.93-0.68,2.27-0.82,3.81-0.61c1.99,0.27,4.33,1.13,6.62,2.19c1.89,0.88,3.75,1.89,5.35,2.84c2.86,1.67,4.92,3.11,4.92,3.11
			s3.95-0.56,8.7-0.72c2.46-0.08,5.14-0.05,7.59,0.22c2.4,0.26,4.59,0.75,6.14,1.6c1.41,0.76,2.3,1.82,2.38,3.26
			C282.875,231.366,263.105,273.316,263.105,273.316z"/>
		<path style="fill:#994239;" d="M256.429,201.723c0,0,1.168,14.105-2.757,16.122c0,0,2.9,5.346,10.674,2.092
			c0,0-1.314-7.255,3.829-15.868C271.619,198.301,256.429,201.723,256.429,201.723z"/>
		<g>
			<path style="fill:#4F1812;" d="M249.281,200.715c0,0-4.89-2.799-3.64-14.285s16.387-12.102,19.131-10.169
				c0,0,7.119-0.442,10.557,6.683s1.187,16.076-4.438,20.038C265.266,206.945,249.281,200.715,249.281,200.715z"/>
			<path style="fill:#B0574D;" d="M250.336,195.99c0,0-3.193-3.137-3.555,0.562c-0.418,4.286,3.485,5.981,4.234,4.613
				C251.765,199.797,250.336,195.99,250.336,195.99z"/>
			<path style="fill:#B0574D;" d="M272.527,196.04c0,0,3.144-3.187,3.563,0.507c0.485,4.279-3.392,6.035-4.162,4.678
				C271.157,199.869,272.527,196.04,272.527,196.04z"/>
			<path style="fill:#B0574D;" d="M261.217,211.419c-7.031,0.055-11.035-4.507-11.142-18.282
				c-0.055-7.105,3.526-11.491,11.401-11.553c7.876-0.061,11.226,4.271,11.281,11.377
				C272.873,207.762,268.481,211.363,261.217,211.419z"/>
			<path style="fill:#994239;" d="M270.467,197.892c0.129,0.706-0.482,1.409-1.365,1.57c-0.883,0.161-1.702-0.281-1.831-0.987
				c-0.129-0.706,0.482-1.408,1.365-1.569C269.519,196.745,270.339,197.186,270.467,197.892z"/>
			<path style="fill:#994239;" d="M256.009,198.389c-0.041,0.716-0.8,1.255-1.696,1.204c-0.896-0.051-1.589-0.674-1.547-1.39
				c0.041-0.716,0.8-1.255,1.696-1.204C255.357,197.051,256.05,197.673,256.009,198.389z"/>
			<g>
				<path style="fill:#4F1812;" d="M267.368,190.724c-0.136,0.078-0.313,0.058-0.427-0.061c-0.981-1.013-2.696-0.958-2.713-0.957
					c-0.194,0.007-0.358-0.144-0.365-0.337c-0.008-0.194,0.142-0.357,0.337-0.365c0.083-0.003,2.048-0.066,3.246,1.171
					c0.135,0.139,0.131,0.362-0.008,0.497C267.416,190.692,267.392,190.71,267.368,190.724z"/>
			</g>
			<g>
				<path style="fill:#4F1812;" d="M257.091,189.716c-0.054,0.031-0.116,0.048-0.182,0.046c-0.017,0-1.735-0.027-2.698,1
					c-0.133,0.143-0.355,0.149-0.497,0.015c-0.141-0.133-0.148-0.355-0.015-0.497c1.178-1.257,3.144-1.223,3.227-1.221
					c0.194,0.005,0.347,0.165,0.342,0.359C257.265,189.547,257.195,189.657,257.091,189.716z"/>
			</g>
			<g>
				<path style="fill:#4F1812;" d="M267.193,194.505c0.007,0.873-0.381,1.584-0.866,1.588c-0.485,0.004-0.884-0.701-0.891-1.574
					c-0.007-0.873,0.381-1.584,0.866-1.588C266.787,192.927,267.186,193.632,267.193,194.505z"/>
				<path style="fill:#4F1812;" d="M257.273,194.535c0.007,0.873-0.381,1.584-0.866,1.587c-0.485,0.004-0.884-0.701-0.891-1.574
					c-0.007-0.873,0.381-1.584,0.866-1.588C256.868,192.956,257.266,193.661,257.273,194.535z"/>
			</g>
			<path style="fill:#73231A;" d="M258.178,203.038c0,0,4.384,0.578,6.628-0.615c0,0-1.42,2.223-3.814,1.95
				C258.598,204.102,258.178,203.038,258.178,203.038z"/>
			<g>
				<path style="fill:#4F1812;" d="M264.772,194.09c0,0,0.624-2.156,1.47-2.008c0.846,0.148,1.501,1.985,1.501,1.985l1.243-0.671
					l-1.247,0.173c0,0-0.665-1.916-1.5-1.913C265.05,191.66,264.772,194.09,264.772,194.09z"/>
				<path style="fill:#4F1812;" d="M257.947,194.406c0,0-0.657-2.146-1.501-1.985c-0.844,0.161-1.47,2.008-1.47,2.008l-1.253-0.652
					l1.249,0.153c0,0,0.635-1.926,1.47-1.937C257.633,191.98,257.947,194.406,257.947,194.406z"/>
			</g>
			<g>
				<path style="fill:#994239;" d="M261.684,199.418c-0.148,0.085-0.313,0.153-0.495,0.204l-0.204-0.73
					c0.622-0.174,0.756-0.56,0.758-0.853c0.003-0.414-0.251-0.799-0.481-0.868c-0.134-0.039-0.273,0.052-0.413,0.273l-0.639-0.408
					c0.468-0.734,1.042-0.658,1.268-0.591c0.58,0.172,1.029,0.875,1.024,1.6C262.496,198.635,262.199,199.122,261.684,199.418z"/>
			</g>
			<path style="fill:#4F1812;" d="M276.436,194.429l-2.555-4.815c-0.381-2.977-1.507-6.449-4.465-8.416l0,0h0
				c-1.842-1.225-4.389-1.87-7.923-1.435c-0.141,0.017-0.27,0.043-0.408,0.062c-3.188-0.272-6.508-0.188-8.392,0.934
				c-2.932,1.746-3.601,6.76-3.72,9.935c-0.213,1.38-0.204,2.574-0.157,3.348c-0.327-0.026-0.665-0.138-1.039-0.376l-0.535,0.845
				c0.619,0.392,1.181,0.565,1.708,0.565c0.005,0,0.01-0.002,0.016-0.002c1.095,1.718,1.451,3.928,1.451,3.928
				c0.355-1.467,0.604-3.246,0.781-4.979c0.689-0.62,1.368-1.457,2.105-2.368c1.04-1.286,2.22-2.744,3.779-4.112
				c2.272-1.994,4.78-3.143,6.7-3.793c0.611-0.049,1.249-0.059,1.899-0.048c0.47,0.153,0.902,0.324,1.293,0.511
				c0.389,1.279,1.658,4.919,4.152,7.497c0.583,3.345,1.465,6.302,1.465,6.302c0.575-2.799,1.321-2.993,1.321-2.993
				s0.064-0.464,0.107-1.223C274.759,194.127,275.563,194.351,276.436,194.429z M256.423,186.792
				c-1.624,1.425-2.832,2.918-3.897,4.235c-0.44,0.544-0.824,1.006-1.184,1.412c0.07-0.878,0.122-1.705,0.161-2.442
				c1.7-1.878,4.287-4.068,7.834-5.311C258.366,185.264,257.379,185.954,256.423,186.792z"/>
		</g>
		<path style="fill:#0A4563;" d="M197.872,231.361l1.72,25.886c0.023,0.341,0.24,0.638,0.558,0.762l15.063,5.91
			c0.591,0.232,1.227-0.219,1.203-0.853l-1.09-29.353c-0.016-0.422-0.328-0.773-0.745-0.838l-15.693-2.442
			C198.329,230.345,197.835,230.798,197.872,231.361z"/>
		<path style="fill:#105E99;" d="M196.871,231.796l1.72,25.886c0.023,0.341,0.24,0.638,0.558,0.762l15.063,5.91
			c0.591,0.232,1.226-0.219,1.203-0.853l-1.09-29.353c-0.016-0.422-0.328-0.773-0.745-0.838l-15.693-2.442
			C197.329,230.78,196.834,231.233,196.871,231.796z"/>
		<path style="fill:#994239;" d="M280.045,220.296c-6.76,4.8-23.29,4.88-23.29,4.88l-2.37,2.54v-3.85
			c-6.56-3.39-11.46-9.62-13.66-12.81c1.99,0.27,4.33,1.13,6.62,2.19c1.89,0.88,3.75,1.89,5.35,2.84c2.86,1.67,4.92,3.11,4.92,3.11
			s3.95-0.56,8.7-0.72c2.46-0.08,5.14-0.05,7.59,0.22C276.305,218.956,278.495,219.446,280.045,220.296z"/>
		<path style="fill:#B0574D;" d="M198.628,244.363c-0.301,0.191-1.08,1.258-1.08,1.258s2.142-0.468,2.497-0.466
			c1.18,0.007,1.752,0.2,1.699,0.931c-0.033,0.442-0.302,0.892-1.343,1.048c-0.917,0.138-2.289,0.751-2.289,0.751
			s1.238,0.046,1.693,0.093c0.55,0.058,0.982,0.253,1.135,0.635c0.099,0.245,0.088,0.975-0.645,1.11
			c-0.351,0.064-1.296-0.017-1.46,0.068c-0.309,0.151-1.425,0.675-1.756,0.133c-0.341-0.531,0.197-1.349,0.197-1.349
			s-0.71,0.412-1.045-0.375c-0.339-0.799,0.277-1.847,0.277-1.847s-0.976,0.07-0.94-0.914c0.04-0.971,0.781-1.832,0.781-1.832
			s-0.625,0.125-0.877-0.763c-0.151-0.558-0.087-1.419,0.359-1.875c0.857-0.875,1.79-1.308,2.7-1.457
			c0.86-0.141,1.648,0.11,2.438,0.303c0.406,0.099,0.087,1.543-1.591,1.783c-0.892,0.127-1.531,0.173-2.417,1.414l1.916-0.95
			c0,0,2.036-0.273,2.549,0.148c0.232,0.19,0.487,1.157-0.733,1.696C200.139,244.153,199.067,244.085,198.628,244.363z"/>
		<path style="fill:#B5C4C9;" d="M240.725,211.057c0,0,1.007,15.7,13.29,18.599c12.283,2.899,24.443-10.167,26.03-10.3
			c1.587-0.134,5.027,4.788,5.795,7.866c0.767,3.078-16.398,40.412-20.137,44.789c0,0,2.651,8.211,7.54,10.544
			c4.888,2.333,0.722,7,0.722,7s2.667,1.381,0,2.857c-2.667,1.476-11.391,6.143-28.529,2.643s-19.657-8.167-20.314-9
			c-0.657-0.833,1.01-3.833,1.01-3.833s-1-2.667-0.333-5.5c0.667-2.833,6.833-11.044,6.833-11.044s0.833-12.174-0.667-20.148
			c-1.5-7.974,1.955-18.852,1.955-18.852l-1.543-10.519c0,0,1.751-4.364,5.088-5.308
			C237.465,210.851,240.725,208.889,240.725,211.057z"/>
		<path style="fill:#7F9093;" d="M260.34,251.056c-1.339-0.344-5.479,5.483-2.58,8.375c2.898,2.892,9.08,1.75,9.08,1.75
			L260.34,251.056z"/>
		<g>
			<path style="fill:#994239;" d="M252.215,243.181c0,0-6.292,0.5-6.958,0.25c-0.667-0.25-2.662-0.15-2.438,0.542
				c0.224,0.692,2.48,1.654,3.98,1.994c1.5,0.339,4.958,0,4.958,0L252.215,243.181z"/>
			<path style="fill:#0A4563;" d="M233.891,249.556l18.804-10.05c0,0,0.98-0.075,0.977,1.05l-18.832,10.485l-2.875,0.515
				L233.891,249.556z"/>
			<path style="fill:#B0574D;" d="M261.355,252.056l-1.15,7.38l-5.82-4.63c-0.12-0.01-0.25-0.02-0.37-0.03
				c-3.6-0.31-5.72-1.62-7.27-2.22c-0.36-0.14-0.62-0.34-0.81-0.56c-0.67-0.77-0.5-1.83-0.5-1.83s0.28-1.86,0-2.53
				s2.78-3.58,2.78-3.58l-2.25,0.76c-0.25,1.14-1.49,0.86-1.49,0.86s-0.51-2.74,0-2.89c0.51-0.15,6.37-2.48,7.61-0.9
				c1.26,1.59,4.24,7.29,4.24,7.29L261.355,252.056z"/>
			<path style="fill:#994239;" d="M245.529,248.044c0,0,2.978-2.446,3.228-2.03c0.25,0.417-3.202,2.333-3.202,2.333L245.529,248.044
				z"/>
			<path style="fill:#994239;" d="M245.437,250.165c0,0,3.013-1.526,3.333-1.234c0.32,0.292-3.333,1.455-3.333,1.455V250.165z"/>
			<path style="fill:#994239;" d="M254.015,254.776c-3.6-0.31-5.72-1.62-7.27-2.22c-0.36-0.14-0.62-0.34-0.81-0.56
				c-0.01-0.01-0.01-0.02-0.01-0.02c0.54,0.25,3.21-0.42,3.21-0.42s0.37,1,0.75,1.33
				C250.235,253.206,252.195,254.536,254.015,254.776z"/>
		</g>
		<path style="fill:#A1B3B7;" d="M285.84,227.222c2.125,2.773,4.042,34.467,3,43.333c-0.773,6.58-8.699,10.043-13.625,7.875
			c-6.532-2.875-17.197-17.5-17.455-19c0,0,4.675-2.25,2.58-8.375l15.125,6.167c0,0-2.406-7.361-2.705-9.587
			C271.5,238.269,285.84,227.222,285.84,227.222z"/>
		<path style="fill:#B0574D;" d="M262.435,322.056c0,0,4.987,1.059,11.53-1.5C273.965,320.556,272.405,325.306,262.435,322.056z"/>
		<path style="fill:#B0574D;" d="M262.435,327.556c0,0,8.155,1.625,14.03-1C276.465,326.556,270.78,330.681,262.435,327.556z"/>
		<path style="fill:#B0574D;" d="M276.465,334.681c0,0-3.125,3.125-8.875,3C267.59,337.681,273.215,339.431,276.465,334.681z"/>
		<path style="fill:#B0574D;" d="M228.59,319.931c0,0,1.587,4.666,10.75,3.875C239.34,323.806,233.639,323.762,228.59,319.931z"/>
		<path style="fill:#B0574D;" d="M230.715,326.556c0,0,5.625,3.295,10.5,1.085C241.215,327.641,235.34,331.306,230.715,326.556z"/>
		<path style="fill:#B0574D;" d="M233.965,334.056c0,0,1.875,0.625,4.625,0C238.59,334.056,237.965,336.806,233.965,334.056z"/>
		<path style="fill:#B0574D;" d="M233.965,351.181c0,0,3.125,3.375,8.125,1.25C242.09,352.431,238.1,356.579,233.965,351.181z"/>
		<path style="fill:#B0574D;" d="M235.757,351.639c0,0,2.667,1.5,6,0.458C241.757,352.097,237.757,351.472,235.757,351.639z"/>
		<path style="fill:#B0574D;" d="M234.84,350.514c0,0,3.208-0.125,4.583,0.333C239.423,350.847,236.298,349.722,234.84,350.514z"/>
		<path style="fill:#B0574D;" d="M234.59,354.222c0,0,3.125,1.625,5.583,0.5C240.173,354.722,237.215,356.722,234.59,354.222z"/>
		<path style="fill:#B0574D;" d="M239.423,357.139c0,0-1.833,1.167-3.875,0.375C235.548,357.514,238.007,359.139,239.423,357.139z"
			/>
		<path style="fill:#B0574D;" d="M278.037,348.62c0,0-3.136,3.365-8.129,1.224C269.908,349.844,273.885,354.005,278.037,348.62z"/>
		<path style="fill:#B0574D;" d="M276.244,349.073c0,0-2.671,1.492-6.001,0.439C270.243,349.512,274.245,348.9,276.244,349.073z"/>
		<path style="fill:#B0574D;" d="M277.164,347.951c0,0-3.208-0.135-4.584,0.319C272.58,348.27,275.708,347.154,277.164,347.951z"/>
		<path style="fill:#B0574D;" d="M277.403,351.66c0,0-3.13,1.615-5.585,0.482C271.818,352.142,274.77,354.151,277.403,351.66z"/>
		<path style="fill:#B0574D;" d="M272.56,354.561c0,0,1.83,1.173,3.874,0.387C276.434,354.948,273.97,356.566,272.56,354.561z"/>
		<path style="fill:#4F1812;" d="M272.76,202.424c0,0,1.827,7.798-1.067,13.298c-2.894,5.5-6.402,9.32-4.148,15.827
			c2.254,6.507,0.587,8.712,0.587,8.712s3.955,0.024,3.561-6.841c-0.394-6.865,3.772-12.531,3.272-17.031
			S276.222,203.292,272.76,202.424z"/>
	</g>
</g>
</svg>
