<?xml version="1.0" encoding="UTF-8"?>
<svg id="Capa_2" data-name="Capa 2" xmlns="http://www.w3.org/2000/svg" xmlns:xlink="http://www.w3.org/1999/xlink" viewBox="0 0 201 201">
  <defs>
    <style>
      .cls-1 {
        stroke: #00ace2;
        stroke-miterlimit: 10;
      }

      .cls-1, .cls-2 {
        fill: none;
      }

      .cls-3 {
        fill: #fff;
      }

      .cls-4 {
        opacity: .15;
      }

      .cls-5 {
        fill: #00ace2;
      }

      .cls-6 {
        clip-path: url(#clippath);
      }
    </style>
    <clipPath id="clippath">
      <circle class="cls-2" cx="100.5" cy="100.5" r="100"/>
    </clipPath>
  </defs>
  <g id="Capa_3" data-name="Capa 3">
    <g class="cls-6">
      <rect class="cls-3" x=".5" y=".5" width="200" height="200"/>
      <g class="cls-4">
        <path class="cls-1" d="M164.36,1.02S121.83,103.56.66,73.43"/>
        <path class="cls-1" d="M153.4,1.02S109.7,90.65.66,63.46"/>
        <path class="cls-1" d="M129.93,1.02S91.77,66.39,4.51,42.52"/>
        <path class="cls-1" d="M115.45,1.02S82.19,52.5,8.04,32.74"/>
        <path class="cls-1" d="M11.12,22.87S63.4,41.5,101.36,1.02"/>
        <path class="cls-1" d="M86.49,1.02S60.73,24.98,14.62,13.01"/>
        <path class="cls-1" d="M65.56,1.02s-18.99,10.44-47.35,1.91"/>
        <path class="cls-1" d="M141.08,1.02S101.29,78.52.66,52.89"/>
        <path class="cls-1" d="M200.66,187.5s-18.3,2-33.17,13.52"/>
        <path class="cls-1" d="M200.66,194.26s-11.26,2.67-18.5,6.76"/>
        <line class="cls-1" x1="200.66" y1="115.89" x2="120.92" y2="192.79"/>
        <line class="cls-1" x1="200.66" y1="103.76" x2="114.56" y2="186.81"/>
        <line class="cls-1" x1="200.66" y1="90.26" x2="107.9" y2="180.54"/>
        <line class="cls-1" x1="200.66" y1="78.98" x2="101.36" y2="174.38"/>
        <line class="cls-1" x1="200.66" y1="65.41" x2="94.51" y2="167.93"/>
        <line class="cls-1" x1="200.66" y1="53.48" x2="87.77" y2="161.58"/>
        <line class="cls-1" x1="127.97" y1="199.43" x2="203.69" y2="125.87"/>
        <line class="cls-1" x1="200.66" y1="28.83" x2="73.38" y2="146.61"/>
        <line class="cls-1" x1="200.66" y1="15.52" x2="67.22" y2="139.76"/>
        <line class="cls-1" x1="200.66" y1="40" x2="81.4" y2="154.34"/>
        <path class="cls-1" d="M.66,157.96c4.95-3.16,14.19-10.09,20.09-22.3,1.71-3.55,5.03-10.61,5.09-20.35.04-7.44-1.84-13.39-3.33-17.02-.61-1.49-2.81-6.63-7.43-12.13-7.48-8.9-16.56-13.12-21.91-15.07"/>
        <path class="cls-1" d="M.66,169.7c4.65-2.24,22.61-11.57,31.05-32.87,2.02-5.11,7.91-20.67,1.76-38.93-4.98-14.79-15.08-22.99-19.17-26.22-5.57-4.39-13.58-10.7-25.43-11.15"/>
        <path class="cls-1" d="M.66,180.85c6.04-2.57,14.99-7.21,23.81-15.46,2.86-2.67,9.15-8.63,14.09-17.41,7.76-13.79,12-34.2,4.7-54.59-7.43-20.74-23.13-31.18-28.57-34.43-17.08-10.22-33.68-9.83-39.72-9.39"/>
        <path class="cls-1" d="M.66,192c6.17-2.36,14.72-6.34,23.61-13.11,5.96-4.54,18.5-14.31,26.22-30.91,15.2-32.72-.84-65.13-1.96-67.3-10.35-20.1-26.61-29.62-31.5-32.28-20.51-11.14-39.93-9.48-46.57-8.61"/>
        <path class="cls-1" d="M6.08,201.02c6.19-2.29,14.99-6.26,24.26-13.13,5.76-4.27,19.68-14.85,28.96-34.43,4.02-8.49,10.04-24.71,8.22-45-2.44-27.25-17.5-47.78-30.33-58.5-8.1-6.77-18.08-11.96-19.17-12.52-8.03-4.13-15.32-6.65-20.93-8.22"/>
        <path class="cls-1" d="M29.36,201.02c6.01-3.64,14.11-9.39,22.11-18.02,13.08-14.12,18.77-28.3,20.54-33.07,10.43-28.13,4.47-53.03,2.54-60.07-2.34-8.57-9.86-31.53-32.09-49.89C13.5,16.04-19.55,17.19-27.38,17.67"/>
        <path class="cls-1" d="M46.71,201.02c7.83-6.12,19.78-17.11,28.96-34.2,15.35-28.57,14.59-58.62,9.91-77.74C74.6,44.19,29.61,8.69-26.86,2.22"/>
        <path class="cls-1" d="M63.4,201.02c5.19-5.56,11.63-13.35,17.74-23.5,3.02-5.01,9.15-15.34,13.3-29.22,9.47-31.61,2-59.2-.78-68.09-2.91-9.29-7.76-20.72-15.91-32.35-2.9-4.13-17.04-23.72-43.83-37.83C6.99-4.14-18.31-5.2-31.03-4.83"/>
        <path class="cls-1" d="M77.93,201.02c5.38-6.29,12.08-15.32,18-27.15,8.53-17.07,11.32-31.77,12.26-37.57,3.32-20.54.91-37.58-1.3-47.74-1.1-5.04-5.9-25.63-20.35-46.43C59.74,3.54,18.53-8.77,5.4-12.13"/>
        <path class="cls-1" d="M91.58,201.02c4.34-6.4,9.79-15.35,14.87-26.63,1.88-4.17,9.2-20.86,12.26-38.35,7.05-40.27-10.03-75.86-13.3-82.43C84.96,12.57,50.48-5.68,39.14-11.09"/>
      </g>
      <path class="cls-5" d="M55.32,143.14h3.25v3.27h-3.25v-3.27ZM50.69,143.14h3.27v3.27h-3.27v-3.27ZM46.08,143.14h3.25v3.27h-3.25v-3.27ZM41.32,143.14h3.4v3.27h-3.4v-3.27ZM55.32,138.38h3.25v3.4h-3.25v-3.4ZM50.69,138.38h3.27v3.4h-3.27v-3.4ZM46.08,138.38h3.25v3.4h-3.25v-3.4ZM41.32,138.38h3.4v3.4h-3.4v-3.4ZM55.32,133.76h3.25v3.25h-3.25v-3.25ZM50.69,133.76h3.27v3.25h-3.27v-3.25ZM46.08,133.76h3.25v3.25h-3.25v-3.25ZM41.32,133.76h3.4v3.25h-3.4v-3.25ZM55.32,129.14h3.25v3.27h-3.25v-3.27ZM50.69,129.14h3.27v3.27h-3.27v-3.27ZM46.08,129.14h3.25v3.27h-3.25v-3.27ZM41.32,129.14h3.4v3.27h-3.4v-3.27ZM140.42,124.86h3.05l1.08,3.18h-3.2l-.93-3.18ZM135.75,124.86h3.19l.94,3.18h-3.07l-1.06-3.18ZM131.23,124.86h3.19l.93,3.18h-3.18l-.93-3.18ZM126.68,124.86h3.2l.93,3.18h-3.18l-.94-3.18ZM103.25,124.86h21.98l1.06,3.18h-23.97l.93-3.18ZM98.72,124.86h3.2l-.93,3.18h-3.2l.93-3.18ZM96.6,124.86h.8l-1.06,3.18h-.74c.36-1.05.77-2.09.99-3.18ZM138.94,120.31h3.2l.93,3.2h-3.18l-.95-3.2ZM134.41,120.31h3.2l.93,3.2h-3.2l-.93-3.2ZM129.88,120.31h3.2l.93,3.2h-3.2l-.93-3.2ZM125.35,120.31h3.07l1.06,3.2h-3.2l-.93-3.2ZM104.71,120.31h19.19l.93,3.2h-21.18l1.06-3.2ZM100.18,120.31h3.07l-.93,3.2h-3.2l1.06-3.2ZM97.04,120.31h1.67l-.93,3.2h-1.06c.15-1.05.27-2.11.31-3.2h0ZM137.61,115.65h3.2l.93,3.33h-3.2l-.93-3.33ZM133.08,115.65h3.2l.93,3.33h-3.2l-.93-3.33ZM128.56,115.65h3.07l1.06,3.33h-3.2l-.93-3.33ZM123.9,115.65h3.2l.93,3.33h-3.07l-1.06-3.33ZM106.05,115.65h16.52l.93,3.33h-18.38l.93-3.33ZM101.52,115.65h3.19l-1.06,3.33h-3.07l.94-3.33ZM97.16,115.65h3.02l-1.06,3.33h-1.96v-3.33ZM136.29,111.13h3.18l.94,3.2h-3.2l-.92-3.2ZM131.76,111.13h3.05l.94,3.2h-3.07l-.92-3.2ZM127.1,111.13h3.19l.94,3.2h-3.2l-.93-3.2ZM122.57,111.13h3.19l.93,3.2h-3.19l-.93-3.2ZM107.38,111.13h13.85l.93,3.2h-15.71l.93-3.2ZM102.85,111.13h3.2l-.93,3.2h-3.2l.93-3.2ZM98.32,111.13h3.2l-1.08,3.2h-3.05l.93-3.2ZM114.31,88.36l6.52,21.44h-12.92l6.4-21.44ZM116.56,80.76l8.79,29.04h-3.2l-7.18-23.7,1.59-5.34ZM112.04,80.76l1.59,5.34-7.18,23.7h-3.2l8.79-29.04ZM59.93,73.43h8.56c2.45,0,4.49.87,6.12,2.59,1.72,1.63,2.59,3.63,2.59,5.99v37.22c0,2.36-.87,4.4-2.59,6.12-1.63,1.63-3.67,2.44-6.12,2.44h-8.56v-54.35ZM55.32,73.43h3.25v54.35h-3.25v-54.35ZM50.69,73.43h3.27v54.35h-3.27v-54.35ZM46.08,73.43h3.25v54.35h-3.25v-54.35ZM41.32,73.43h3.4v54.35h-3.4v-54.35ZM118.97,73.17l10.91,36.62h-3.2l-9.32-31.3,1.61-5.32ZM114.31,73.17l1.59,5.32-1.59,5.19-1.61-5.19,1.61-5.32ZM109.78,73.17l1.59,5.32-9.45,31.3h-3.2l11.06-36.62ZM59.93,68.68h8.56c3.71,0,6.85,1.3,9.39,3.93,2.63,2.54,3.93,5.67,3.93,9.39v37.22c0,1.81-.35,3.53-1.08,5.16-.63,1.54-1.59,2.95-2.85,4.21-1.17,1.18-2.58,2.13-4.21,2.85-1.63.64-3.36.96-5.17.96h-8.56v-3.27h8.56c2.81,0,5.16-.95,7.06-2.85,1.99-1.99,3-4.35,3-7.07v-37.22c0-2.81-1.01-5.16-3-7.06-1.9-1.99-4.26-3-7.06-3h-8.56v-3.25ZM55.32,68.68h3.25v3.25h-3.25v-3.25ZM50.69,68.68h3.27v3.25h-3.27v-3.25ZM46.08,68.68h3.25v3.25h-3.25v-3.25ZM41.32,68.68h3.4v3.25h-3.4v-3.25ZM121.23,65.71l13.19,44.08h-3.19l-11.59-38.89,1.59-5.19ZM116.56,65.71l1.61,5.19-1.61,5.32-1.59-5.32,1.59-5.19ZM112.04,65.71l1.59,5.19-1.59,5.32-1.59-5.32,1.59-5.19ZM107.51,65.71l1.59,5.19-11.71,38.89h-.23v-9.83l10.35-34.25ZM59.93,64.05h8.56c2.45,0,4.76.5,6.93,1.49,2.17.9,4.08,2.19,5.71,3.81,1.63,1.63,2.91,3.53,3.81,5.71.99,2.17,1.49,4.49,1.49,6.93v37.22c0,2.44-.5,4.76-1.49,6.93-.9,2.17-2.18,4.07-3.81,5.71-1.63,1.54-3.53,2.8-5.71,3.8-2.17.9-4.49,1.36-6.93,1.36h-8.56v-3.25h8.56c1.99,0,3.91-.37,5.72-1.09,1.81-.82,3.34-1.85,4.61-3.12,1.36-1.36,2.39-2.91,3.12-4.63.81-1.81,1.23-3.71,1.23-5.71v-37.22c0-1.99-.41-3.85-1.23-5.57-.72-1.81-1.76-3.4-3.12-4.76-1.26-1.36-2.8-2.4-4.61-3.12-1.81-.82-3.73-1.23-5.72-1.23h-8.56v-3.27ZM55.32,64.05h3.25v3.27h-3.25v-3.27ZM50.69,64.05h3.27v3.27h-3.27v-3.27ZM46.08,64.05h3.25v3.27h-3.25v-3.27ZM41.32,64.05h3.4v3.27h-3.4v-3.27ZM59.93,59.44h8.56c3.08,0,5.99.58,8.71,1.76,2.81,1.18,5.25,2.81,7.33,4.89,2.08,1.99,3.72,4.39,4.89,7.2,1.17,2.72,1.77,5.63,1.77,8.71v37.22c0,3.08-.59,6.03-1.77,8.84-1.17,2.72-2.81,5.11-4.89,7.2-2.08,1.99-4.52,3.58-7.33,4.76-2.72,1.18-5.63,1.76-8.71,1.76h-8.56v-3.4h8.56c2.72,0,5.22-.5,7.48-1.49,2.35-1,4.4-2.36,6.12-4.08,1.81-1.72,3.22-3.75,4.21-6.1.99-2.36,1.49-4.85,1.49-7.48v-37.22c0-2.63-.49-5.13-1.49-7.48-.99-2.36-2.4-4.4-4.21-6.12-1.72-1.81-3.77-3.22-6.12-4.21-2.26-1-4.76-1.49-7.48-1.49h-8.56v-3.25ZM55.32,59.44h3.25v3.25h-3.25v-3.25ZM50.69,59.44h3.27v3.25h-3.27v-3.25ZM46.08,59.44h3.25v3.25h-3.25v-3.25ZM41.32,59.44h3.4v3.25h-3.4v-3.25ZM123.5,58.11l15.44,51.68h-3.05l-14-46.49,1.61-5.19ZM118.97,58.11l1.46,5.19-1.46,5.34-1.61-5.34,1.61-5.19ZM114.31,58.11l1.59,5.19-1.59,5.34-1.48-5.34,1.48-5.19ZM109.78,58.11l1.59,5.19-1.59,5.34-1.61-5.34,1.61-5.19ZM105.25,58.11l1.59,5.19-9.69,31.91v-10.27l8.09-26.84ZM59.93,54.81h8.56c3.81,0,7.34.72,10.6,2.17,3.35,1.36,6.26,3.26,8.71,5.71,2.45,2.45,4.39,5.36,5.84,8.71,1.45,3.26,2.17,6.79,2.17,10.6v37.22c0,3.71-.72,7.25-2.17,10.6-1.45,3.26-3.39,6.11-5.84,8.56-2.45,2.44-5.36,4.39-8.71,5.84-3.26,1.45-6.79,2.19-10.6,2.19h-8.56v-3.27h8.56c3.35,0,6.49-.64,9.39-1.91,2.9-1.27,5.42-2.99,7.6-5.16,2.17-2.17,3.91-4.71,5.17-7.61,1.26-2.9,1.89-5.98,1.89-9.24v-37.22c0-3.26-.62-6.35-1.89-9.25-1.26-2.9-3-5.42-5.17-7.6-2.17-2.17-4.7-3.91-7.6-5.17-2.9-1.27-6.03-1.89-9.39-1.89h-8.56v-3.27ZM55.32,54.81h3.25v3.27h-3.25v-3.27ZM50.69,54.81h3.27v3.27h-3.27v-3.27ZM46.08,54.81h3.25v3.27h-3.25v-3.27ZM41.32,54.81h3.4v3.27h-3.4v-3.27ZM159.65,53.51v94.32h1.36V53.51h-1.36ZM155.03,53.51v94.32h1.36V53.51h-1.36ZM150.42,142.98l1.36,4.49V53.51h-1.36v89.48ZM39.96,53.46v94.29h28.53c3.08,0,5.95-.56,8.71-1.42l-.31,1.05,1.33.4.58-1.92c.27-.1.57-.16.84-.26.99-.43,1.86-.98,2.77-1.49l-.99,3.28,1.33.4,1.38-4.61c1.48-.95,2.83-2.05,4.08-3.23l-2.26,7.45,1.33.4,3.15-10.32c1.79-2.15,3.34-4.46,4.44-7.08.14-.32.18-.66.31-.98h.88l-5.59,17.98,1.33.4,5.6-18.38h3.19l-5.46,17.98,1.21.4,5.59-18.38h24.76l5.47,18.38,1.33-.4-5.45-17.98h3.2l5.59,18.38,1.2-.4-5.46-17.98h3.2l5.59,18.38,1.19-.4-5.33-17.98h3.07l5.59,18.38,1.2-.4-5.32-17.98h3.2l5.45,18.38,1.33-.4-1.31-4.38-3.4-11.29V53.52h-1.23v74.1l-3.38-11.26v-62.84h-1.36v58.33l-17.55-58.38-2.27,7.6-2.26-7.6-2.27,7.6-2.39-7.6-2.27,7.6-2.26-7.6-2.27,7.6-2.26-7.6-8.23,27.23c-.15-3.4-.81-6.66-2.17-9.7-1.45-3.53-3.49-6.57-6.12-9.1-2.54-2.63-5.57-4.67-9.1-6.12-3.44-1.54-7.16-2.3-11.15-2.3h-28.53Z"/>
    </g>
    <circle class="cls-1" cx="100.5" cy="100.5" r="100"/>
  </g>
</svg>