<?xml version="1.0" encoding="UTF-8"?>
<svg id="uuid-4eed88d3-7890-422b-b56d-48485ddf16d4" data-name="Capa 2" xmlns="http://www.w3.org/2000/svg" viewBox="0 0 121.05 94.37">
  <g id="uuid-8ca10775-380f-40f5-9c39-5c97ff671ef0" data-name="Capa 1">
    <path d="M15.36,89.68h3.25v3.27h-3.25v-3.27ZM10.73,89.68h3.27v3.27h-3.27v-3.27ZM6.12,89.68h3.25v3.27h-3.25v-3.27ZM1.36,89.68h3.4v3.27H1.36v-3.27ZM15.36,84.92h3.25v3.4h-3.25v-3.4ZM10.73,84.92h3.27v3.4h-3.27v-3.4ZM6.12,84.92h3.25v3.4h-3.25v-3.4ZM1.36,84.92h3.4v3.4H1.36v-3.4ZM15.36,80.31h3.25v3.25h-3.25v-3.25ZM10.73,80.31h3.27v3.25h-3.27v-3.25ZM6.12,80.31h3.25v3.25h-3.25v-3.25ZM1.36,80.31h3.4v3.25H1.36v-3.25ZM15.36,75.68h3.25v3.27h-3.25v-3.27ZM10.73,75.68h3.27v3.27h-3.27v-3.27ZM6.12,75.68h3.25v3.27h-3.25v-3.27ZM1.36,75.68h3.4v3.27H1.36v-3.27ZM100.46,71.4h3.05l1.08,3.18h-3.2l-.93-3.18ZM95.79,71.4h3.19l.94,3.18h-3.07l-1.06-3.18ZM91.27,71.4h3.19l.93,3.18h-3.18l-.93-3.18ZM86.72,71.4h3.2l.93,3.18h-3.18l-.94-3.18ZM63.29,71.4h21.98l1.06,3.18h-23.97l.93-3.18ZM58.76,71.4h3.2l-.93,3.18h-3.2l.93-3.18ZM56.64,71.4h.8l-1.06,3.18h-.74c.36-1.05.77-2.09.99-3.18ZM98.98,66.86h3.2l.93,3.2h-3.18l-.95-3.2ZM94.45,66.86h3.2l.93,3.2h-3.2l-.93-3.2ZM89.92,66.86h3.2l.93,3.2h-3.2l-.93-3.2ZM85.4,66.86h3.07l1.06,3.2h-3.2l-.93-3.2ZM64.75,66.86h19.19l.93,3.2h-21.18l1.06-3.2ZM60.22,66.86h3.07l-.93,3.2h-3.2l1.06-3.2ZM57.09,66.86h1.67l-.93,3.2h-1.06c.15-1.05.27-2.11.31-3.2h0ZM97.65,62.2h3.2l.93,3.33h-3.2l-.93-3.33ZM93.12,62.2h3.2l.93,3.33h-3.2l-.93-3.33ZM88.6,62.2h3.07l1.06,3.33h-3.2l-.93-3.33ZM83.94,62.2h3.2l.93,3.33h-3.07l-1.06-3.33ZM66.09,62.2h16.52l.93,3.33h-18.38l.93-3.33ZM61.56,62.2h3.19l-1.06,3.33h-3.07l.94-3.33ZM57.2,62.2h3.02l-1.06,3.33h-1.96v-3.33ZM96.33,57.67h3.18l.94,3.2h-3.2l-.92-3.2ZM91.8,57.67h3.05l.94,3.2h-3.07l-.92-3.2ZM87.14,57.67h3.19l.94,3.2h-3.2l-.93-3.2ZM82.61,57.67h3.19l.93,3.2h-3.19l-.93-3.2ZM67.42,57.67h13.85l.93,3.2h-15.71l.93-3.2ZM62.89,57.67h3.2l-.93,3.2h-3.2l.93-3.2ZM58.36,57.67h3.2l-1.08,3.2h-3.05l.93-3.2ZM74.35,34.9l6.52,21.44h-12.92l6.4-21.44ZM76.61,27.3l8.79,29.04h-3.2l-7.18-23.7,1.59-5.34ZM72.08,27.3l1.59,5.34-7.18,23.7h-3.2l8.79-29.04ZM19.97,19.97h8.56c2.45,0,4.49.87,6.12,2.59,1.72,1.63,2.59,3.63,2.59,5.99v37.22c0,2.36-.87,4.4-2.59,6.12-1.63,1.63-3.67,2.44-6.12,2.44h-8.56V19.97ZM15.36,19.97h3.25v54.35h-3.25V19.97ZM10.73,19.97h3.27v54.35h-3.27V19.97ZM6.12,19.97h3.25v54.35h-3.25V19.97ZM1.36,19.97h3.4v54.35H1.36V19.97ZM79.01,19.72l10.91,36.62h-3.2l-9.32-31.3,1.61-5.32ZM74.35,19.72l1.59,5.32-1.59,5.19-1.61-5.19,1.61-5.32ZM69.82,19.72l1.59,5.32-9.45,31.3h-3.2l11.06-36.62ZM19.97,15.22h8.56c3.71,0,6.85,1.3,9.39,3.93,2.63,2.54,3.93,5.67,3.93,9.39v37.22c0,1.81-.35,3.53-1.08,5.16-.63,1.54-1.59,2.95-2.85,4.21-1.17,1.18-2.58,2.13-4.21,2.85-1.63.64-3.36.96-5.17.96h-8.56v-3.27h8.56c2.81,0,5.16-.95,7.06-2.85,1.99-1.99,3-4.35,3-7.07V28.54c0-2.81-1.01-5.16-3-7.06-1.9-1.99-4.26-3-7.06-3h-8.56v-3.25ZM15.36,15.22h3.25v3.25h-3.25v-3.25ZM10.73,15.22h3.27v3.25h-3.27v-3.25ZM6.12,15.22h3.25v3.25h-3.25v-3.25ZM1.36,15.22h3.4v3.25H1.36v-3.25ZM81.27,12.25l13.19,44.08h-3.19l-11.59-38.89,1.59-5.19ZM76.61,12.25l1.61,5.19-1.61,5.32-1.59-5.32,1.59-5.19ZM72.08,12.25l1.59,5.19-1.59,5.32-1.59-5.32,1.59-5.19ZM67.55,12.25l1.59,5.19-11.71,38.89h-.23v-9.83l10.35-34.25ZM19.97,10.59h8.56c2.45,0,4.76.5,6.93,1.49,2.17.9,4.08,2.19,5.71,3.81,1.63,1.63,2.91,3.53,3.81,5.71.99,2.17,1.49,4.49,1.49,6.93v37.22c0,2.44-.5,4.76-1.49,6.93-.9,2.17-2.18,4.07-3.81,5.71-1.63,1.54-3.53,2.8-5.71,3.8-2.17.9-4.49,1.36-6.93,1.36h-8.56v-3.25h8.56c1.99,0,3.91-.37,5.72-1.09,1.81-.82,3.34-1.85,4.61-3.12,1.36-1.36,2.39-2.91,3.12-4.63.81-1.81,1.23-3.71,1.23-5.71V28.54c0-1.99-.41-3.85-1.23-5.57-.72-1.81-1.76-3.4-3.12-4.76-1.26-1.36-2.8-2.4-4.61-3.12-1.81-.82-3.73-1.23-5.72-1.23h-8.56v-3.27ZM15.36,10.59h3.25v3.27h-3.25v-3.27ZM10.73,10.59h3.27v3.27h-3.27v-3.27ZM6.12,10.59h3.25v3.27h-3.25v-3.27ZM1.36,10.59h3.4v3.27H1.36v-3.27ZM19.97,5.98h8.56c3.08,0,5.99.58,8.71,1.76,2.81,1.18,5.25,2.81,7.33,4.89,2.08,1.99,3.72,4.39,4.89,7.2,1.17,2.72,1.77,5.63,1.77,8.71v37.22c0,3.08-.59,6.03-1.77,8.84-1.17,2.72-2.81,5.11-4.89,7.2-2.08,1.99-4.52,3.58-7.33,4.76-2.72,1.18-5.63,1.76-8.71,1.76h-8.56v-3.4h8.56c2.72,0,5.22-.5,7.48-1.49,2.35-1,4.4-2.36,6.12-4.08,1.81-1.72,3.22-3.75,4.21-6.1.99-2.36,1.49-4.85,1.49-7.48V28.54c0-2.63-.49-5.13-1.49-7.48-.99-2.36-2.4-4.4-4.21-6.12-1.72-1.81-3.77-3.22-6.12-4.21-2.26-1-4.76-1.49-7.48-1.49h-8.56v-3.25ZM15.36,5.98h3.25v3.25h-3.25v-3.25ZM10.73,5.98h3.27v3.25h-3.27v-3.25ZM6.12,5.98h3.25v3.25h-3.25v-3.25ZM1.36,5.98h3.4v3.25H1.36v-3.25ZM83.54,4.66l15.44,51.68h-3.05l-14-46.49,1.61-5.19ZM79.01,4.66l1.46,5.19-1.46,5.34-1.61-5.34,1.61-5.19ZM74.35,4.66l1.59,5.19-1.59,5.34-1.48-5.34,1.48-5.19ZM69.82,4.66l1.59,5.19-1.59,5.34-1.61-5.34,1.61-5.19ZM65.3,4.66l1.59,5.19-9.69,31.91v-10.27l8.09-26.84ZM19.97,1.36h8.56c3.81,0,7.34.72,10.6,2.17,3.35,1.36,6.26,3.26,8.71,5.71,2.45,2.45,4.39,5.36,5.84,8.71,1.45,3.26,2.17,6.79,2.17,10.6v37.22c0,3.71-.72,7.25-2.17,10.6-1.45,3.26-3.39,6.11-5.84,8.56-2.45,2.44-5.36,4.39-8.71,5.84-3.26,1.45-6.79,2.19-10.6,2.19h-8.56v-3.27h8.56c3.35,0,6.49-.64,9.39-1.91,2.9-1.27,5.42-2.99,7.6-5.16,2.17-2.17,3.91-4.71,5.17-7.61,1.26-2.9,1.89-5.98,1.89-9.24V28.54c0-3.26-.62-6.35-1.89-9.25-1.26-2.9-3-5.42-5.17-7.6-2.17-2.17-4.7-3.91-7.6-5.17-2.9-1.27-6.03-1.89-9.39-1.89h-8.56V1.36ZM15.36,1.36h3.25v3.27h-3.25V1.36ZM10.73,1.36h3.27v3.27h-3.27V1.36ZM6.12,1.36h3.25v3.27h-3.25V1.36ZM1.36,1.36h3.4v3.27H1.36V1.36ZM119.69.05v94.32h1.36V.05h-1.36ZM115.07.05v94.32h1.36V.05h-1.36ZM110.46,89.53l1.36,4.49V.05h-1.36v89.48ZM0,0v94.29h28.53c3.08,0,5.95-.56,8.71-1.42l-.31,1.05,1.33.4.58-1.92c.27-.1.57-.16.84-.26.99-.43,1.86-.98,2.77-1.49l-.99,3.28,1.33.4,1.38-4.61c1.48-.95,2.83-2.05,4.08-3.23l-2.26,7.45,1.33.4,3.15-10.32c1.79-2.15,3.34-4.46,4.44-7.08.14-.32.18-.66.31-.98h.88l-5.59,17.98,1.33.4,5.6-18.38h3.19l-5.46,17.98,1.21.4,5.59-18.38h24.76l5.47,18.38,1.33-.4-5.45-17.98h3.2l5.59,18.38,1.2-.4-5.46-17.98h3.2l5.59,18.38,1.19-.4-5.33-17.98h3.07l5.59,18.38,1.2-.4-5.32-17.98h3.2l5.45,18.38,1.33-.4-1.31-4.38-3.4-11.29V.06h-1.23v74.1l-3.38-11.26V.06h-1.36v58.33L83.54.01l-2.27,7.6L79.01.01l-2.27,7.6L74.35.01l-2.27,7.6L69.82.01l-2.27,7.6L65.3.01l-8.23,27.23c-.15-3.4-.81-6.66-2.17-9.7-1.45-3.53-3.49-6.57-6.12-9.1-2.54-2.63-5.57-4.67-9.1-6.12C36.23.78,32.51.01,28.53.01H0Z" fill="#fff"/>
  </g>
</svg>