<?xml version="1.0" encoding="UTF-8"?>
<svg id="Capa_2" data-name="Capa 2" xmlns="http://www.w3.org/2000/svg" viewBox="0 0 715.33 727.76">
  <defs>
    <style>
      .cls-1 {
        stroke-width: 7px;
      }

      .cls-1, .cls-2 {
        fill: none;
        stroke: #fff;
        stroke-miterlimit: 10;
      }

      .cls-2 {
        stroke-width: 3px;
      }
    </style>
  </defs>
  <g id="Capa_1-2" data-name="Capa 1">
    <path class="cls-1" d="M710.49,395.4c.88-10.39,1.34-20.9,1.34-31.52s-.46-21.13-1.34-31.52l-53.46-10.23c-1.56-11.69-3.75-23.17-6.56-34.4l45.72-30.07c-6.12-20.21-13.94-39.67-23.29-58.19l-53.34,11.01c-5.96-10.52-12.52-20.65-19.63-30.33l30.94-45.59c-13.04-16.07-27.43-30.96-42.98-44.51l-45.28,30.73c-9.87-7.78-20.22-14.95-31-21.47l11.21-54.3c-17.83-9.58-36.56-17.66-56.04-24.07l-30.31,46.08c-12.4-3.4-25.11-6.02-38.08-7.8l-10.41-54.41c-10-.86-20.11-1.31-30.33-1.31s-20.33.45-30.33,1.31l-10.41,54.41c-12.97,1.78-25.68,4.4-38.08,7.8l-30.31-46.08c-19.47,6.41-38.2,14.49-56.04,24.07l11.21,54.3c-10.78,6.51-21.14,13.68-31,21.47l-45.28-30.73c-15.55,13.55-29.94,28.45-42.98,44.51l30.94,45.59c-7.11,9.69-13.66,19.81-19.63,30.33l-53.34-11.01c-9.35,18.52-17.17,37.98-23.29,58.19l45.72,30.07c-2.81,11.23-5,22.71-6.56,34.4l-53.46,10.23c-.88,10.39-1.34,20.9-1.34,31.52s.46,21.13,1.34,31.52l53.46,10.23c1.56,11.69,3.75,23.17,6.56,34.4l-45.72,30.07c6.12,20.21,13.94,39.67,23.29,58.19l53.34-11.01c5.96,10.52,12.52,20.65,19.63,30.33l-30.94,45.59c13.04,16.07,27.43,30.96,42.98,44.51l45.28-30.73c9.87,7.78,20.22,14.95,31,21.47l-11.21,54.3c17.83,9.58,36.56,17.66,56.04,24.07l30.31-46.08c12.4,3.4,25.11,6.02,38.08,7.8l10.41,54.41c10,.86,20.11,1.31,30.33,1.31s20.33-.45,30.33-1.31l10.41-54.41c12.97-1.78,25.68-4.4,38.08-7.8l30.31,46.08c19.47-6.41,38.2-14.49,56.04-24.07l-11.21-54.3c10.78-6.51,21.14-13.68,31-21.47l45.28,30.73c15.55-13.55,29.94-28.45,42.98-44.51l-30.94-45.59c7.11-9.69,13.66-19.81,19.63-30.33l53.34,11.01c9.35-18.52,17.17-37.98,23.29-58.19l-45.72-30.07c2.81-11.23,5-22.71,6.56-34.4l53.46-10.23Z"/>
    <circle class="cls-2" cx="357.81" cy="363.2" r="274.57"/>
  </g>
</svg>
