<?xml version="1.0" encoding="UTF-8"?>
<svg id="uuid-a7f03f94-09f9-4616-a410-8835fcdea062" data-name="Capa 2" xmlns="http://www.w3.org/2000/svg" viewBox="0 0 587.5 592.66">
  <ellipse cx="293.75" cy="296.33" rx="205.85" ry="207.67" fill="none" stroke="#fff" stroke-miterlimit="10" stroke-width="4"/>
  <g>
    <path d="M64.65,444.95l9.82-7.18,2.35,3.16c-.82,1.1-1.51,2.11-2.05,3.04-.55.93-.95,1.78-1.22,2.54-.27.76-.4,1.48-.4,2.16s.17,1.36.5,2.05c.33.69.8,1.45,1.43,2.29l7.58,10.19,17.04-12.46-5.13-6.9c-.7-.95-1.39-1.59-2.06-1.93-.67-.34-1.46-.45-2.38-.33-.91.12-2.18.53-3.81,1.22l-2.26-3.03,12.49-9.13,2.25,3.03c-1.08,1.25-1.81,2.3-2.2,3.15-.39.85-.54,1.63-.44,2.34.09.71.52,1.57,1.27,2.58l5.13,6.9,18.76-13.72-7.46-10.03c-.78-1.05-1.51-1.84-2.18-2.36-.67-.52-1.41-.85-2.2-1-.8-.15-1.69-.14-2.68.02-.99.16-1.96.39-2.91.71-.95.32-2.33.8-4.12,1.45l-2.37-3.19,11.87-7.74,22.22,29.85-1.59,1.17c-1.34-1.08-2.39-1.69-3.15-1.83s-1.58,0-2.46.43c-.88.43-2.13,1.23-3.73,2.41l-28.12,20.58c-1.5,1.1-2.55,1.95-3.15,2.55-.6.61-1,1.17-1.2,1.7-.2.52-.25,1.07-.18,1.65.08.58.34,1.46.8,2.65l-1.59,1.17-22.43-30.14Z"/>
    <path d="M67.34,395.77l1.72,3.45c-1.19,1.24-2.02,2.42-2.49,3.54-.48,1.13-.66,2.23-.54,3.3s.5,2.27,1.16,3.59c.95,1.92,2.17,3.22,3.64,3.91,1.47.69,2.99.66,4.56-.11,1.11-.54,1.92-1.22,2.41-2.03s.82-1.85.97-3.11c.15-1.26.14-3.36-.02-6.29-.15-2.96-.12-5.33.12-7.09.23-1.77.75-3.32,1.56-4.65.81-1.33,2.03-2.4,3.67-3.21,1.91-.93,3.67-1.4,5.3-1.39s3.14.4,4.55,1.17c1.41.77,2.69,1.88,3.86,3.32,1.17,1.44,2.23,3.12,3.18,5.03,1,2.01,1.82,4.04,2.46,6.08.64,2.04,1.17,4.08,1.58,6.11l-7.57,3.71-1.75-3.52c1.9-1.73,3.04-3.48,3.41-5.24.37-1.76,0-3.75-1.11-5.98-.43-.86-.94-1.66-1.53-2.4s-1.26-1.33-2.01-1.77c-.74-.44-1.57-.67-2.49-.7-.92-.03-1.92.22-3,.76-1.23.6-2.11,1.33-2.65,2.19-.53.86-.87,1.95-1.01,3.26-.14,1.32-.12,3.51.06,6.59.17,2.63.15,4.81-.07,6.56-.21,1.74-.72,3.28-1.53,4.62-.81,1.33-2.02,2.4-3.64,3.19-1.98.97-3.97,1.28-5.96.93-1.99-.35-3.88-1.34-5.65-2.97-1.78-1.63-3.34-3.8-4.69-6.51-.79-1.58-1.47-3.15-2.05-4.7-.58-1.55-1.19-3.55-1.84-6l7.39-3.62Z"/>
    <path d="M46.55,359.59l8.05-2.52,1.54,4.85c-1.53.96-2.68,1.9-3.44,2.84s-1.2,1.89-1.32,2.85c-.12.96.02,2.07.42,3.31.57,1.78,1.65,3.18,3.24,4.2s3.7,1.55,6.32,1.62c2.62.06,5.64-.44,9.05-1.51,2.18-.68,4.13-1.46,5.85-2.33,1.71-.87,3.1-1.88,4.15-3.02,1.05-1.14,1.74-2.43,2.07-3.88.33-1.45.21-3.07-.37-4.88-.56-1.76-1.43-3.29-2.6-4.58-1.18-1.3-2.9-2.49-5.16-3.57l1.85-2.97c1.85.85,3.33,1.65,4.43,2.4,1.1.75,2.09,1.61,2.98,2.58.89.97,1.63,1.97,2.23,3,.6,1.03,1.1,2.2,1.52,3.5,1.53,4.81,1.09,9-1.32,12.55-2.41,3.56-6.66,6.29-12.75,8.19-3.8,1.19-7.4,1.53-10.8,1.02-3.4-.51-6.3-1.8-8.71-3.87-2.41-2.07-4.15-4.79-5.22-8.15-.66-2.09-1.16-4.06-1.48-5.9-.32-1.85-.49-3.75-.52-5.7Z"/>
    <path d="M79.69,327.04c.76,5.5-.3,9.93-3.17,13.27-2.87,3.34-7.51,5.44-13.92,6.31-4.4.6-8.23.34-11.48-.77s-5.8-2.89-7.65-5.34c-1.85-2.45-3-5.36-3.47-8.75-.78-5.66.29-10.17,3.22-13.54,2.92-3.36,7.49-5.46,13.71-6.3,4.43-.6,8.27-.38,11.51.67,3.24,1.04,5.8,2.8,7.68,5.27,1.88,2.47,3.06,5.53,3.57,9.18ZM60.73,339.22c5.5-.74,9.6-2.18,12.31-4.31,2.71-2.13,3.84-4.81,3.4-8.04-.24-1.77-.88-3.22-1.92-4.35-1.04-1.13-2.35-1.98-3.92-2.56-1.57-.58-3.35-.91-5.34-1-1.98-.08-4.03.02-6.14.3-3.92.53-7.12,1.4-9.59,2.61-2.47,1.21-4.21,2.64-5.22,4.29-1.01,1.65-1.39,3.42-1.12,5.33.44,3.2,2.18,5.47,5.22,6.8s7.15,1.64,12.32.94Z"/>
    <path d="M66.87,292.3c2.32.04,3.93-.04,4.83-.24.91-.2,1.6-.6,2.08-1.19.48-.59.91-1.57,1.28-2.93l1.98.03-.26,15.9-1.98-.03c-.33-1.34-.68-2.27-1.05-2.8-.37-.53-.81-.91-1.34-1.14-.52-.24-1.23-.41-2.13-.51-.9-.11-2.08-.17-3.53-.2l-33.82-.54c-2.59-.04-4.39-.05-5.42-.02-1.02.02-1.89.12-2.61.28-.72.16-1.28.39-1.69.69-.41.3-.74.71-.99,1.23-.25.52-.51,1.46-.77,2.81l-2.1-.03-.25-9.66.04-2.4,47.71.75Z"/>
    <path d="M74.14,258.71l-.24.57c2.06,2.62,3.45,5.01,4.17,7.16.71,2.16.92,4.37.61,6.65-.27,2.01-.91,3.73-1.9,5.16-1,1.43-2.26,2.46-3.8,3.09-1.54.63-3.24.82-5.11.57-3.9-.52-6.65-2.83-8.25-6.94-1.6-4.11-2.06-10.01-1.37-17.71l-2.6-.35c-2.78-.37-5-.4-6.68-.08-1.67.32-2.96.99-3.86,2.03-.9,1.04-1.48,2.51-1.74,4.42-.28,2.06.04,3.8.97,5.2.92,1.4,2.44,2.57,4.54,3.5l-.7,5.2-5.21-.69c-.99-2.72-1.68-4.97-2.08-6.74-.4-1.78-.66-3.54-.79-5.28-.13-1.74-.08-3.49.16-5.23.36-2.62,1.06-4.67,2.12-6.15,1.06-1.48,2.51-2.5,4.35-3.06,1.84-.56,4.51-.61,8.01-.15l13.94,1.86c1.98.26,3.37.44,4.19.52.82.08,1.58.1,2.3.06.71-.04,1.29-.16,1.74-.37.45-.21.86-.55,1.22-1.03.36-.48.78-1.28,1.26-2.4l1.96.26-1.47,10.88-5.7-.96ZM61.51,257.71c-.67,5.38-.5,9.5.53,12.36,1.03,2.86,2.94,4.47,5.74,4.85,1.52.2,2.76.06,3.73-.43.96-.49,1.68-1.18,2.13-2.06.46-.88.77-1.96.95-3.23.24-1.8.02-3.49-.66-5.08-.68-1.59-1.65-2.88-2.9-3.88-1.25-1-2.54-1.59-3.88-1.77l-5.65-.75Z"/>
    <path d="M56.54,186.96c-2.39-.98-4.06-1.65-5.02-2-.96-.35-1.8-.58-2.53-.7-.73-.11-1.34-.1-1.83.03-.49.13-.95.39-1.38.78s-1.01,1.17-1.76,2.33l-1.94-.8,3.38-9.11.91-2.18,43.21,17.8c1.94.8,3.34,1.33,4.21,1.6.86.27,1.6.38,2.2.34.6-.04,1.17-.26,1.7-.67.53-.4,1.22-1.21,2.05-2.43l1.94.8-3.29,8.88-.93,2.22-5.93-2.96-.38.49c1.02,2.24,1.7,4.11,2.05,5.6.35,1.49.51,2.99.46,4.49-.05,1.5-.38,2.99-1,4.47-1.7,4.05-4.55,6.53-8.57,7.45-4.02.92-8.95.18-14.8-2.23-4.08-1.68-7.24-3.82-9.49-6.43-2.25-2.6-3.56-5.41-3.94-8.41-.37-3,.07-6.02,1.34-9.06.68-1.63,1.43-3.05,2.25-4.28s1.82-2.42,3.01-3.58l-5.93-2.44ZM74.97,194.56c-1.94-.8-3.53-1.35-4.77-1.66-1.24-.31-2.35-.42-3.31-.34-.97.08-1.87.35-2.71.82-.84.47-1.55,1.06-2.15,1.78-.59.72-1.14,1.67-1.62,2.82-1.32,3.16-1.06,6.09.8,8.79,1.86,2.7,5.17,5.04,9.95,7.01,4.78,1.97,8.69,2.79,11.75,2.45,3.06-.33,5.16-1.88,6.32-4.64.45-1.08.74-2.02.85-2.82.11-.79.11-1.62-.01-2.48-.12-.86-.39-1.8-.81-2.81-.42-1.01-.86-1.81-1.32-2.39-.46-.58-1.04-1.11-1.73-1.6-.7-.49-1.66-.99-2.88-1.49l-8.36-3.44Z"/>
    <path d="M115.87,158.6c.57,2.41.89,4.49.96,6.24.07,1.75-.12,3.5-.58,5.24-.46,1.75-1.25,3.48-2.38,5.2-3.03,4.61-6.71,7.19-11.04,7.74-4.33.55-9.22-.93-14.66-4.45-3.36-2.17-5.94-4.69-7.72-7.55s-2.65-5.85-2.6-8.97c.06-3.12,1.03-6.12,2.93-9.01,1.48-2.26,3.11-3.95,4.88-5.07,1.77-1.12,3.59-1.75,5.47-1.9,1.88-.14,3.94.14,6.2.85,2.25.71,4.94,2.02,8.05,3.93l-13.89,21.15.61.39c2.66,1.72,5.1,2.87,7.31,3.45,2.21.58,4.27.53,6.19-.17,1.92-.69,3.59-2.12,5.01-4.29,1.21-1.83,1.95-3.71,2.22-5.62.27-1.91.11-4.1-.49-6.56l3.55-.63ZM98.42,155.37c-2.53-1.44-4.72-2.42-6.57-2.95-1.85-.53-3.5-.59-4.94-.18-1.44.41-2.66,1.37-3.66,2.89-1.51,2.31-1.79,4.75-.83,7.33s3.08,5.11,6.37,7.58l9.64-14.67Z"/>
    <path d="M128.31,78.46l8.12,9.03-2.96,2.61c-1.18-.71-2.26-1.29-3.25-1.75-.98-.45-1.87-.78-2.66-.97-.79-.2-1.53-.26-2.21-.2-.68.07-1.35.29-2.01.68-.66.39-1.38.93-2.17,1.62l-9.53,8.42,14.09,15.67,6.45-5.7c.88-.78,1.47-1.52,1.75-2.21.28-.69.31-1.49.11-2.38s-.73-2.11-1.58-3.65l2.84-2.51,10.32,11.48-2.84,2.51c-1.36-.95-2.48-1.57-3.37-1.88-.89-.31-1.69-.38-2.39-.22-.71.16-1.53.66-2.48,1.49l-6.45,5.7,15.51,17.26,9.38-8.29c.98-.87,1.71-1.66,2.17-2.37.46-.71.73-1.47.8-2.27.07-.8-.01-1.68-.26-2.64-.25-.96-.58-1.9-.98-2.81-.41-.91-1.02-2.22-1.83-3.94l2.99-2.64,8.86,11-27.93,24.69-1.32-1.47c.96-1.42,1.48-2.51,1.55-3.27.07-.76-.15-1.56-.66-2.39-.52-.83-1.44-1.99-2.76-3.46l-23.26-25.87c-1.24-1.38-2.19-2.33-2.85-2.87-.67-.54-1.27-.88-1.82-1.03-.55-.14-1.1-.15-1.67-.02-.57.13-1.43.47-2.59,1.03l-1.32-1.47,28.2-24.93Z"/>
    <path d="M204.06,96.08l-13.77,7.91-.99-1.7c.75-.8,1.26-1.42,1.53-1.85.27-.44.44-.92.49-1.44.05-.52-.07-1.22-.37-2.08-.3-.86-.91-2.08-1.83-3.65l-5.31-9.08c-.95-1.62-1.85-3.06-2.71-4.32s-1.65-2.25-2.37-2.97c-.71-.72-1.37-1.22-1.96-1.51-.59-.29-1.2-.48-1.83-.57-.63-.09-1.28-.07-1.95.06s-1.47.45-2.37.97-1.67,1.2-2.27,2.02c-.61.83-1.14,1.96-1.61,3.4-.47,1.44-.67,2.72-.61,3.82.06,1.11.41,2.22,1.06,3.33l7.56,12.93c1.16,1.99,2.06,3.32,2.7,3.98.64.67,1.34,1.05,2.1,1.16s1.82-.04,3.19-.42l.99,1.7-13.7,7.87-.99-1.7c.75-.8,1.25-1.41,1.52-1.84s.42-.9.47-1.43c.05-.52-.07-1.21-.36-2.06-.29-.85-.91-2.08-1.86-3.7l-8.83-15.11c-.86-1.48-1.58-2.66-2.16-3.53-.57-.87-1.16-1.5-1.76-1.89-.6-.38-1.26-.54-1.99-.48-.73.06-1.67.3-2.82.72l-1.07-1.84,8-5.01,2.13-1.23,2.92,5.87.57-.14c.71-2.72,1.38-4.76,2.01-6.11.63-1.35,1.37-2.54,2.21-3.56.85-1.03,1.88-1.89,3.09-2.58,1.26-.72,2.47-1.22,3.63-1.51,1.16-.28,2.29-.34,3.4-.17,1.11.17,2.17.55,3.18,1.16,1.01.61,2,1.47,2.98,2.57s2.02,2.62,3.14,4.54l7.64,13.07c.93,1.59,1.65,2.72,2.17,3.39.51.66,1,1.12,1.46,1.38.46.26.99.39,1.59.41.6.01,1.53-.15,2.8-.48l.99,1.7Z"/>
    <path d="M216.61,67.22l2.76-7.96c.29-.87.49-1.68.6-2.43.1-.76.04-1.48-.2-2.16-.2-.58-.59-.98-1.16-1.21-.57-.23-1.34-.27-2.31-.13l-.65-1.85,12.47-4.32.65,1.85c-.87.61-1.66,1.5-2.38,2.65-.72,1.16-1.49,2.88-2.31,5.17l-4.51,12.34,12.79,8.6c1.83,1.23,3.4,2.12,4.7,2.66,1.3.54,2.52.83,3.64.86l.65,1.85-15.34,5.31-.65-1.85c2.02-.98,2.8-2.13,2.34-3.44-.19-.53-.45-1-.8-1.42-.35-.42-.87-.86-1.58-1.32l-8.22-5.73-3.21,9.6c-.24.71-.39,1.33-.47,1.88-.08.55-.01,1.12.19,1.7.24.68.67,1.16,1.3,1.44.63.28,1.47.29,2.52.04l.65,1.85-12.74,4.41-.65-1.85c.73-.59,1.36-1.23,1.87-1.92.51-.69.99-1.51,1.44-2.47.45-.96,1-2.33,1.65-4.12l4.5-12.51-12.02-8.23c-1.65-1.13-2.93-1.91-3.83-2.37-.9-.45-1.69-.76-2.38-.92-.68-.16-1.33-.22-1.94-.18l-.65-1.85,14.95-5.18.65,1.85c-1.9,1-2.63,2.13-2.19,3.39.2.58.54,1.11,1.01,1.6.47.49,1.11.99,1.92,1.5l6.93,4.86Z"/>
    <path d="M272.87,71.16c-1.4,2.05-2.73,3.69-3.98,4.93-1.25,1.24-2.68,2.28-4.28,3.13-1.6.85-3.43,1.44-5.47,1.78-5.47.91-9.88-.03-13.22-2.82-3.34-2.79-5.55-7.36-6.62-13.71-.66-3.92-.54-7.51.37-10.75.91-3.24,2.55-5.89,4.9-7.96,2.35-2.07,5.24-3.39,8.67-3.96,2.68-.45,5.04-.4,7.07.12,2.03.53,3.73,1.43,5.11,2.71,1.38,1.27,2.56,2.97,3.57,5.09,1,2.12,1.84,4.97,2.53,8.54l-25.11,4.18.12.71c.53,3.11,1.32,5.66,2.38,7.67,1.06,2,2.5,3.47,4.31,4.4,1.81.93,4,1.18,6.58.75,2.18-.36,4.07-1.09,5.67-2.18,1.6-1.09,3.12-2.69,4.54-4.8l2.87,2.16ZM263.46,56.23c-.64-2.82-1.39-5.08-2.26-6.79-.86-1.71-1.93-2.95-3.21-3.73-1.28-.78-2.82-1.01-4.63-.71-2.74.46-4.74,1.91-6,4.35-1.27,2.44-1.7,5.71-1.31,9.78l17.41-2.9Z"/>
    <path d="M318.87,78.09l-15.92-.36.05-1.96c1.06-.3,1.82-.56,2.28-.79s.85-.56,1.17-.98c.32-.42.58-1.08.77-1.97.2-.89.31-2.24.36-4.06l.24-10.49c.04-1.87.03-3.57-.05-5.09-.07-1.52-.23-2.78-.46-3.76-.23-.98-.53-1.75-.88-2.3s-.77-1.03-1.26-1.43c-.49-.4-1.05-.72-1.69-.96s-1.49-.37-2.54-.4-2.05.16-3,.55c-.95.39-2.01,1.08-3.16,2.07-1.15.99-2,1.97-2.53,2.95-.53.98-.82,2.11-.85,3.39l-.34,14.94c-.05,2.3.02,3.89.21,4.79.2.9.59,1.59,1.19,2.07.59.48,1.58.91,2.94,1.29l-.05,1.96-15.84-.36.05-1.96c1.06-.3,1.81-.56,2.26-.79.45-.23.83-.56,1.15-.98.32-.42.58-1.07.77-1.95.2-.88.31-2.25.36-4.12l.4-17.46c.04-1.71.04-3.08.01-4.13-.03-1.04-.2-1.88-.51-2.52-.31-.63-.79-1.11-1.44-1.43-.65-.32-1.58-.6-2.79-.84l.05-2.12,9.46-.15,2.46.06-.59,6.52.56.17c2.04-1.96,3.68-3.35,4.93-4.18,1.24-.83,2.5-1.46,3.76-1.9,1.26-.44,2.59-.64,4-.61,1.45.03,2.75.23,3.89.59,1.14.36,2.13.9,2.99,1.61.86.71,1.56,1.59,2.1,2.63.54,1.04.94,2.29,1.19,3.73.25,1.45.35,3.28.3,5.5l-.35,15.1c-.04,1.84-.02,3.18.07,4.01.09.83.26,1.48.52,1.94.26.46.64.85,1.14,1.17.5.32,1.39.67,2.64,1.04l-.05,1.96ZM310.23,23.15l3.12,1.43c-1.07,2.17-2.09,3.83-3.05,5-.96,1.17-1.86,1.96-2.72,2.38-.86.42-1.83.62-2.9.6-.73-.02-1.36-.1-1.89-.26-.54-.16-1.06-.38-1.58-.68s-1.32-.82-2.41-1.6c-.72-.5-1.28-.88-1.69-1.16-.41-.28-.84-.51-1.3-.69-.45-.18-.94-.28-1.45-.29-.7-.02-1.29.1-1.77.36s-.97.71-1.47,1.37c-.5.66-1.02,1.53-1.56,2.61l-3.12-1.43c1.35-2.53,2.44-4.29,3.27-5.28.83-.98,1.68-1.69,2.53-2.11s1.88-.62,3.06-.59c.65.01,1.23.1,1.75.26.52.16,1,.36,1.44.61.44.25,1.19.75,2.25,1.49.77.55,1.38.98,1.83,1.28.45.3.92.55,1.4.73.48.18,1.03.28,1.65.3.86.02,1.64-.29,2.33-.93.69-.64,1.44-1.78,2.26-3.42Z"/>
    <path d="M356.19,79.07c-2.07,1.39-3.91,2.43-5.54,3.12-1.63.69-3.34,1.13-5.15,1.33-1.81.2-3.73.08-5.75-.35-5.42-1.16-9.17-3.65-11.23-7.47-2.06-3.82-2.41-8.87-1.03-15.16.85-3.89,2.3-7.17,4.36-9.84s4.57-4.54,7.53-5.6c2.96-1.06,6.14-1.22,9.54-.5,2.66.57,4.83,1.47,6.52,2.71,1.69,1.24,2.93,2.7,3.73,4.39.8,1.69,1.27,3.7,1.41,6.04s-.14,5.29-.84,8.86l-24.88-5.34-.15.7c-.67,3.08-.89,5.75-.65,8,.24,2.25,1.02,4.14,2.36,5.67,1.33,1.53,3.28,2.57,5.83,3.12,2.16.46,4.19.48,6.09.06,1.9-.43,3.9-1.36,6-2.79l1.85,3.06ZM353.03,61.75c.46-2.85.61-5.23.44-7.14-.16-1.91-.69-3.46-1.59-4.65-.9-1.19-2.24-1.98-4.03-2.36-2.71-.58-5.11.03-7.2,1.84-2.09,1.81-3.72,4.68-4.88,8.61l17.26,3.7Z"/>
    <path d="M382.23,62.23l.48.32c2.04-1.12,3.84-1.93,5.4-2.42,1.56-.49,3.12-.73,4.7-.71,1.57.02,3.22.36,4.95,1.04,1.45.57,2.74,1.16,3.85,1.78l-3.43,8.56-4.24-1.67c-.06-1.58-.31-2.8-.74-3.68-.43-.87-1.24-1.54-2.41-2.01-.9-.36-1.9-.45-3-.28-1.1.17-2.26.59-3.48,1.26-1.22.67-2.17,1.37-2.83,2.12-.66.75-1.23,1.71-1.71,2.91l-5.22,13.03c-.91,2.26-1.39,3.87-1.46,4.84-.07.96.14,1.77.62,2.42.48.65,1.31,1.34,2.5,2.06l-.73,1.82-15.14-5.96.73-1.82c1.07.08,1.86.08,2.36.02.5-.06.98-.23,1.44-.51.46-.28.93-.8,1.41-1.56s1.07-2.01,1.76-3.75l6.5-16.23c.64-1.59,1.12-2.88,1.46-3.86.34-.99.47-1.83.41-2.53-.07-.7-.35-1.32-.85-1.84-.5-.53-1.27-1.11-2.32-1.75l.78-1.94,8.94,3.09,2.29.9-3.02,6.35Z"/>
    <path d="M391.17,98.5c1.08.22,1.87.33,2.37.34.51,0,1-.11,1.48-.34.48-.23,1.01-.68,1.59-1.37.58-.69,1.33-1.85,2.24-3.49l8.5-15.3c.83-1.5,1.48-2.71,1.94-3.65.46-.94.7-1.76.72-2.46.02-.7-.18-1.35-.61-1.93-.43-.58-1.12-1.26-2.08-2.03l1.03-1.86,8.42,4.19,2.16,1.18-13.94,25.09c-1.12,2.01-1.8,3.46-2.05,4.35-.25.89-.22,1.68.08,2.38.3.7.97,1.53,2.01,2.49l-.96,1.72-13.87-7.58.96-1.72ZM434.16,58.26l-.98,1.75-17.5,5.17-1.29-3.08,13.57-7.23,6.19,3.38Z"/>
    <path d="M431.04,119.47l-.39-.49c-3.31.51-6.09.56-8.34.13-2.25-.43-4.3-1.33-6.16-2.71-1.64-1.21-2.85-2.6-3.62-4.16s-1.07-3.16-.87-4.8c.19-1.64.85-3.21,1.98-4.71,2.35-3.12,5.73-4.38,10.13-3.77,4.4.61,9.82,3.08,16.27,7.42l1.57-2.09c1.68-2.23,2.78-4.14,3.32-5.74.53-1.6.56-3.05.09-4.33s-1.49-2.51-3.05-3.66c-1.68-1.25-3.37-1.81-5.05-1.69-1.69.12-3.45.86-5.29,2.23l-4.24-3.14,3.14-4.17c2.88.46,5.2.96,6.96,1.48,1.76.52,3.44,1.15,5.04,1.88s3.11,1.63,4.54,2.68c2.14,1.58,3.6,3.19,4.39,4.82.79,1.63.98,3.39.58,5.26-.4,1.87-1.66,4.21-3.77,7.01l-8.41,11.17c-1.19,1.58-2.02,2.71-2.49,3.38s-.86,1.32-1.17,1.96c-.31.64-.48,1.2-.52,1.69-.03.49.07,1.01.31,1.56s.74,1.3,1.5,2.26l-1.19,1.57-8.87-6.57,3.62-4.47ZM438.05,109.01c-4.41-3.2-8.13-5.05-11.15-5.55-3.02-.5-5.37.37-7.07,2.62-.92,1.22-1.4,2.37-1.43,3.44-.04,1.07.22,2.02.78,2.85s1.35,1.62,2.39,2.39c1.47,1.09,3.07,1.72,4.8,1.9,1.73.18,3.34-.03,4.83-.62,1.49-.6,2.64-1.43,3.44-2.5l3.41-4.53Z"/>
    <path d="M467.59,149.22c-1.37,1.16-2.34,2.06-2.89,2.69-.56.63-.93,1.21-1.11,1.73-.19.53-.22,1.1-.11,1.72s.45,1.51,1.01,2.65l-1.51,1.28-11.08-12.85,1.51-1.28c1.41.98,2.5,1.52,3.27,1.6.77.09,1.58-.11,2.43-.61s2.03-1.38,3.55-2.66l26.57-22.51c1.41-1.2,2.4-2.12,2.96-2.77.56-.65.91-1.24,1.07-1.78.16-.54.18-1.09.06-1.66s-.45-1.43-.98-2.59l1.5-1.28,11.08,12.85-1.51,1.28c-1-.7-1.78-1.16-2.34-1.36-.57-.2-1.12-.28-1.66-.23-.54.05-1.19.31-1.97.77-.77.46-1.86,1.29-3.28,2.49l-26.57,22.51Z"/>
    <path d="M488.25,197.45l-8.34-13.44,1.69-1.03c.83.72,1.46,1.21,1.91,1.47.45.26.93.41,1.46.45.53.04,1.22-.1,2.09-.42.86-.32,2.07-.96,3.63-1.91l9.02-5.5c1.61-.98,3.03-1.91,4.29-2.8,1.25-.89,2.23-1.7,2.93-2.42s1.19-1.39,1.48-1.98c.28-.59.45-1.2.53-1.83.07-.62.04-1.27-.11-1.93-.14-.66-.49-1.44-1.04-2.33s-1.25-1.62-2.1-2.2-2.01-1.08-3.47-1.5c-1.47-.42-2.76-.59-3.87-.51-1.12.09-2.23.46-3.33,1.14l-12.84,7.83c-1.97,1.2-3.29,2.13-3.94,2.78-.66.65-1.03,1.35-1.11,2.11-.08.76.09,1.81.51,3.15l-1.69,1.03-8.3-13.38,1.69-1.03c.83.72,1.46,1.2,1.9,1.45.44.25.92.39,1.45.43.53.04,1.22-.1,2.07-.41.85-.31,2.08-.96,3.68-1.94l15.01-9.15c1.47-.9,2.64-1.64,3.5-2.23.87-.59,1.48-1.19,1.85-1.79.37-.6.51-1.26.43-1.98-.08-.72-.35-1.65-.8-2.78l1.82-1.11,5.26,7.8,1.29,2.08-5.84,3.05.16.56c2.76.63,4.84,1.24,6.21,1.83,1.38.59,2.59,1.29,3.65,2.1,1.06.81,1.95,1.81,2.69,2.99.76,1.23,1.3,2.41,1.61,3.56.31,1.14.4,2.26.26,3.37-.14,1.1-.5,2.16-1.09,3.18-.59,1.02-1.43,2.02-2.52,3.02s-2.59,2.07-4.49,3.23l-12.97,7.91c-1.58.97-2.7,1.71-3.36,2.24-.66.52-1.11,1.02-1.36,1.49-.25.47-.37.99-.37,1.59s.19,1.52.55,2.77l-1.69,1.03Z"/>
    <path d="M540.68,211.47c2.42-.89,4.11-1.53,5.05-1.93.95-.39,1.72-.79,2.33-1.2.61-.41,1.05-.83,1.32-1.26.27-.43.43-.93.47-1.5.04-.57-.06-1.54-.31-2.9l1.97-.73,3.79,8.95.83,2.22-43.86,16.16c-1.97.73-3.36,1.28-4.18,1.67-.82.39-1.43.8-1.84,1.23-.41.44-.67.98-.79,1.64-.11.65-.06,1.71.17,3.16l-1.97.73-3.7-8.72-.84-2.25,6.38-1.84-.06-.62c-2.28-.95-4.07-1.86-5.35-2.71-1.28-.85-2.42-1.84-3.42-2.97-1-1.13-1.78-2.44-2.34-3.95-1.54-4.11-1.15-7.85,1.16-11.24,2.31-3.39,6.43-6.17,12.36-8.36,4.14-1.53,7.93-2.1,11.37-1.71,3.44.39,6.32,1.55,8.66,3.5s4.08,4.46,5.24,7.54c.62,1.65,1.05,3.2,1.29,4.65.24,1.45.33,3,.26,4.65l6.02-2.22ZM521.97,218.37c1.97-.73,3.51-1.4,4.64-2.01,1.12-.61,2.01-1.27,2.66-1.98.65-.71,1.13-1.52,1.42-2.42.29-.91.41-1.82.35-2.76-.06-.93-.31-1.99-.75-3.16-1.2-3.21-3.41-5.17-6.63-5.89-3.22-.72-7.25-.19-12.1,1.59-4.85,1.79-8.28,3.83-10.29,6.14-2.01,2.31-2.49,4.86-1.44,7.67.41,1.1.85,1.98,1.31,2.64.46.66,1.03,1.26,1.71,1.81.68.55,1.52,1.05,2.53,1.51,1,.46,1.87.74,2.61.86.73.11,1.52.12,2.37,0s1.89-.4,3.13-.85l8.48-3.13Z"/>
    <path d="M542.57,234.63l1.85,11.27-20.3,3.28c-3.11.5-5.46,1-7.04,1.5-1.58.5-2.75,1.05-3.49,1.66-.75.61-1.33,1.39-1.74,2.35-.42.96-.5,2.2-.25,3.73.16,1,.52,1.93,1.07,2.79.55.86,1.42,1.77,2.6,2.75,1.18.97,2.31,1.62,3.37,1.95,1.06.33,2.25.39,3.55.18l14.96-2.42c1.52-.24,2.65-.47,3.41-.67.76-.2,1.35-.44,1.79-.69.43-.26.78-.54,1.03-.84.25-.3.46-.7.62-1.2.16-.5.29-1.29.39-2.36l1.95-.32,1.85,11.27-27.24,4.4c-2.05.33-3.52.61-4.41.83-.89.23-1.58.51-2.07.86-.49.35-.85.83-1.09,1.44s-.39,1.65-.45,3.12l-2.07.33-1.89-8.99-.4-2.41,6.58-.82.06-.62c-2.75-1.8-4.85-3.61-6.29-5.42-1.44-1.81-2.33-3.72-2.66-5.72-.39-2.4-.24-4.45.46-6.16.7-1.71,1.94-3.1,3.72-4.17,1.77-1.07,4.39-1.89,7.85-2.45l15.07-2.44c2.23-.36,3.76-.69,4.56-1,.81-.31,1.42-.74,1.83-1.31.41-.57.7-1.7.85-3.41l1.95-.32Z"/>
    <path d="M540.14,311.51l.06-3.84c1.63-.56,2.91-1.24,3.85-2.02.94-.79,1.61-1.68,2-2.69.39-1.01.6-2.25.62-3.72.03-2.14-.44-3.85-1.43-5.13-.99-1.29-2.36-1.94-4.11-1.97-1.24-.02-2.27.22-3.08.71-.82.49-1.58,1.27-2.3,2.33-.72,1.06-1.68,2.93-2.88,5.6-1.23,2.71-2.35,4.79-3.37,6.26-1.02,1.47-2.2,2.61-3.53,3.43s-2.92,1.22-4.75,1.19c-2.13-.03-3.91-.42-5.36-1.17s-2.61-1.78-3.51-3.1c-.89-1.32-1.53-2.89-1.9-4.7s-.55-3.78-.51-5.92c.04-2.24.24-4.42.61-6.52.37-2.1.84-4.15,1.41-6.15l8.44.13-.06,3.93c-2.49.68-4.3,1.72-5.44,3.12-1.14,1.4-1.73,3.34-1.77,5.82-.02.96.07,1.9.26,2.83.19.93.51,1.75.97,2.48.46.73,1.09,1.31,1.89,1.75.8.44,1.81.67,3.02.69,1.37.02,2.5-.23,3.37-.75s1.67-1.34,2.4-2.45c.73-1.11,1.73-3.07,2.98-5.88,1.06-2.41,2.09-4.35,3.08-5.8.99-1.46,2.16-2.59,3.49-3.41,1.33-.82,2.9-1.22,4.71-1.19,2.21.03,4.12.66,5.73,1.87,1.61,1.21,2.83,2.95,3.65,5.21.83,2.26,1.21,4.89,1.17,7.91-.03,1.76-.14,3.46-.34,5.1-.2,1.64-.58,3.7-1.13,6.17l-8.24-.13Z"/>
    <path d="M546.37,320.51c.03,1.35.25,2.48.66,3.37.42.89,1.01,1.63,1.79,2.21.77.58,1.78,1.09,3.01,1.53,1.23.44,3.04.98,5.42,1.61l-.8,5.63-9.88-1.38-1.82,12.81-4.04-.57,1.82-12.81-17.8-2.49c-2.59-.36-4.66-.54-6.23-.55-1.56,0-2.82.22-3.77.69-.95.46-1.66,1.03-2.14,1.72-.48.69-.8,1.61-.97,2.78-.15,1.06-.07,2.08.24,3.07.31.99.81,1.99,1.51,3l-2.41,1.48c-1.57-2.14-2.65-4.1-3.24-5.9s-.75-3.59-.5-5.39c.49-3.41,1.87-5.81,4.15-7.19s5.59-1.77,9.94-1.16l22.21,3.11.84-5.87,2.04.29Z"/>
    <path d="M533.74,362.45l-.27.51c1.34,1.9,2.34,3.59,3,5.07.66,1.48,1.06,3,1.22,4.56.15,1.55-.02,3.22-.52,4.99-.42,1.49-.88,2.82-1.37,3.99l-8.95-2.47,1.23-4.36c1.57-.23,2.78-.6,3.61-1.12.83-.52,1.42-1.38,1.76-2.59.26-.93.25-1.92-.04-2.99s-.83-2.16-1.63-3.3c-.8-1.14-1.61-1.99-2.43-2.56s-1.85-1.03-3.1-1.37l-13.62-3.76c-2.36-.65-4.03-.96-5-.93s-1.76.32-2.36.87c-.6.54-1.2,1.44-1.8,2.68l-1.91-.53,4.37-15.55,1.91.53c.04,1.06.11,1.84.23,2.33.11.49.34.94.66,1.37.33.42.9.83,1.71,1.22.81.39,2.13.84,3.94,1.34l16.97,4.69c1.66.46,3.01.8,4.03,1.03,1.03.23,1.89.27,2.59.13.7-.14,1.28-.49,1.76-1.03.48-.55.98-1.37,1.51-2.47l2.02.56-2.15,9.14-.66,2.35-6.69-2.31Z"/>
    <path d="M498.32,375.18c-.1,1.09-.13,1.88-.08,2.38.05.5.22.97.5,1.42.28.45.8.92,1.55,1.42.75.5,2,1.11,3.74,1.82l16.27,6.7c1.59.65,2.88,1.16,3.88,1.51s1.84.5,2.55.44c.71-.06,1.33-.33,1.87-.81.54-.49,1.14-1.24,1.8-2.27l1.98.81-3.27,8.76-.94,2.26-26.68-10.98c-2.14-.88-3.67-1.39-4.58-1.54-.92-.15-1.71-.03-2.38.35-.67.38-1.43,1.13-2.28,2.25l-1.83-.75,6.07-14.5,1.83.75ZM542.38,405.71l-7.24-2.98,2.85-6.81,7.24,2.98-2.85,6.81Z"/>
    <path d="M481.75,416.79l.45-.44c-.89-3.21-1.25-5.94-1.07-8.2.18-2.26.85-4.39,2.02-6.37,1.03-1.75,2.29-3.1,3.76-4.04,1.47-.94,3.04-1.41,4.71-1.4,1.66,0,3.31.48,4.94,1.42,3.4,1.97,5.04,5.15,4.93,9.55-.11,4.4-1.98,10.03-5.6,16.87l2.27,1.31c2.42,1.4,4.46,2.27,6.13,2.62,1.67.35,3.12.21,4.35-.4,1.23-.62,2.34-1.75,3.32-3.41,1.06-1.8,1.43-3.52,1.12-5.17-.31-1.65-1.26-3.3-2.84-4.96l2.67-4.53,4.54,2.62c-.14,2.89-.37,5.23-.69,7.02-.32,1.79-.76,3.52-1.32,5.18-.55,1.66-1.28,3.25-2.18,4.77-1.34,2.28-2.79,3.91-4.34,4.87s-3.28,1.35-5.2,1.17c-1.92-.18-4.4-1.16-7.45-2.92l-12.14-7.03c-1.72-1-2.94-1.69-3.67-2.07-.72-.39-1.42-.7-2.09-.93-.67-.24-1.26-.34-1.75-.32-.5.02-1.01.18-1.53.49-.52.3-1.22.88-2.1,1.73l-1.71-.99,5.58-9.48,4.89,3.06ZM493.02,422.52c2.71-4.71,4.15-8.58,4.31-11.61s-.98-5.25-3.42-6.66c-1.33-.77-2.53-1.11-3.61-1.02-1.08.09-2,.45-2.77,1.09s-1.48,1.51-2.13,2.62c-.92,1.57-1.38,3.22-1.36,4.94s.41,3.29,1.17,4.69c.77,1.4,1.73,2.44,2.89,3.11l4.92,2.85Z"/>
    <path d="M469.56,441.03c-1.83-1.41-3.16-2.31-4.01-2.69-.84-.38-1.64-.48-2.38-.29s-1.68.71-2.8,1.57l-1.56-1.21,9.86-12.54,1.56,1.21c-.55,1.27-.84,2.22-.87,2.86s.1,1.21.37,1.71c.27.5.74,1.06,1.39,1.68.65.62,1.55,1.38,2.7,2.27l26.67,20.61c2.04,1.58,3.48,2.66,4.31,3.25.83.59,1.58,1.04,2.25,1.34.67.3,1.26.45,1.77.45.51,0,1.02-.13,1.53-.39s1.29-.86,2.33-1.78l1.66,1.28-5.67,7.86-1.49,1.9-37.64-29.09Z"/>
  </g>
  <ellipse cx="293.75" cy="296.33" rx="291.75" ry="294.33" fill="none" stroke="#fff" stroke-miterlimit="10" stroke-width="4"/>
  <g>
    <path d="M210.27,542.52c-1.23,2.85-2.56,5.2-3.98,7.05-1.35,1.75-2.86,3.17-4.52,4.26-1.51.97-3.16,1.64-4.95,2.01-1.79.37-3.78.42-5.97.14-2.19-.28-4.61-.98-7.25-2.1-3.2-1.36-5.78-2.88-7.76-4.56-1.98-1.68-3.37-3.64-4.16-5.88-.8-2.25-1.05-4.6-.77-7.07.29-2.47,1.16-5.39,2.62-8.77l11.17-25.85c.88-2.04,1.41-3.45,1.59-4.23.18-.78.23-1.43.16-1.95s-.28-1.04-.62-1.54c-.35-.5-1.09-1.2-2.24-2.09l.83-1.93,16.64,7.07-.83,1.92c-1.64-.26-2.85-.29-3.62-.08-.78.21-1.47.73-2.08,1.56-.61.83-1.38,2.32-2.3,4.46l-12.02,27.81c-1.1,2.54-1.75,4.79-1.96,6.75-.21,1.96-.03,3.62.54,5,.56,1.37,1.43,2.56,2.59,3.56,1.16,1,2.74,1.93,4.75,2.79,1.85.79,3.61,1.15,5.29,1.11,1.68-.05,3.27-.53,4.77-1.44,1.5-.91,2.84-2.25,4.01-4.01,1.17-1.76,2.45-4.26,3.84-7.48l10.61-24.55c.98-2.28,1.55-3.88,1.68-4.82s.05-1.73-.28-2.4c-.32-.66-1.2-1.55-2.63-2.65l.83-1.93,15.81,6.72-.83,1.93c-1.7-.26-2.94-.27-3.71-.04-.77.23-1.46.75-2.05,1.55-.6.8-1.36,2.27-2.29,4.42l-10.92,25.26Z"/>
    <path d="M249.25,512.87l-.37,2.06c-1.34,0-2.38.1-3.12.32s-1.33.61-1.78,1.16c-.45.56-.77,1.36-.95,2.39-.17.96-.24,2.01-.21,3.15.03,1.15.13,2.45.31,3.9l3.82,36.08,18.34-32.46c.26-.5.53-1.04.81-1.59.27-.56.52-1.11.75-1.65.23-.54.4-1.01.52-1.43s.21-.8.27-1.17c.3-1.68.13-2.98-.51-3.89-.64-.91-1.87-1.66-3.69-2.27l.37-2.06,17.83,3.12-.37,2.06c-1.21.08-2.22.32-3.02.73-.8.41-1.65,1.14-2.56,2.2-.9,1.06-2.08,2.79-3.53,5.2l-25.91,43.55-5.56-.97-5.95-49.43c-.31-2.69-.65-4.62-1.02-5.8-.37-1.18-.85-2.1-1.43-2.77-.58-.67-1.44-1.24-2.58-1.73l.37-2.06,19.19,3.36Z"/>
    <path d="M296.54,564.92c0,1.91.05,3.3.17,4.19.13.88.34,1.58.64,2.1.3.51.74.94,1.33,1.29.59.35,1.54.69,2.86,1.04v2.09s-18.2-.09-18.2-.09v-2.1c1.79-.45,2.99-.95,3.59-1.5.61-.55,1.01-1.34,1.2-2.37.19-1.03.29-2.59.3-4.7l.18-36.96c0-1.97-.06-3.4-.2-4.3-.14-.9-.37-1.6-.7-2.1-.33-.5-.77-.9-1.31-1.2-.54-.3-1.48-.64-2.8-1.02v-2.09s18.2.09,18.2.09v2.09c-1.28.31-2.19.62-2.75.93-.56.31-1.01.7-1.34,1.17s-.58,1.17-.74,2.11c-.16.94-.25,2.39-.26,4.36l-.18,36.96Z"/>
    <path d="M358.9,568.5l-3.17,1.43-3.65-2.78c-1.66,1.43-3.44,2.57-5.37,3.43-1.92.86-4.19,1.51-6.8,1.94-7.17,1.18-12.98-.38-17.42-4.66-4.44-4.28-7.47-11.23-9.07-20.84-1-5.99-.88-11.4.35-16.26,1.23-4.85,3.5-8.8,6.81-11.84,3.31-3.04,7.47-4.97,12.49-5.79,2.64-.43,5.2-.7,7.69-.81,2.49-.1,5.28-.04,8.38.21l1.94,11.59-4.21.69c-1.19-2.4-2.43-4.23-3.71-5.48-1.29-1.25-2.71-2.05-4.27-2.42-1.56-.36-3.46-.36-5.7,0-3.09.51-5.63,1.93-7.63,4.28s-3.32,5.55-3.97,9.59c-.65,4.05-.52,8.79.38,14.21.92,5.51,2.25,10.13,3.99,13.86s3.86,6.41,6.34,8.03c2.48,1.63,5.3,2.18,8.45,1.67,3.34-.55,5.7-1.68,7.08-3.39,1.37-1.71,1.81-4.07,1.31-7.08l-.42-2.53c-.42-2.53-.86-4.33-1.32-5.41s-1.08-1.87-1.86-2.38c-.78-.51-1.99-.83-3.61-.97l-.34-2.07,17.18-2.82.34,2.07c-.96.5-1.66,1.02-2.1,1.54-.44.52-.74,1.13-.9,1.82-.16.69-.21,1.51-.16,2.47.06.96.23,2.31.52,4.05l2.44,14.63Z"/>
    <path d="M401.31,555.06c-3.18,1.32-6.3,2-9.34,2.05-3.05.05-5.97-.64-8.77-2.06-2.8-1.42-5.43-3.62-7.89-6.62-2.46-2.99-4.7-6.87-6.71-11.62-2.48-5.86-3.7-11.27-3.67-16.22.03-4.95,1.25-9.22,3.68-12.81,2.43-3.58,5.85-6.3,10.28-8.14,4.72-1.96,9.12-2.57,13.21-1.85,4.09.73,7.8,2.76,11.12,6.09,3.32,3.33,6.2,7.87,8.63,13.63,2.6,6.15,3.86,11.72,3.79,16.72-.07,5-1.35,9.25-3.84,12.76s-5.99,6.19-10.5,8.06ZM376.33,532.31c3.41,8.07,7.18,13.71,11.33,16.93,4.15,3.22,8.5,3.88,13.06,1.99,2.89-1.2,4.95-3.13,6.2-5.79,1.24-2.66,1.62-5.96,1.14-9.9-.48-3.94-1.71-8.26-3.7-12.97-2.42-5.73-5.02-10.23-7.79-13.51-2.77-3.28-5.54-5.35-8.3-6.21s-5.5-.73-8.2.39c-2.38.99-4.2,2.39-5.44,4.2-1.24,1.81-2,3.97-2.26,6.48-.27,2.5-.05,5.31.66,8.41.7,3.11,1.81,6.43,3.3,9.98Z"/>
  </g>
  <line x1="276.01" y1="222.03" x2="276.01" y2="366.98" fill="none" stroke="#fff" stroke-miterlimit="10" stroke-width="4"/>
  <line x1="406.22" y1="251.96" x2="276.65" y2="224.17" fill="none" stroke="#fff" stroke-miterlimit="10" stroke-width="4"/>
  <line x1="275.94" y1="365.3" x2="403.84" y2="350.79" fill="none" stroke="#fff" stroke-miterlimit="10" stroke-width="4"/>
  <line x1="286.18" y1="255.62" x2="395.17" y2="273.16" fill="none" stroke="#fff" stroke-miterlimit="10" stroke-width="2"/>
  <line x1="285.94" y1="282.46" x2="395.17" y2="293.4" fill="none" stroke="#fff" stroke-miterlimit="10" stroke-width="2"/>
  <line x1="285.94" y1="254.64" x2="285.94" y2="283.51" fill="none" stroke="#fff" stroke-miterlimit="10" stroke-width="2"/>
  <line x1="311.32" y1="259.48" x2="311.32" y2="285.74" fill="none" stroke="#fff" stroke-miterlimit="10"/>
  <line x1="334.16" y1="262.77" x2="334.16" y2="286.83" fill="none" stroke="#fff" stroke-miterlimit="10"/>
  <line x1="345.52" y1="264.41" x2="345.52" y2="289.57" fill="none" stroke="#fff" stroke-miterlimit="10"/>
  <line x1="356" y1="265.95" x2="356" y2="290.02" fill="none" stroke="#fff" stroke-miterlimit="10"/>
  <line x1="322.9" y1="260.58" x2="322.9" y2="285.74" fill="none" stroke="#fff" stroke-miterlimit="10"/>
  <line x1="366.49" y1="267.47" x2="366.49" y2="291.54" fill="none" stroke="#fff" stroke-miterlimit="10"/>
  <line x1="375.31" y1="270" x2="375.31" y2="291.88" fill="none" stroke="#fff" stroke-miterlimit="10"/>
  <line x1="299.18" y1="257.84" x2="299.18" y2="283" fill="none" stroke="#fff" stroke-miterlimit="10"/>
  <line x1="383.04" y1="271.09" x2="383.04" y2="292.97" fill="none" stroke="#fff" stroke-miterlimit="10"/>
  <line x1="285.94" y1="297.4" x2="285.94" y2="341.71" fill="none" stroke="#fff" stroke-miterlimit="10" stroke-width="2"/>
  <line x1="284.83" y1="312.54" x2="395.17" y2="312.54" fill="none" stroke="#fff" stroke-miterlimit="10" stroke-width="1.5"/>
  <line x1="284.87" y1="341.47" x2="395.35" y2="332.12" fill="none" stroke="#fff" stroke-miterlimit="10" stroke-width="2"/>
  <line x1="286.07" y1="298.5" x2="395.1" y2="304.59" fill="none" stroke="#fff" stroke-miterlimit="10" stroke-width="2"/>
  <line x1="385.24" y1="303.35" x2="385.24" y2="332.89" fill="none" stroke="#fff" stroke-miterlimit="10"/>
  <line x1="276.32" y1="365.4" x2="97.82" y2="347.42" fill="none" stroke="#fff" stroke-miterlimit="10" stroke-width="4"/>
  <path d="M434.9,253.47c-10.86,0-21.03,1.44-29.79,3.96v51.15c8.76,2.52,18.93,3.96,29.79,3.96,15.26,0,29.18-2.84,39.72-7.53v-44.02c-10.54-4.68-24.46-7.53-39.72-7.53Z" fill="none" stroke="#fff" stroke-miterlimit="10" stroke-width="4"/>
  <line x1="276.01" y1="223.93" x2="97.26" y2="273.16" fill="none" stroke="#fff" stroke-miterlimit="10" stroke-width="4"/>
  <line x1="424.97" y1="312.54" x2="424.97" y2="351.93" fill="none" stroke="#fff" stroke-miterlimit="10" stroke-width="2"/>
  <line x1="430.48" y1="312.54" x2="430.48" y2="351.93" fill="none" stroke="#fff" stroke-miterlimit="10" stroke-width="2"/>
  <line x1="456.96" y1="311.9" x2="456.96" y2="351.28" fill="none" stroke="#fff" stroke-miterlimit="10" stroke-width="2"/>
  <line x1="462.48" y1="309.38" x2="462.48" y2="348.76" fill="none" stroke="#fff" stroke-miterlimit="10" stroke-width="2"/>
  <line x1="354.35" y1="302.82" x2="354.35" y2="335.64" fill="none" stroke="#fff" stroke-miterlimit="10"/>
  <line x1="333.38" y1="301.18" x2="333.38" y2="337.28" fill="none" stroke="#fff" stroke-miterlimit="10"/>
  <line x1="311.32" y1="300.08" x2="311.32" y2="338.37" fill="none" stroke="#fff" stroke-miterlimit="10"/>
  <line x1="370.9" y1="302.7" x2="370.9" y2="333.33" fill="none" stroke="#fff" stroke-miterlimit="10"/>
  <line x1="171.18" y1="463.62" x2="488.96" y2="365.16" fill="none" stroke="#fff" stroke-miterlimit="10" stroke-width="2"/>
  <line x1="192.7" y1="477.19" x2="480.69" y2="379.82" fill="none" stroke="#fff" stroke-miterlimit="10" stroke-width="2"/>
  <line x1="155.45" y1="450.72" x2="493.09" y2="352.26" fill="none" stroke="#fff" stroke-miterlimit="10" stroke-width="2"/>
  <line x1="144.65" y1="437.38" x2="493.42" y2="343.28" fill="none" stroke="#fff" stroke-miterlimit="10" stroke-width="2"/>
  <line x1="132.09" y1="426.74" x2="419.91" y2="351.74" fill="none" stroke="#fff" stroke-miterlimit="10" stroke-width="2"/>
  <line x1="123.18" y1="413.16" x2="328.9" y2="360.31" fill="none" stroke="#fff" stroke-miterlimit="10" stroke-width="2"/>
  <line x1="115.24" y1="401.17" x2="267.51" y2="363.97" fill="none" stroke="#fff" stroke-miterlimit="10" stroke-width="2"/>
  <line x1="110.03" y1="386.92" x2="227.91" y2="360.69" fill="none" stroke="#fff" stroke-miterlimit="10" stroke-width="2"/>
  <line x1="103.48" y1="374.14" x2="190.77" y2="355.96" fill="none" stroke="#fff" stroke-miterlimit="10" stroke-width="2"/>
  <line x1="106.08" y1="382.01" x2="433.79" y2="449.84" fill="none" stroke="#fff" stroke-miterlimit="10" stroke-width="2"/>
  <line x1="95.05" y1="351.38" x2="456.96" y2="421.39" fill="none" stroke="#fff" stroke-miterlimit="10" stroke-width="2"/>
  <line x1="226.35" y1="361.24" x2="466.89" y2="407.18" fill="none" stroke="#fff" stroke-miterlimit="10" stroke-width="2"/>
  <line x1="298.78" y1="361.77" x2="474.62" y2="392.99" fill="none" stroke="#fff" stroke-miterlimit="10" stroke-width="2"/>
  <line x1="484.55" y1="342.63" x2="484.55" y2="292.3" fill="none" stroke="#fff" stroke-miterlimit="10" stroke-width="4"/>
  <line x1="236.28" y1="271.41" x2="236.28" y2="360.02" fill="none" stroke="#fff" stroke-miterlimit="10" stroke-width="3"/>
  <line x1="196.56" y1="277.54" x2="196.56" y2="357.4" fill="none" stroke="#fff" stroke-miterlimit="10" stroke-width="3"/>
  <line x1="129.24" y1="290.66" x2="129.26" y2="349.74" fill="none" stroke="#fff" stroke-miterlimit="10" stroke-width="3"/>
  <line x1="107.19" y1="293.45" x2="107.19" y2="346.95" fill="none" stroke="#fff" stroke-miterlimit="10" stroke-width="3"/>
  <line x1="238.78" y1="271.07" x2="104.68" y2="294.95" fill="none" stroke="#fff" stroke-miterlimit="10" stroke-width="2"/>
  <line x1="190.52" y1="254.86" x2="134.19" y2="269.82" fill="none" stroke="#fff" stroke-miterlimit="10" stroke-width="2"/>
  <line x1="167.3" y1="306.65" x2="166.99" y2="353.02" fill="none" stroke="#fff" stroke-miterlimit="10" stroke-width="2"/>
  <line x1="146.95" y1="308.51" x2="146.63" y2="351.6" fill="none" stroke="#fff" stroke-miterlimit="10" stroke-width="2"/>
  <line x1="187.12" y1="303.91" x2="186.8" y2="357.94" fill="none" stroke="#fff" stroke-miterlimit="10" stroke-width="2"/>
  <line x1="420.97" y1="237.6" x2="393.64" y2="249.89" fill="none" stroke="#fff" stroke-miterlimit="10" stroke-width="2"/>
  <line x1="429.74" y1="253.35" x2="420.18" y2="238.51" fill="none" stroke="#fff" stroke-miterlimit="10" stroke-width="2"/>
  <line x1="395.17" y1="272.07" x2="395.17" y2="303.79" fill="none" stroke="#fff" stroke-miterlimit="10" stroke-width="2"/>
  <line x1="475.72" y1="242.1" x2="462.48" y2="255.23" fill="none" stroke="#fff" stroke-miterlimit="10" stroke-width="2"/>
  <line x1="495.03" y1="274.25" x2="474.07" y2="242.53" fill="none" stroke="#fff" stroke-miterlimit="10" stroke-width="3"/>
  <line x1="484.55" y1="293.4" x2="494.48" y2="272.61" fill="none" stroke="#fff" stroke-miterlimit="10" stroke-width="4"/>
  <line x1="152.58" y1="308.29" x2="152.26" y2="353.57" fill="none" stroke="#fff" stroke-miterlimit="10" stroke-width="2"/>
  <line x1="172.44" y1="305.55" x2="172.12" y2="354.11" fill="none" stroke="#fff" stroke-miterlimit="10" stroke-width="2"/>
  <line x1="133.6" y1="310.47" x2="133.28" y2="352.05" fill="none" stroke="#fff" stroke-miterlimit="10" stroke-width="2"/>
  <path d="M187.76,304.76c-4.74-3.54-11.68-2.89-15.51,1.47" fill="none" stroke="#fff" stroke-miterlimit="10" stroke-width="2"/>
  <path d="M147.46,309.74c-4.39-3.11-10.8-2.53-14.34,1.28" fill="none" stroke="#fff" stroke-miterlimit="10" stroke-width="2"/>
  <path d="M167.87,307.61c-4.74-3.54-11.68-2.89-15.51,1.47" fill="none" stroke="#fff" stroke-miterlimit="10" stroke-width="2"/>
  <line x1="207.6" y1="292.75" x2="207.6" y2="312.44" fill="none" stroke="#fff" stroke-miterlimit="10"/>
  <line x1="225.25" y1="290.24" x2="225.25" y2="312.12" fill="none" stroke="#fff" stroke-miterlimit="10"/>
  <line x1="134.99" y1="268.9" x2="134.99" y2="288.6" fill="none" stroke="#fff" stroke-miterlimit="10" stroke-width="2"/>
  <line x1="122.64" y1="304.73" x2="122.64" y2="318.41" fill="none" stroke="#fff" stroke-miterlimit="10"/>
  <polygon points="195.96 291.94 128.24 301.32 129.63 304.99 197.35 295.62 195.96 291.94" fill="none" stroke="#fff" stroke-miterlimit="10"/>
  <line x1="98.9" y1="271.09" x2="98.91" y2="349.86" fill="none" stroke="#fff" stroke-miterlimit="10" stroke-width="4"/>
  <line x1="198.53" y1="277.58" x2="215.55" y2="256.96" fill="none" stroke="#fff" stroke-miterlimit="10"/>
  <line x1="111.06" y1="292.94" x2="117.43" y2="283.16" fill="none" stroke="#fff" stroke-miterlimit="10"/>
  <line x1="137.13" y1="255.75" x2="107.02" y2="264.56" fill="none" stroke="#fff" stroke-miterlimit="10" stroke-width="2"/>
  <line x1="246.47" y1="225.4" x2="196.13" y2="239.13" fill="none" stroke="#fff" stroke-miterlimit="10" stroke-width="2"/>
  <line x1="390.1" y1="272.07" x2="390.1" y2="292.85" fill="none" stroke="#fff" stroke-miterlimit="10"/>
  <line x1="215.27" y1="251.13" x2="192.65" y2="279.02" fill="none" stroke="#fff" stroke-miterlimit="10" stroke-width="2"/>
  <line x1="263.87" y1="234.66" x2="263.87" y2="353.91" fill="none" stroke="#fff" stroke-miterlimit="10" stroke-width="2"/>
  <line x1="246.22" y1="244.72" x2="246.22" y2="350.83" fill="none" stroke="#fff" stroke-miterlimit="10" stroke-width="2"/>
  <line x1="238.22" y1="271.24" x2="213.94" y2="251.01" fill="none" stroke="#fff" stroke-miterlimit="10" stroke-width="2"/>
  <line x1="126.91" y1="290.74" x2="117.03" y2="282.79" fill="none" stroke="#fff" stroke-miterlimit="10"/>
  <line x1="215.02" y1="257.13" x2="233.81" y2="272.24" fill="none" stroke="#fff" stroke-miterlimit="10"/>
  <line x1="343.17" y1="356.52" x2="482.92" y2="378.65" fill="none" stroke="#fff" stroke-miterlimit="10" stroke-width="2"/>
  <line x1="395.17" y1="302.7" x2="395.17" y2="333.33" fill="none" stroke="#fff" stroke-miterlimit="10" stroke-width="2"/>
  <path d="M484.55,341.86c-40.34,15.16-44.69,9.85-89.37,9.85" fill="none" stroke="#fff" stroke-miterlimit="10" stroke-width="4"/>
  <line x1="189.72" y1="254.19" x2="189.72" y2="279.9" fill="none" stroke="#fff" stroke-miterlimit="10" stroke-width="2"/>
  <polygon points="181.15 262.06 141.94 271.93 143.56 275.48 182.76 265.6 181.15 262.06" fill="none" stroke="#fff" stroke-miterlimit="10"/>
  <line x1="131.27" y1="289.71" x2="116.2" y2="277.21" fill="none" stroke="#fff" stroke-miterlimit="10" stroke-width="2"/>
  <line x1="227.29" y1="276.74" x2="203.34" y2="280.53" fill="none" stroke="#fff" stroke-miterlimit="10"/>
  <line x1="125.96" y1="294.42" x2="110.8" y2="297.01" fill="none" stroke="#fff" stroke-miterlimit="10"/>
  <line x1="105.72" y1="294.55" x2="117.47" y2="277.24" fill="none" stroke="#fff" stroke-miterlimit="10" stroke-width="2"/>
  <line x1="192.09" y1="282.75" x2="132.61" y2="293.11" fill="none" stroke="#fff" stroke-miterlimit="10"/>
  <line x1="113.81" y1="305.55" x2="113.81" y2="318.68" fill="none" stroke="#fff" stroke-miterlimit="10"/>
  <line x1="122.64" y1="325.79" x2="122.64" y2="336.73" fill="none" stroke="#fff" stroke-miterlimit="10"/>
  <line x1="113.81" y1="326.34" x2="113.81" y2="336.18" fill="none" stroke="#fff" stroke-miterlimit="10"/>
  <line x1="207.93" y1="322.51" x2="207.93" y2="342.2" fill="none" stroke="#fff" stroke-miterlimit="10"/>
  <line x1="224.59" y1="321.47" x2="224.59" y2="342.8" fill="none" stroke="#fff" stroke-miterlimit="10"/>
  <line x1="226.34" y1="312.32" x2="206.49" y2="313.01" fill="none" stroke="#fff" stroke-miterlimit="10"/>
  <line x1="226.11" y1="289.92" x2="206.72" y2="292.31" fill="none" stroke="#fff" stroke-miterlimit="10"/>
  <line x1="123.18" y1="325.46" x2="113.26" y2="325.89" fill="none" stroke="#fff" stroke-miterlimit="10"/>
  <line x1="123.18" y1="318.47" x2="113.26" y2="318.9" fill="none" stroke="#fff" stroke-miterlimit="10"/>
  <line x1="123.13" y1="304.33" x2="113.3" y2="305.69" fill="none" stroke="#fff" stroke-miterlimit="10"/>
  <line x1="123.18" y1="336.99" x2="113.26" y2="336.48" fill="none" stroke="#fff" stroke-miterlimit="10"/>
  <line x1="225.78" y1="321.87" x2="207.06" y2="322.9" fill="none" stroke="#fff" stroke-miterlimit="10"/>
  <line x1="225.79" y1="342.43" x2="207.04" y2="341.74" fill="none" stroke="#fff" stroke-miterlimit="10"/>
  <line x1="484.57" y1="341.57" x2="494.45" y2="342.59" fill="none" stroke="#fff" stroke-miterlimit="10" stroke-width="4"/>
  <line x1="405.1" y1="249.81" x2="405.1" y2="349.69" fill="none" stroke="#fff" stroke-miterlimit="10" stroke-width="4"/>
  <line x1="443.92" y1="437.85" x2="98.15" y2="364.46" fill="none" stroke="#fff" stroke-miterlimit="10" stroke-width="2"/>
  <line x1="112.04" y1="396.01" x2="415.48" y2="464.93" fill="none" stroke="#fff" stroke-miterlimit="10" stroke-width="2"/>
  <line x1="226.35" y1="315.28" x2="206.5" y2="315.97" fill="none" stroke="#fff" stroke-miterlimit="10"/>
  <line x1="226.35" y1="345.36" x2="206.5" y2="344.67" fill="none" stroke="#fff" stroke-miterlimit="10"/>
  <line x1="123.18" y1="320.87" x2="113.26" y2="321.29" fill="none" stroke="#fff" stroke-miterlimit="10"/>
  <line x1="123.18" y1="339.18" x2="113.26" y2="338.67" fill="none" stroke="#fff" stroke-miterlimit="10"/>
  <line x1="474.62" y1="305.55" x2="474.62" y2="344.93" fill="none" stroke="#fff" stroke-miterlimit="10" stroke-width="4"/>
  <line x1="456.78" y1="276.46" x2="432.87" y2="296.35" fill="none" stroke="#fff" stroke-miterlimit="10" stroke-width=".7"/>
  <line x1="443.17" y1="277.49" x2="428.82" y2="289.43" fill="none" stroke="#fff" stroke-miterlimit="10" stroke-width=".7"/>
  <line x1="460.91" y1="283.72" x2="444.18" y2="297.64" fill="none" stroke="#fff" stroke-miterlimit="10" stroke-width=".7"/>
  <line x1="459.53" y1="277.56" x2="435.62" y2="297.45" fill="none" stroke="#fff" stroke-miterlimit="10" stroke-width=".7"/>
  <line x1="461.1" y1="279.65" x2="439.57" y2="297.54" fill="none" stroke="#fff" stroke-miterlimit="10" stroke-width=".7"/>
  <line x1="447.72" y1="277.18" x2="429.79" y2="292.11" fill="none" stroke="#fff" stroke-miterlimit="10" stroke-width=".7"/>
  <line x1="452.22" y1="276.87" x2="431.91" y2="293.77" fill="none" stroke="#fff" stroke-miterlimit="10" stroke-width=".7"/>
  <line x1="460.68" y1="287.4" x2="449.92" y2="296.35" fill="none" stroke="#fff" stroke-miterlimit="10" stroke-width=".7"/>
  <line x1="435.02" y1="278.16" x2="423.07" y2="288.1" fill="none" stroke="#fff" stroke-miterlimit="10" stroke-width=".75"/>
  <line x1="431.35" y1="278.55" x2="422.98" y2="285.51" fill="none" stroke="#fff" stroke-miterlimit="10" stroke-width=".7"/>
  <line x1="439.04" y1="277.7" x2="425.89" y2="288.64" fill="none" stroke="#fff" stroke-miterlimit="10" stroke-width=".7"/>
  <path d="M139.64,493.99c-3.11,3.7-7.95,4.26-11.4,1.4-3.53-2.91-3.89-7.54-.66-11.37,3.16-3.76,7.74-4.43,11.4-1.4,3.66,3.03,3.72,7.74.66,11.37Z"/>
  <ellipse cx="293.75" cy="296.33" rx="291.75" ry="294.33" fill="none" stroke="#fff" stroke-miterlimit="10" stroke-width="4"/>
  <path d="M455.25,486.48c3.12,3.69,2.82,8.51-.63,11.38-3.52,2.93-8.18,2.46-11.41-1.36-3.18-3.75-3.02-8.34.63-11.38,3.65-3.04,8.34-2.26,11.41,1.36Z"/>
</svg>
