<?xml version="1.0" encoding="UTF-8"?>
<svg id="uuid-ce0d231c-f47f-4b84-9880-9f51056fcff8" data-name="Capa 2" xmlns="http://www.w3.org/2000/svg" viewBox="0 0 610.31 599.43">
  <ellipse cx="305.16" cy="299.71" rx="213.9" ry="210.06" fill="none" stroke="#fff" stroke-miterlimit="10" stroke-width="4"/>
  <g>
    <path d="M67.1,450.05l10.2-7.27,2.44,3.2c-.85,1.11-1.57,2.14-2.13,3.08-.57.94-.99,1.8-1.27,2.57-.28.77-.42,1.5-.42,2.19s.18,1.38.52,2.07c.34.7.84,1.47,1.48,2.32l7.88,10.3,17.7-12.61-5.33-6.98c-.73-.96-1.44-1.61-2.14-1.95-.7-.34-1.52-.45-2.47-.33-.95.12-2.27.53-3.96,1.23l-2.34-3.07,12.97-9.24,2.34,3.06c-1.12,1.27-1.88,2.33-2.28,3.19-.4.86-.56,1.65-.46,2.37.1.72.54,1.59,1.32,2.61l5.33,6.98,19.49-13.88-7.75-10.14c-.81-1.06-1.57-1.86-2.27-2.39-.7-.53-1.46-.86-2.29-1.01-.83-.15-1.75-.14-2.78.02-1.03.16-2.03.4-3.02.72-.99.32-2.42.81-4.28,1.46l-2.47-3.23,12.33-7.82,23.08,30.19-1.66,1.18c-1.39-1.09-2.48-1.71-3.27-1.85s-1.64,0-2.56.44c-.92.44-2.21,1.25-3.88,2.43l-29.22,20.81c-1.55,1.11-2.64,1.97-3.27,2.58-.63.61-1.04,1.19-1.24,1.72-.2.53-.26,1.09-.19,1.67.08.58.35,1.48.83,2.69l-1.66,1.18-23.31-30.49Z"/>
    <path d="M69.9,400.3l1.79,3.49c-1.23,1.25-2.1,2.45-2.59,3.59-.49,1.14-.68,2.25-.56,3.34s.52,2.3,1.2,3.63c.99,1.94,2.25,3.26,3.78,3.96,1.53.7,3.11.66,4.74-.11,1.15-.55,1.99-1.24,2.51-2.05s.85-1.87,1.01-3.15c.16-1.28.15-3.4-.02-6.36-.16-3-.12-5.39.12-7.18.24-1.79.78-3.36,1.62-4.71.84-1.35,2.11-2.43,3.82-3.24,1.98-.95,3.82-1.41,5.51-1.41s3.27.4,4.73,1.18c1.46.78,2.8,1.9,4.01,3.35,1.21,1.46,2.32,3.15,3.31,5.09,1.04,2.03,1.89,4.08,2.56,6.15.67,2.06,1.21,4.12,1.64,6.18l-7.87,3.75-1.82-3.56c1.98-1.75,3.15-3.52,3.54-5.3.38-1.78,0-3.8-1.15-6.05-.45-.87-.98-1.68-1.59-2.43s-1.31-1.34-2.08-1.79c-.77-.44-1.64-.68-2.59-.71-.95-.03-1.99.23-3.12.77-1.28.61-2.2,1.35-2.75,2.22-.55.87-.9,1.97-1.05,3.3-.14,1.33-.12,3.56.06,6.66.17,2.66.15,4.87-.07,6.63-.22,1.76-.75,3.32-1.59,4.67-.84,1.35-2.1,2.42-3.78,3.23-2.06.98-4.12,1.29-6.19.94-2.07-.35-4.03-1.36-5.87-3.01-1.84-1.65-3.47-3.85-4.87-6.58-.82-1.6-1.53-3.18-2.13-4.75-.6-1.57-1.24-3.59-1.91-6.07l7.68-3.66Z"/>
    <path d="M48.29,363.7l8.37-2.55,1.6,4.91c-1.59.97-2.78,1.92-3.57,2.87s-1.25,1.91-1.37,2.88c-.12.97.02,2.09.43,3.35.59,1.8,1.71,3.22,3.37,4.24s3.84,1.57,6.57,1.63c2.72.06,5.86-.45,9.41-1.53,2.27-.69,4.29-1.48,6.07-2.36,1.78-.88,3.22-1.9,4.31-3.05,1.09-1.15,1.81-2.46,2.15-3.93.34-1.46.22-3.11-.38-4.94-.58-1.78-1.48-3.32-2.7-4.64-1.22-1.31-3.01-2.52-5.36-3.61l1.92-3.01c1.92.86,3.46,1.67,4.6,2.42,1.14.76,2.18,1.63,3.1,2.61.92.98,1.69,1.99,2.31,3.04.62,1.04,1.14,2.22,1.57,3.54,1.59,4.87,1.13,9.1-1.37,12.7-2.51,3.6-6.93,6.36-13.25,8.29-3.95,1.2-7.69,1.55-11.22,1.04-3.53-.51-6.54-1.82-9.05-3.92-2.51-2.1-4.31-4.85-5.43-8.25-.69-2.11-1.2-4.1-1.53-5.97-.33-1.87-.51-3.79-.54-5.76Z"/>
    <path d="M82.72,330.78c.79,5.57-.31,10.04-3.3,13.42-2.98,3.38-7.8,5.5-14.46,6.38-4.58.6-8.55.34-11.93-.78s-6.03-2.92-7.95-5.4c-1.92-2.47-3.12-5.42-3.6-8.85-.81-5.73.31-10.29,3.34-13.69,3.04-3.4,7.79-5.52,14.25-6.37,4.6-.61,8.59-.38,11.96.68,3.37,1.06,6.03,2.83,7.98,5.33,1.95,2.5,3.18,5.59,3.71,9.29ZM63.02,343.1c5.71-.75,9.98-2.21,12.8-4.36,2.82-2.16,3.99-4.87,3.53-8.13-.25-1.79-.92-3.26-2-4.4-1.08-1.14-2.44-2-4.07-2.59-1.64-.59-3.48-.92-5.55-1.01-2.06-.08-4.19.02-6.38.31-4.08.54-7.4,1.42-9.97,2.64-2.57,1.22-4.38,2.67-5.43,4.33-1.05,1.67-1.44,3.46-1.17,5.39.46,3.24,2.26,5.53,5.42,6.87,3.16,1.34,7.42,1.66,12.8.95Z"/>
    <path d="M69.41,295.64c2.41.04,4.08-.04,5.02-.25.94-.2,1.66-.6,2.16-1.2.5-.6.94-1.59,1.33-2.96l2.06.03-.27,16.09-2.06-.03c-.34-1.36-.7-2.3-1.09-2.83-.38-.53-.85-.92-1.39-1.16-.54-.24-1.28-.41-2.22-.52-.94-.11-2.16-.18-3.67-.2l-35.14-.54c-2.69-.04-4.56-.05-5.63-.02-1.06.02-1.97.12-2.71.28-.74.16-1.33.4-1.75.7-.42.3-.77.72-1.03,1.24-.26.52-.53,1.47-.8,2.85l-2.18-.03-.26-9.77.04-2.43,49.58.76Z"/>
    <path d="M76.96,261.66l-.25.58c2.14,2.65,3.59,5.06,4.33,7.25.74,2.18.95,4.42.63,6.73-.28,2.03-.94,3.78-1.98,5.22-1.03,1.45-2.35,2.49-3.95,3.13-1.6.64-3.37.83-5.31.58-4.05-.53-6.91-2.87-8.58-7.02-1.67-4.16-2.14-10.12-1.43-17.91l-2.71-.35c-2.88-.37-5.2-.4-6.94-.08-1.74.32-3.08,1-4.01,2.06-.94,1.05-1.54,2.54-1.81,4.47-.29,2.09.04,3.84,1,5.26.96,1.42,2.53,2.6,4.72,3.54l-.73,5.26-5.41-.7c-1.03-2.75-1.75-5.02-2.16-6.82-.41-1.8-.69-3.58-.82-5.34-.14-1.76-.08-3.53.17-5.29.37-2.65,1.1-4.72,2.2-6.22,1.1-1.49,2.6-2.52,4.52-3.09,1.92-.57,4.69-.62,8.32-.15l14.48,1.88c2.05.27,3.5.44,4.35.52.85.08,1.64.1,2.38.06.74-.04,1.34-.17,1.81-.38.47-.21.89-.56,1.27-1.04.38-.48.82-1.29,1.31-2.43l2.04.26-1.53,11-5.92-.97ZM63.84,260.65c-.7,5.44-.52,9.61.55,12.5,1.07,2.89,3.06,4.53,5.97,4.9,1.58.2,2.87.06,3.87-.44,1-.5,1.74-1.19,2.22-2.08.48-.89.81-1.98.98-3.27.25-1.82.03-3.53-.68-5.14-.71-1.6-1.71-2.91-3.01-3.93-1.3-1.01-2.64-1.61-4.03-1.79l-5.87-.76Z"/>
    <path d="M58.67,189.09c-2.48-1-4.22-1.67-5.22-2.03-1-.36-1.87-.59-2.63-.7-.75-.11-1.39-.1-1.9.03-.51.13-.99.39-1.43.79s-1.05,1.18-1.83,2.36l-2.02-.81,3.51-9.21.95-2.21,44.9,18c2.02.81,3.47,1.35,4.37,1.62.9.27,1.66.39,2.28.35.62-.04,1.21-.27,1.77-.67.55-.41,1.26-1.23,2.13-2.46l2.02.81-3.41,8.99-.97,2.25-6.17-3-.4.5c1.06,2.27,1.77,4.15,2.13,5.66.37,1.51.53,3.02.48,4.54-.05,1.52-.39,3.02-1.04,4.52-1.76,4.09-4.73,6.6-8.9,7.53-4.17.93-9.3.18-15.37-2.26-4.24-1.7-7.53-3.87-9.86-6.5-2.34-2.63-3.7-5.47-4.09-8.51-.39-3.04.08-6.09,1.4-9.16.71-1.65,1.49-3.09,2.34-4.33s1.89-2.44,3.13-3.62l-6.17-2.47ZM77.83,196.77c-2.02-.81-3.67-1.37-4.96-1.68-1.29-.31-2.44-.43-3.44-.35-1,.08-1.94.36-2.81.83-.87.47-1.61,1.07-2.23,1.8-.62.73-1.18,1.68-1.68,2.86-1.37,3.19-1.1,6.16.83,8.89,1.93,2.73,5.38,5.1,10.34,7.09,4.96,1.99,9.03,2.82,12.21,2.48,3.18-.33,5.36-1.9,6.57-4.69.47-1.1.77-2.05.89-2.85.12-.8.11-1.64-.01-2.51-.13-.87-.41-1.82-.85-2.84-.44-1.02-.9-1.83-1.37-2.41-.48-.59-1.08-1.13-1.8-1.62-.73-.5-1.72-1-2.99-1.51l-8.69-3.48Z"/>
    <path d="M120.32,160.41c.59,2.44.93,4.54,1,6.31.07,1.77-.13,3.54-.6,5.31-.47,1.77-1.3,3.52-2.48,5.26-3.15,4.66-6.97,7.27-11.47,7.83-4.5.56-9.58-.94-15.23-4.5-3.49-2.2-6.17-4.74-8.03-7.63s-2.75-5.92-2.7-9.07c.06-3.15,1.07-6.19,3.04-9.11,1.54-2.29,3.23-4,5.07-5.13,1.84-1.14,3.73-1.77,5.68-1.92,1.95-.14,4.1.14,6.44.86,2.34.71,5.13,2.04,8.36,3.98l-14.44,21.39.63.4c2.77,1.74,5.3,2.9,7.59,3.49,2.29.59,4.43.53,6.43-.17,1.99-.7,3.73-2.15,5.21-4.34,1.25-1.86,2.02-3.75,2.31-5.68.28-1.93.11-4.14-.51-6.63l3.68-.63ZM102.19,157.13c-2.62-1.46-4.9-2.45-6.83-2.99-1.93-.53-3.64-.6-5.14-.18-1.5.41-2.77,1.39-3.81,2.93-1.57,2.33-1.86,4.8-.87,7.41s3.2,5.17,6.62,7.67l10.01-14.84Z"/>
    <path d="M133.25,79.34l8.44,9.14-3.07,2.64c-1.23-.72-2.35-1.31-3.37-1.77-1.02-.46-1.95-.79-2.77-.99-.82-.2-1.59-.26-2.29-.2-.71.07-1.41.3-2.09.69-.69.39-1.44.94-2.25,1.64l-9.9,8.52,14.64,15.85,6.71-5.77c.92-.79,1.52-1.54,1.81-2.24.29-.7.33-1.5.11-2.4s-.76-2.13-1.64-3.69l2.95-2.53,10.73,11.62-2.95,2.54c-1.41-.96-2.58-1.59-3.5-1.9-.92-.31-1.75-.38-2.48-.22-.73.16-1.59.66-2.57,1.51l-6.71,5.77,16.12,17.45,9.75-8.39c1.02-.88,1.78-1.68,2.25-2.4.48-.72.76-1.48.84-2.29.08-.81-.01-1.7-.27-2.67-.26-.97-.6-1.92-1.02-2.84-.42-.92-1.06-2.25-1.9-3.98l3.1-2.67,9.21,11.13-29.02,24.97-1.37-1.48c1-1.44,1.53-2.54,1.61-3.31.08-.77-.15-1.58-.69-2.42-.54-.84-1.49-2.01-2.87-3.5l-24.17-26.17c-1.28-1.39-2.27-2.36-2.96-2.91-.69-.55-1.32-.89-1.89-1.04-.57-.15-1.15-.15-1.74-.02-.59.13-1.49.48-2.69,1.04l-1.37-1.48,29.3-25.21Z"/>
    <path d="M211.96,97.16l-14.31,8-1.03-1.72c.78-.81,1.31-1.43,1.59-1.87.28-.44.45-.93.51-1.46.05-.53-.08-1.23-.39-2.1-.31-.87-.95-2.1-1.9-3.69l-5.52-9.19c-.98-1.64-1.92-3.09-2.82-4.37s-1.72-2.28-2.46-3c-.74-.72-1.42-1.23-2.04-1.53-.61-.3-1.25-.49-1.9-.58-.65-.09-1.33-.07-2.03.06s-1.52.45-2.47.98-1.73,1.21-2.36,2.05c-.63.84-1.19,1.98-1.67,3.44-.48,1.46-.7,2.75-.64,3.87.06,1.12.43,2.24,1.1,3.37l7.85,13.08c1.21,2.01,2.14,3.35,2.81,4.03.66.68,1.39,1.06,2.18,1.17s1.9-.04,3.31-.42l1.03,1.72-14.24,7.96-1.03-1.72c.78-.81,1.3-1.43,1.57-1.86s.44-.92.49-1.45c.05-.53-.07-1.22-.38-2.08-.31-.86-.95-2.11-1.93-3.74l-9.18-15.29c-.9-1.5-1.65-2.69-2.24-3.57-.6-.88-1.2-1.52-1.82-1.91-.62-.39-1.31-.55-2.06-.49-.75.06-1.73.31-2.94.73l-1.12-1.86,8.31-5.07,2.22-1.24,3.03,5.94.59-.14c.74-2.76,1.44-4.81,2.09-6.18.65-1.36,1.42-2.57,2.3-3.6.88-1.04,1.95-1.91,3.21-2.61,1.31-.73,2.56-1.24,3.77-1.52,1.2-.28,2.38-.34,3.53-.17,1.15.17,2.25.56,3.3,1.17,1.05.62,2.08,1.48,3.09,2.6s2.1,2.65,3.27,4.59l7.94,13.22c.97,1.61,1.72,2.76,2.25,3.43.53.67,1.04,1.14,1.52,1.4.48.26,1.03.4,1.65.41.62.01,1.59-.15,2.91-.48l1.03,1.72Z"/>
    <path d="M225,67.97l2.87-8.05c.31-.88.51-1.7.62-2.46.11-.77.04-1.49-.21-2.18-.21-.59-.61-1-1.2-1.23-.59-.23-1.39-.28-2.41-.13l-.68-1.87,12.96-4.37.68,1.87c-.9.62-1.73,1.51-2.48,2.68-.75,1.17-1.55,2.91-2.4,5.23l-4.69,12.48,13.29,8.7c1.9,1.25,3.53,2.14,4.89,2.69,1.35.55,2.61.84,3.78.87l.68,1.87-15.94,5.37-.68-1.87c2.1-.99,2.91-2.15,2.43-3.48-.19-.54-.47-1.01-.83-1.44-.36-.42-.91-.87-1.64-1.34l-8.54-5.79-3.34,9.71c-.25.71-.41,1.35-.49,1.9-.08.56-.01,1.13.2,1.71.25.69.7,1.17,1.35,1.46.65.28,1.52.3,2.62.04l.68,1.87-13.24,4.46-.68-1.87c.76-.6,1.41-1.25,1.94-1.94.53-.7,1.03-1.53,1.5-2.5.46-.97,1.04-2.36,1.72-4.16l4.67-12.65-12.48-8.33c-1.72-1.14-3.04-1.94-3.98-2.39-.94-.46-1.76-.77-2.47-.93-.71-.16-1.38-.22-2.02-.18l-.68-1.87,15.54-5.24.68,1.87c-1.98,1.01-2.73,2.15-2.27,3.43.21.59.56,1.13,1.05,1.62.49.49,1.15,1,1.99,1.52l7.2,4.91Z"/>
    <path d="M283.46,71.95c-1.46,2.07-2.84,3.73-4.14,4.98-1.3,1.25-2.79,2.31-4.45,3.17-1.67.86-3.56,1.46-5.69,1.8-5.69.92-10.27-.03-13.74-2.85-3.47-2.82-5.76-7.44-6.88-13.86-.69-3.97-.56-7.59.39-10.87.95-3.28,2.65-5.96,5.09-8.06,2.45-2.09,5.45-3.43,9.01-4.01,2.79-.45,5.24-.41,7.34.13,2.11.54,3.88,1.45,5.31,2.74,1.43,1.29,2.66,3.01,3.71,5.15,1.04,2.15,1.92,5.02,2.63,8.63l-26.09,4.22.13.72c.55,3.14,1.37,5.73,2.48,7.76,1.1,2.03,2.6,3.51,4.48,4.45,1.88.94,4.16,1.2,6.84.76,2.26-.37,4.23-1.1,5.9-2.21,1.67-1.1,3.24-2.72,4.71-4.85l2.98,2.19ZM273.68,56.85c-.67-2.85-1.45-5.14-2.34-6.87-.9-1.73-2.01-2.99-3.34-3.77-1.33-.78-2.93-1.03-4.81-.72-2.84.46-4.92,1.93-6.24,4.4-1.32,2.47-1.77,5.77-1.37,9.9l18.1-2.93Z"/>
    <path d="M331.26,78.96l-16.54-.36.05-1.99c1.1-.3,1.89-.57,2.37-.8s.89-.56,1.22-.99c.33-.42.6-1.09.8-1.99.2-.9.33-2.27.37-4.11l.25-10.61c.04-1.89.03-3.61-.05-5.15-.08-1.54-.24-2.81-.48-3.8-.24-.99-.55-1.77-.91-2.33s-.8-1.04-1.31-1.45c-.51-.4-1.1-.73-1.76-.97s-1.55-.38-2.64-.4-2.13.16-3.12.56c-.99.4-2.08,1.1-3.28,2.1-1.2,1-2.08,1.99-2.63,2.98-.56.99-.85,2.13-.88,3.43l-.36,15.11c-.05,2.32.02,3.94.22,4.85.2.91.61,1.61,1.23,2.09.62.49,1.64.92,3.06,1.3l-.05,1.99-16.46-.36.05-1.99c1.1-.3,1.88-.57,2.35-.8.47-.23.87-.56,1.2-.99.33-.42.6-1.08.8-1.97.2-.89.33-2.28.37-4.17l.42-17.66c.04-1.73.05-3.12.01-4.17-.03-1.05-.21-1.9-.53-2.55-.32-.64-.82-1.13-1.5-1.45-.68-.33-1.64-.61-2.9-.85l.05-2.15,9.83-.15,2.56.06-.62,6.59.58.18c2.12-1.98,3.82-3.39,5.12-4.22,1.29-.84,2.6-1.48,3.91-1.92,1.31-.44,2.7-.65,4.15-.62,1.51.03,2.86.23,4.04.6,1.18.36,2.22.91,3.11,1.63.89.72,1.62,1.61,2.18,2.66.56,1.05.97,2.31,1.23,3.78.26,1.47.36,3.32.31,5.56l-.36,15.27c-.04,1.86-.02,3.22.07,4.06.09.84.27,1.49.54,1.96.27.47.67.86,1.19,1.18.52.32,1.44.67,2.75,1.05l-.05,1.99ZM322.28,23.4l3.24,1.45c-1.12,2.19-2.17,3.88-3.16,5.06-.99,1.18-1.94,1.98-2.83,2.41-.89.43-1.9.63-3.02.6-.76-.02-1.41-.11-1.97-.27-.56-.16-1.1-.39-1.64-.68s-1.37-.83-2.5-1.62c-.74-.5-1.33-.89-1.76-1.17-.43-.28-.88-.51-1.35-.7-.47-.19-.97-.28-1.5-.3-.73-.02-1.34.11-1.84.37s-1,.72-1.52,1.38c-.52.66-1.06,1.54-1.62,2.64l-3.24-1.45c1.4-2.56,2.54-4.34,3.4-5.34.86-.99,1.74-1.7,2.63-2.13s1.95-.63,3.18-.6c.67.02,1.28.1,1.82.26.54.16,1.04.37,1.5.62.46.25,1.23.76,2.34,1.51.8.56,1.43.99,1.9,1.3.47.31.95.55,1.45.74.5.19,1.07.29,1.71.3.9.02,1.7-.29,2.42-.94.71-.65,1.5-1.8,2.35-3.45Z"/>
    <path d="M370.04,79.96c-2.15,1.4-4.07,2.45-5.75,3.15-1.69.7-3.47,1.15-5.35,1.35-1.88.2-3.87.08-5.98-.36-5.64-1.18-9.52-3.7-11.67-7.56-2.14-3.86-2.5-8.97-1.07-15.34.88-3.93,2.39-7.25,4.53-9.96s4.75-4.59,7.82-5.66c3.08-1.07,6.38-1.24,9.91-.5,2.76.58,5.02,1.49,6.77,2.74,1.75,1.25,3.05,2.73,3.88,4.44.83,1.71,1.32,3.75,1.46,6.11s-.15,5.35-.87,8.96l-25.85-5.4-.16.71c-.7,3.12-.92,5.81-.68,8.09.25,2.28,1.06,4.19,2.45,5.74,1.39,1.55,3.4,2.6,6.06,3.15,2.24.47,4.35.49,6.32.06,1.97-.43,4.05-1.37,6.24-2.82l1.93,3.1ZM366.75,62.44c.48-2.89.63-5.29.46-7.22-.17-1.93-.72-3.49-1.65-4.7-.93-1.2-2.33-2-4.19-2.39-2.82-.59-5.31.03-7.48,1.86-2.17,1.83-3.86,4.73-5.07,8.71l17.93,3.75Z"/>
    <path d="M397.09,62.92l.5.32c2.12-1.13,3.99-1.95,5.62-2.45,1.62-.5,3.25-.74,4.88-.72,1.63.02,3.35.37,5.14,1.06,1.51.58,2.84,1.18,4,1.8l-3.56,8.66-4.41-1.69c-.07-1.6-.32-2.83-.77-3.72-.45-.88-1.29-1.56-2.51-2.03-.94-.36-1.98-.45-3.11-.28-1.14.17-2.35.6-3.62,1.27-1.27.68-2.25,1.39-2.94,2.14-.69.75-1.28,1.73-1.77,2.94l-5.42,13.18c-.94,2.28-1.45,3.92-1.52,4.89-.07.98.14,1.79.64,2.45.5.66,1.36,1.35,2.6,2.09l-.76,1.85-15.73-6.03.76-1.85c1.11.08,1.93.09,2.45.02.52-.06,1.02-.23,1.5-.52.48-.28.97-.81,1.46-1.58s1.11-2.03,1.83-3.79l6.76-16.42c.66-1.61,1.17-2.91,1.52-3.91.35-1,.49-1.85.42-2.56-.07-.71-.36-1.33-.88-1.86-.52-.53-1.32-1.12-2.41-1.77l.81-1.96,9.29,3.12,2.38.91-3.14,6.43Z"/>
    <path d="M406.39,99.61c1.12.22,1.94.34,2.47.34.53,0,1.04-.11,1.54-.34.5-.23,1.05-.69,1.65-1.39.6-.7,1.38-1.87,2.33-3.53l8.84-15.47c.86-1.51,1.54-2.75,2.01-3.69.48-.95.73-1.78.75-2.49.02-.71-.19-1.36-.63-1.96-.45-.59-1.17-1.27-2.16-2.05l1.07-1.88,8.75,4.24,2.24,1.19-14.49,25.38c-1.16,2.04-1.87,3.5-2.13,4.4-.26.9-.23,1.7.09,2.41.32.71,1.01,1.55,2.09,2.52l-.99,1.74-14.42-7.67.99-1.74ZM451.05,58.91l-1.01,1.77-18.18,5.23-1.34-3.12,14.1-7.31,6.44,3.42Z"/>
    <path d="M447.81,120.82l-.4-.49c-3.44.52-6.33.56-8.67.13-2.34-.44-4.47-1.35-6.4-2.74-1.7-1.23-2.96-2.63-3.77-4.21s-1.11-3.19-.91-4.85c.2-1.66.89-3.25,2.06-4.76,2.45-3.16,5.95-4.43,10.53-3.82,4.57.61,10.21,3.12,16.91,7.51l1.63-2.11c1.74-2.25,2.89-4.19,3.45-5.81.56-1.62.59-3.08.09-4.38s-1.55-2.53-3.17-3.7c-1.75-1.26-3.5-1.83-5.25-1.71-1.75.12-3.58.87-5.5,2.26l-4.41-3.18,3.27-4.22c2.99.47,5.4.97,7.23,1.49,1.83.53,3.57,1.16,5.24,1.9s3.23,1.65,4.71,2.71c2.22,1.6,3.74,3.23,4.56,4.88.82,1.65,1.02,3.42.6,5.32-.42,1.89-1.72,4.26-3.91,7.09l-8.74,11.3c-1.24,1.6-2.1,2.74-2.59,3.42s-.89,1.34-1.22,1.98c-.32.64-.5,1.21-.54,1.71-.04.5.07,1.02.33,1.58s.77,1.32,1.56,2.29l-1.23,1.59-9.22-6.64,3.76-4.52ZM455.1,110.24c-4.59-3.24-8.45-5.11-11.58-5.62-3.14-.51-5.58.38-7.34,2.65-.96,1.23-1.45,2.39-1.49,3.48-.04,1.09.23,2.05.81,2.88s1.4,1.64,2.48,2.42c1.52,1.1,3.19,1.74,4.98,1.92,1.8.18,3.47-.03,5.02-.63,1.55-.6,2.74-1.44,3.58-2.53l3.54-4.58Z"/>
    <path d="M485.79,150.91c-1.43,1.18-2.43,2.08-3.01,2.72-.58.64-.96,1.22-1.15,1.75-.19.53-.23,1.11-.11,1.74s.47,1.53,1.05,2.68l-1.56,1.29-11.51-13,1.56-1.29c1.47.99,2.6,1.53,3.4,1.62.8.09,1.64-.12,2.52-.61s2.11-1.4,3.69-2.7l27.61-22.77c1.47-1.21,2.49-2.14,3.07-2.8.58-.66.95-1.26,1.11-1.8.16-.54.18-1.1.06-1.68s-.46-1.45-1.02-2.62l1.56-1.29,11.51,13-1.56,1.29c-1.03-.71-1.85-1.17-2.43-1.38-.59-.21-1.16-.28-1.72-.23-.56.05-1.24.31-2.04.78-.8.47-1.94,1.3-3.4,2.52l-27.61,22.77Z"/>
    <path d="M507.25,199.7l-8.67-13.6,1.75-1.04c.86.73,1.52,1.22,1.98,1.49.46.26.97.41,1.52.45.55.04,1.27-.11,2.17-.43.89-.32,2.15-.97,3.77-1.93l9.37-5.56c1.67-.99,3.15-1.94,4.45-2.84,1.3-.9,2.32-1.72,3.05-2.45s1.24-1.4,1.53-2c.29-.6.47-1.22.55-1.85.07-.63.04-1.28-.11-1.96-.15-.67-.51-1.46-1.08-2.35s-1.3-1.64-2.18-2.23-2.08-1.09-3.61-1.52c-1.52-.43-2.86-.6-4.03-.51-1.16.09-2.31.47-3.46,1.15l-13.34,7.92c-2.05,1.22-3.42,2.16-4.1,2.81-.68.66-1.07,1.37-1.15,2.14-.09.77.09,1.83.53,3.18l-1.75,1.04-8.63-13.53,1.75-1.04c.86.73,1.52,1.22,1.97,1.47.46.25.96.4,1.51.44.55.04,1.27-.1,2.15-.42.88-.32,2.16-.97,3.83-1.96l15.59-9.26c1.52-.91,2.74-1.66,3.64-2.26.9-.6,1.54-1.2,1.93-1.81.38-.61.53-1.28.45-2-.09-.73-.36-1.66-.83-2.81l1.9-1.13,5.47,7.88,1.34,2.11-6.07,3.08.16.57c2.87.64,5.03,1.26,6.46,1.85,1.43.59,2.7,1.3,3.79,2.12,1.1.82,2.03,1.83,2.79,3.03.79,1.24,1.35,2.44,1.68,3.6.32,1.15.42,2.29.27,3.41-.14,1.12-.52,2.19-1.13,3.22-.61,1.03-1.48,2.05-2.61,3.05s-2.69,2.1-4.67,3.27l-13.48,8.01c-1.64.98-2.81,1.73-3.49,2.26-.68.53-1.15,1.03-1.41,1.5-.26.47-.39,1.01-.38,1.61s.2,1.53.58,2.8l-1.75,1.04Z"/>
    <path d="M561.74,213.88c2.52-.9,4.27-1.55,5.25-1.95.98-.4,1.79-.8,2.42-1.21.63-.41,1.09-.84,1.37-1.27.28-.43.44-.94.49-1.52.05-.58-.06-1.56-.32-2.93l2.05-.73,3.93,9.05.86,2.24-45.58,16.34c-2.05.73-3.5,1.3-4.34,1.69-.85.39-1.49.81-1.92,1.25-.43.44-.7.99-.82,1.65-.12.66-.06,1.73.18,3.2l-2.05.73-3.84-8.82-.88-2.28,6.63-1.86-.06-.63c-2.37-.96-4.23-1.88-5.56-2.74-1.33-.86-2.52-1.86-3.55-3.01-1.04-1.14-1.85-2.47-2.43-3.99-1.6-4.15-1.2-7.94,1.2-11.37,2.4-3.43,6.68-6.24,12.85-8.45,4.3-1.54,8.24-2.12,11.81-1.73,3.57.39,6.57,1.57,9,3.54s4.24,4.51,5.44,7.62c.64,1.67,1.09,3.24,1.34,4.71.25,1.47.34,3.03.27,4.7l6.26-2.24ZM542.3,220.86c2.05-.73,3.65-1.41,4.82-2.03,1.16-.62,2.09-1.29,2.77-2.01.68-.72,1.17-1.54,1.47-2.45.3-.92.42-1.85.36-2.79-.06-.94-.33-2.01-.78-3.2-1.25-3.24-3.54-5.23-6.89-5.96-3.34-.73-7.53-.19-12.57,1.61-5.04,1.81-8.6,3.88-10.69,6.21-2.09,2.33-2.59,4.92-1.49,7.76.43,1.11.88,2,1.36,2.67.48.66,1.07,1.27,1.78,1.83.71.55,1.58,1.06,2.62,1.52,1.04.46,1.95.75,2.71.87.76.12,1.58.12,2.46,0s1.96-.4,3.25-.86l8.82-3.16Z"/>
    <path d="M563.71,237.3l1.93,11.4-21.09,3.32c-3.23.51-5.67,1.02-7.31,1.52-1.65.51-2.86,1.06-3.63,1.68-.77.61-1.38,1.41-1.81,2.38-.43.97-.52,2.23-.26,3.78.17,1.01.54,1.95,1.12,2.82.57.87,1.47,1.79,2.7,2.78,1.23.98,2.4,1.64,3.5,1.97,1.11.33,2.34.39,3.69.18l15.54-2.45c1.58-.25,2.76-.47,3.54-.68.79-.21,1.41-.44,1.86-.7.45-.26.81-.54,1.07-.85.26-.3.48-.71.65-1.21.17-.51.3-1.3.41-2.38l2.03-.32,1.93,11.4-28.3,4.45c-2.13.33-3.65.62-4.58.84-.93.23-1.64.52-2.15.87-.51.35-.89.84-1.14,1.45s-.41,1.67-.47,3.15l-2.16.34-1.96-9.09-.41-2.44,6.84-.83.06-.63c-2.86-1.82-5.04-3.65-6.54-5.48-1.5-1.83-2.42-3.76-2.76-5.79-.41-2.43-.25-4.5.48-6.23.73-1.73,2.02-3.14,3.86-4.22,1.84-1.08,4.56-1.91,8.15-2.47l15.66-2.46c2.32-.37,3.9-.7,4.74-1.01.84-.31,1.47-.75,1.9-1.33.43-.57.72-1.72.89-3.44l2.03-.32Z"/>
    <path d="M561.18,315.07l.06-3.89c1.69-.57,3.02-1.25,4-2.05.98-.8,1.67-1.7,2.08-2.72.41-1.02.62-2.28.65-3.76.04-2.16-.46-3.89-1.49-5.19-1.03-1.3-2.45-1.96-4.27-1.99-1.29-.02-2.35.22-3.2.72-.85.5-1.64,1.29-2.39,2.35-.75,1.07-1.74,2.96-2.99,5.67-1.28,2.74-2.45,4.85-3.51,6.33-1.06,1.48-2.28,2.64-3.67,3.47s-3.03,1.23-4.93,1.2c-2.21-.03-4.07-.43-5.56-1.18s-2.72-1.8-3.64-3.14c-.93-1.34-1.59-2.92-1.98-4.75s-.57-3.83-.53-5.99c.04-2.27.25-4.47.63-6.6.38-2.13.87-4.2,1.47-6.22l8.77.13-.07,3.97c-2.59.69-4.47,1.74-5.66,3.16-1.19,1.41-1.8,3.38-1.84,5.89-.02.97.07,1.93.27,2.86.19.94.53,1.77,1.01,2.51.48.74,1.13,1.33,1.97,1.77.83.45,1.88.68,3.14.7,1.43.02,2.59-.23,3.5-.76s1.74-1.35,2.5-2.47c.76-1.12,1.79-3.11,3.1-5.95,1.1-2.44,2.17-4.4,3.2-5.87,1.03-1.47,2.24-2.62,3.63-3.45,1.39-.83,3.02-1.23,4.89-1.2,2.29.04,4.28.67,5.95,1.89,1.67,1.23,2.94,2.98,3.8,5.27.86,2.28,1.26,4.95,1.21,8-.03,1.78-.15,3.5-.36,5.16-.21,1.66-.6,3.74-1.17,6.24l-8.56-.13Z"/>
    <path d="M567.65,324.17c.03,1.37.26,2.5.69,3.41.43.9,1.05,1.65,1.86,2.24.8.59,1.85,1.1,3.12,1.55,1.28.45,3.16.99,5.63,1.63l-.83,5.7-10.27-1.4-1.9,12.96-4.2-.57,1.9-12.96-18.5-2.52c-2.69-.37-4.85-.55-6.47-.55-1.63,0-2.93.23-3.92.69-.99.46-1.73,1.05-2.23,1.74-.5.7-.83,1.63-1,2.81-.16,1.07-.08,2.1.25,3.1.32,1,.84,2.01,1.57,3.04l-2.51,1.5c-1.63-2.16-2.76-4.15-3.37-5.96s-.78-3.63-.52-5.45c.5-3.45,1.94-5.87,4.31-7.27s5.81-1.79,10.33-1.17l23.07,3.14.87-5.94,2.12.29Z"/>
    <path d="M554.53,366.6l-.28.51c1.39,1.92,2.43,3.63,3.12,5.13.69,1.5,1.11,3.04,1.26,4.61.16,1.57-.02,3.25-.54,5.05-.44,1.51-.91,2.85-1.43,4.03l-9.3-2.5,1.27-4.41c1.64-.23,2.89-.61,3.75-1.14.86-.53,1.47-1.4,1.83-2.62.27-.94.26-1.94-.04-3.02s-.87-2.19-1.7-3.34c-.83-1.15-1.67-2.01-2.52-2.59s-1.92-1.04-3.22-1.39l-14.16-3.81c-2.45-.66-4.19-.97-5.2-.94s-1.83.33-2.45.88c-.62.55-1.25,1.45-1.87,2.71l-1.98-.53,4.54-15.73,1.98.53c.04,1.08.12,1.86.24,2.36.12.49.35.96.69,1.38.34.43.93.84,1.78,1.24.85.4,2.21.85,4.1,1.36l17.63,4.74c1.73.46,3.12.81,4.19,1.04,1.07.23,1.96.28,2.69.13.72-.14,1.33-.49,1.83-1.04.49-.56,1.02-1.39,1.57-2.5l2.1.57-2.23,9.24-.69,2.38-6.95-2.33Z"/>
    <path d="M517.73,379.47c-.11,1.1-.13,1.9-.08,2.4.06.5.23.98.52,1.44.29.45.83.93,1.61,1.44.78.5,2.08,1.12,3.89,1.84l16.91,6.77c1.65.66,3,1.17,4.03,1.52s1.91.5,2.65.45c.74-.06,1.38-.33,1.94-.82.56-.49,1.18-1.26,1.87-2.3l2.06.82-3.4,8.86-.98,2.28-27.73-11.11c-2.22-.89-3.81-1.41-4.76-1.56-.95-.15-1.78-.03-2.47.35-.69.38-1.48,1.14-2.37,2.28l-1.9-.76,6.31-14.67,1.9.76ZM563.5,410.35l-7.52-3.01,2.96-6.89,7.52,3.01-2.96,6.89Z"/>
    <path d="M500.51,421.56l.46-.44c-.92-3.24-1.29-6.01-1.11-8.3.19-2.29.88-4.44,2.1-6.44,1.07-1.77,2.37-3.14,3.91-4.09,1.53-.95,3.16-1.43,4.89-1.42,1.73,0,3.44.48,5.13,1.44,3.53,1.99,5.24,5.21,5.12,9.66-.12,4.45-2.06,10.14-5.82,17.06l2.36,1.33c2.51,1.42,4.64,2.3,6.37,2.65,1.73.35,3.24.21,4.52-.41,1.28-.62,2.43-1.77,3.45-3.45,1.1-1.82,1.49-3.56,1.17-5.23-.32-1.67-1.3-3.34-2.95-5.02l2.77-4.59,4.71,2.66c-.15,2.92-.39,5.29-.72,7.1-.33,1.81-.79,3.56-1.37,5.24-.58,1.68-1.33,3.29-2.26,4.82-1.4,2.31-2.9,3.95-4.51,4.92s-3.41,1.36-5.4,1.18c-2-.18-4.58-1.17-7.74-2.95l-12.62-7.11c-1.79-1.01-3.06-1.71-3.81-2.1-.75-.39-1.48-.71-2.18-.94-.7-.24-1.31-.34-1.82-.32-.52.02-1.04.19-1.59.49-.54.31-1.27.89-2.18,1.75l-1.78-1,5.8-9.59,5.08,3.09ZM512.22,427.36c2.82-4.76,4.31-8.68,4.48-11.74.17-3.06-1.02-5.31-3.56-6.74-1.38-.78-2.63-1.12-3.75-1.03-1.12.09-2.08.45-2.88,1.1s-1.53,1.53-2.21,2.65c-.96,1.59-1.43,3.25-1.42,5s.42,3.33,1.22,4.74c.8,1.42,1.8,2.47,3.01,3.15l5.11,2.88Z"/>
    <path d="M487.84,446.08c-1.9-1.43-3.29-2.34-4.16-2.72-.88-.39-1.7-.49-2.48-.3s-1.74.72-2.91,1.59l-1.62-1.22,10.25-12.69,1.62,1.22c-.57,1.28-.87,2.25-.9,2.89s.1,1.22.39,1.73c.28.5.77,1.07,1.45,1.7.68.63,1.61,1.4,2.81,2.29l27.72,20.85c2.12,1.6,3.61,2.69,4.48,3.29.86.6,1.65,1.05,2.34,1.35.7.3,1.31.45,1.84.46.53,0,1.06-.13,1.59-.39s1.34-.87,2.42-1.8l1.72,1.3-5.89,7.95-1.55,1.92-39.11-29.42Z"/>
  </g>
  <ellipse cx="305.15" cy="299.72" rx="303.15" ry="297.71" fill="none" stroke="#fff" stroke-miterlimit="10" stroke-width="4"/>
  <g>
    <path d="M218.41,548.73c-1.28,2.89-2.66,5.26-4.14,7.13-1.4,1.77-2.97,3.21-4.69,4.31-1.57.98-3.29,1.66-5.14,2.04-1.86.38-3.92.42-6.2.14-2.28-.28-4.79-.99-7.53-2.13-3.32-1.37-6.01-2.91-8.07-4.61-2.06-1.7-3.5-3.68-4.33-5.95-.83-2.27-1.09-4.65-.8-7.15.3-2.5,1.2-5.45,2.72-8.87l11.61-26.14c.92-2.07,1.47-3.49,1.66-4.28.19-.79.24-1.44.17-1.98s-.29-1.05-.65-1.56c-.36-.51-1.14-1.21-2.33-2.11l.87-1.95,17.29,7.15-.86,1.95c-1.7-.26-2.96-.29-3.77-.08-.81.21-1.53.74-2.16,1.57-.63.84-1.43,2.34-2.39,4.51l-12.49,28.13c-1.14,2.57-1.82,4.84-2.03,6.82-.21,1.98-.03,3.67.56,5.05.59,1.39,1.48,2.59,2.69,3.6,1.21,1.02,2.85,1.95,4.94,2.82,1.92.79,3.75,1.17,5.5,1.12,1.74-.05,3.39-.53,4.96-1.45,1.56-.92,2.95-2.27,4.17-4.06,1.22-1.79,2.55-4.31,3.99-7.57l11.03-24.83c1.02-2.3,1.61-3.93,1.75-4.87s.05-1.75-.29-2.42c-.33-.67-1.25-1.56-2.73-2.68l.86-1.95,16.42,6.79-.86,1.95c-1.77-.26-3.05-.28-3.85-.04-.8.23-1.51.75-2.13,1.56-.62.81-1.41,2.3-2.38,4.47l-11.35,25.55Z"/>
    <path d="M258.91,518.74l-.38,2.09c-1.39,0-2.47.11-3.24.33s-1.39.61-1.85,1.18c-.47.57-.8,1.37-.99,2.42-.18.97-.25,2.03-.22,3.19.03,1.16.14,2.48.33,3.94l3.97,36.49,19.06-32.83c.27-.51.55-1.05.84-1.61.28-.57.55-1.12.78-1.67.24-.54.41-1.03.54-1.44s.22-.81.28-1.18c.31-1.7.13-3.01-.53-3.93-.67-.92-1.94-1.68-3.83-2.3l.38-2.09,18.52,3.15-.38,2.09c-1.26.08-2.3.32-3.14.74-.83.41-1.72,1.16-2.66,2.23-.94,1.07-2.16,2.82-3.67,5.26l-26.93,44.05-5.78-.98-6.18-49.99c-.32-2.72-.68-4.67-1.06-5.87-.39-1.19-.88-2.13-1.49-2.8-.6-.67-1.5-1.26-2.68-1.75l.38-2.09,19.94,3.4Z"/>
    <path d="M308.05,571.4c-.01,1.93.05,3.34.18,4.24.13.89.35,1.6.66,2.12.31.52.77.95,1.38,1.3.61.35,1.6.7,2.97,1.05v2.12s-18.91-.09-18.91-.09v-2.12c1.86-.45,3.11-.96,3.74-1.52.63-.56,1.04-1.36,1.24-2.39.2-1.04.3-2.62.32-4.75l.19-37.39c.01-1.99-.06-3.44-.2-4.35-.14-.91-.39-1.62-.73-2.12-.34-.5-.79-.91-1.36-1.22-.57-.31-1.54-.65-2.91-1.03v-2.12s18.91.09,18.91.09v2.12c-1.33.31-2.28.62-2.86.94-.58.32-1.05.71-1.4,1.18s-.6,1.19-.77,2.14c-.17.95-.26,2.42-.27,4.41l-.19,37.39Z"/>
    <path d="M372.85,575.01l-3.29,1.45-3.8-2.81c-1.72,1.44-3.58,2.6-5.58,3.47-2,.87-4.35,1.53-7.06,1.96-7.45,1.19-13.49-.38-18.1-4.71-4.62-4.33-7.76-11.36-9.42-21.08-1.04-6.05-.92-11.54.36-16.44,1.28-4.91,3.64-8.9,7.07-11.97,3.44-3.07,7.76-5.03,12.98-5.86,2.74-.44,5.4-.71,7.99-.82,2.58-.11,5.49-.04,8.71.21l2.01,11.73-4.37.7c-1.23-2.43-2.52-4.28-3.85-5.54-1.34-1.26-2.82-2.07-4.44-2.44-1.62-.37-3.6-.37-5.92,0-3.21.51-5.85,1.96-7.93,4.33s-3.45,5.61-4.12,9.71c-.68,4.1-.54,8.89.4,14.37.96,5.57,2.34,10.24,4.15,14.01s4.01,6.48,6.59,8.13c2.58,1.65,5.51,2.21,8.78,1.69,3.47-.55,5.93-1.7,7.36-3.43,1.43-1.73,1.88-4.12,1.36-7.16l-.44-2.56c-.44-2.56-.9-4.38-1.37-5.48s-1.12-1.9-1.93-2.41c-.82-.51-2.07-.84-3.75-.98l-.36-2.09,17.85-2.85.36,2.09c-1,.51-1.73,1.03-2.18,1.55-.46.53-.77,1.14-.93,1.84-.17.7-.22,1.53-.16,2.5.06.97.24,2.33.54,4.1l2.53,14.8Z"/>
    <path d="M416.92,561.43c-3.31,1.33-6.54,2.03-9.71,2.07-3.17.05-6.2-.65-9.11-2.08-2.9-1.43-5.64-3.66-8.2-6.69-2.56-3.03-4.88-6.95-6.97-11.76-2.57-5.93-3.84-11.4-3.82-16.41.03-5.01,1.3-9.33,3.82-12.96,2.52-3.63,6.08-6.37,10.68-8.23,4.9-1.98,9.48-2.6,13.73-1.87,4.25.74,8.1,2.79,11.55,6.16,3.45,3.37,6.44,7.96,8.97,13.78,2.7,6.22,4.01,11.86,3.94,16.92-.07,5.06-1.4,9.36-3.99,12.91s-6.22,6.27-10.91,8.16ZM390.96,538.41c3.54,8.16,7.46,13.87,11.78,17.12,4.31,3.26,8.83,3.93,13.57,2.01,3-1.21,5.15-3.17,6.44-5.86,1.29-2.69,1.69-6.03,1.19-10.02-.5-3.98-1.78-8.36-3.84-13.11-2.51-5.79-5.21-10.35-8.09-13.67-2.88-3.32-5.76-5.41-8.63-6.28s-5.71-.74-8.52.4c-2.48,1-4.36,2.42-5.66,4.25-1.29,1.83-2.08,4.02-2.35,6.55-.28,2.53-.05,5.37.68,8.51.73,3.14,1.88,6.51,3.43,10.09Z"/>
  </g>
  <line x1="286.72" y1="224.56" x2="286.72" y2="371.18" fill="none" stroke="#fff" stroke-miterlimit="10" stroke-width="4"/>
  <line x1="422.02" y1="254.83" x2="287.38" y2="226.73" fill="none" stroke="#fff" stroke-miterlimit="10" stroke-width="4"/>
  <line x1="286.65" y1="369.48" x2="419.54" y2="354.8" fill="none" stroke="#fff" stroke-miterlimit="10" stroke-width="4"/>
  <line x1="297.29" y1="258.54" x2="410.54" y2="276.28" fill="none" stroke="#fff" stroke-miterlimit="10" stroke-width="2"/>
  <line x1="297.04" y1="285.68" x2="410.54" y2="296.75" fill="none" stroke="#fff" stroke-miterlimit="10" stroke-width="2"/>
  <line x1="297.04" y1="257.54" x2="297.04" y2="286.75" fill="none" stroke="#fff" stroke-miterlimit="10" stroke-width="2"/>
  <line x1="323.41" y1="262.45" x2="323.41" y2="289" fill="none" stroke="#fff" stroke-miterlimit="10"/>
  <line x1="347.14" y1="265.77" x2="347.14" y2="290.11" fill="none" stroke="#fff" stroke-miterlimit="10"/>
  <line x1="358.95" y1="267.43" x2="358.95" y2="292.88" fill="none" stroke="#fff" stroke-miterlimit="10"/>
  <line x1="369.84" y1="268.99" x2="369.84" y2="293.33" fill="none" stroke="#fff" stroke-miterlimit="10"/>
  <line x1="335.45" y1="263.55" x2="335.45" y2="289" fill="none" stroke="#fff" stroke-miterlimit="10"/>
  <line x1="380.73" y1="270.52" x2="380.73" y2="294.87" fill="none" stroke="#fff" stroke-miterlimit="10"/>
  <line x1="389.91" y1="273.08" x2="389.91" y2="295.21" fill="none" stroke="#fff" stroke-miterlimit="10"/>
  <line x1="310.8" y1="260.79" x2="310.8" y2="286.24" fill="none" stroke="#fff" stroke-miterlimit="10"/>
  <line x1="397.93" y1="274.19" x2="397.93" y2="296.32" fill="none" stroke="#fff" stroke-miterlimit="10"/>
  <line x1="297.04" y1="300.8" x2="297.04" y2="345.62" fill="none" stroke="#fff" stroke-miterlimit="10" stroke-width="2"/>
  <line x1="295.89" y1="316.11" x2="410.54" y2="316.11" fill="none" stroke="#fff" stroke-miterlimit="10" stroke-width="1.5"/>
  <line x1="295.93" y1="345.37" x2="410.73" y2="335.92" fill="none" stroke="#fff" stroke-miterlimit="10" stroke-width="2"/>
  <line x1="297.18" y1="301.91" x2="410.46" y2="308.07" fill="none" stroke="#fff" stroke-miterlimit="10" stroke-width="2"/>
  <line x1="400.23" y1="306.82" x2="400.23" y2="336.7" fill="none" stroke="#fff" stroke-miterlimit="10"/>
  <line x1="287.04" y1="369.58" x2="101.57" y2="351.39" fill="none" stroke="#fff" stroke-miterlimit="10" stroke-width="4"/>
  <path d="M451.82,256.36c-11.28,0-21.85,1.46-30.96,4.01v51.74c9.1,2.55,19.67,4.01,30.96,4.01,15.86,0,30.33-2.88,41.28-7.61v-44.53c-10.95-4.74-25.42-7.61-41.28-7.61Z" fill="none" stroke="#fff" stroke-miterlimit="10" stroke-width="4"/>
  <line x1="286.72" y1="226.48" x2="100.98" y2="276.28" fill="none" stroke="#fff" stroke-miterlimit="10" stroke-width="4"/>
  <line x1="441.5" y1="316.11" x2="441.5" y2="355.95" fill="none" stroke="#fff" stroke-miterlimit="10" stroke-width="2"/>
  <line x1="447.23" y1="316.11" x2="447.23" y2="355.95" fill="none" stroke="#fff" stroke-miterlimit="10" stroke-width="2"/>
  <line x1="474.75" y1="315.46" x2="474.75" y2="355.3" fill="none" stroke="#fff" stroke-miterlimit="10" stroke-width="2"/>
  <line x1="480.48" y1="312.92" x2="480.48" y2="352.75" fill="none" stroke="#fff" stroke-miterlimit="10" stroke-width="2"/>
  <line x1="368.12" y1="306.28" x2="368.12" y2="339.47" fill="none" stroke="#fff" stroke-miterlimit="10"/>
  <line x1="346.34" y1="304.62" x2="346.34" y2="341.13" fill="none" stroke="#fff" stroke-miterlimit="10"/>
  <line x1="323.41" y1="303.51" x2="323.41" y2="342.24" fill="none" stroke="#fff" stroke-miterlimit="10"/>
  <line x1="385.32" y1="306.16" x2="385.32" y2="337.14" fill="none" stroke="#fff" stroke-miterlimit="10"/>
  <line x1="177.8" y1="468.93" x2="508" y2="369.34" fill="none" stroke="#fff" stroke-miterlimit="10" stroke-width="2"/>
  <line x1="200.16" y1="482.65" x2="499.4" y2="384.17" fill="none" stroke="#fff" stroke-miterlimit="10" stroke-width="2"/>
  <line x1="161.45" y1="455.88" x2="512.29" y2="356.29" fill="none" stroke="#fff" stroke-miterlimit="10" stroke-width="2"/>
  <line x1="150.22" y1="442.38" x2="512.63" y2="347.21" fill="none" stroke="#fff" stroke-miterlimit="10" stroke-width="2"/>
  <line x1="137.18" y1="431.63" x2="436.25" y2="355.76" fill="none" stroke="#fff" stroke-miterlimit="10" stroke-width="2"/>
  <line x1="127.91" y1="417.88" x2="341.68" y2="364.43" fill="none" stroke="#fff" stroke-miterlimit="10" stroke-width="2"/>
  <line x1="119.67" y1="405.76" x2="277.89" y2="368.13" fill="none" stroke="#fff" stroke-miterlimit="10" stroke-width="2"/>
  <line x1="114.26" y1="391.35" x2="236.74" y2="364.81" fill="none" stroke="#fff" stroke-miterlimit="10" stroke-width="2"/>
  <line x1="107.45" y1="378.42" x2="198.15" y2="360.03" fill="none" stroke="#fff" stroke-miterlimit="10" stroke-width="2"/>
  <line x1="110.15" y1="386.38" x2="450.67" y2="454.99" fill="none" stroke="#fff" stroke-miterlimit="10" stroke-width="2"/>
  <line x1="98.69" y1="355.4" x2="474.75" y2="426.22" fill="none" stroke="#fff" stroke-miterlimit="10" stroke-width="2"/>
  <line x1="235.12" y1="365.37" x2="485.07" y2="411.84" fill="none" stroke="#fff" stroke-miterlimit="10" stroke-width="2"/>
  <line x1="310.38" y1="365.91" x2="493.09" y2="397.49" fill="none" stroke="#fff" stroke-miterlimit="10" stroke-width="2"/>
  <line x1="503.41" y1="346.54" x2="503.41" y2="295.64" fill="none" stroke="#fff" stroke-miterlimit="10" stroke-width="4"/>
  <line x1="245.44" y1="274.51" x2="245.44" y2="364.14" fill="none" stroke="#fff" stroke-miterlimit="10" stroke-width="3"/>
  <line x1="204.17" y1="280.7" x2="204.17" y2="361.48" fill="none" stroke="#fff" stroke-miterlimit="10" stroke-width="3"/>
  <line x1="134.22" y1="293.98" x2="134.23" y2="353.74" fill="none" stroke="#fff" stroke-miterlimit="10" stroke-width="3"/>
  <line x1="111.3" y1="296.8" x2="111.3" y2="350.92" fill="none" stroke="#fff" stroke-miterlimit="10" stroke-width="3"/>
  <line x1="248.03" y1="274.16" x2="108.7" y2="298.32" fill="none" stroke="#fff" stroke-miterlimit="10" stroke-width="2"/>
  <line x1="197.89" y1="257.77" x2="139.36" y2="272.9" fill="none" stroke="#fff" stroke-miterlimit="10" stroke-width="2"/>
  <line x1="173.76" y1="310.15" x2="173.44" y2="357.06" fill="none" stroke="#fff" stroke-miterlimit="10" stroke-width="2"/>
  <line x1="152.62" y1="312.03" x2="152.29" y2="355.62" fill="none" stroke="#fff" stroke-miterlimit="10" stroke-width="2"/>
  <line x1="194.35" y1="307.38" x2="194.02" y2="362.04" fill="none" stroke="#fff" stroke-miterlimit="10" stroke-width="2"/>
  <line x1="437.35" y1="240.31" x2="408.95" y2="252.74" fill="none" stroke="#fff" stroke-miterlimit="10" stroke-width="2"/>
  <line x1="446.46" y1="256.24" x2="436.52" y2="241.23" fill="none" stroke="#fff" stroke-miterlimit="10" stroke-width="2"/>
  <line x1="410.54" y1="275.17" x2="410.54" y2="307.26" fill="none" stroke="#fff" stroke-miterlimit="10" stroke-width="2"/>
  <line x1="494.24" y1="244.86" x2="480.48" y2="258.14" fill="none" stroke="#fff" stroke-miterlimit="10" stroke-width="2"/>
  <line x1="514.3" y1="277.38" x2="492.52" y2="245.29" fill="none" stroke="#fff" stroke-miterlimit="10" stroke-width="3"/>
  <line x1="503.41" y1="296.75" x2="513.73" y2="275.72" fill="none" stroke="#fff" stroke-miterlimit="10" stroke-width="4"/>
  <line x1="158.47" y1="311.81" x2="158.14" y2="357.61" fill="none" stroke="#fff" stroke-miterlimit="10" stroke-width="2"/>
  <line x1="179.11" y1="309.04" x2="178.77" y2="358.16" fill="none" stroke="#fff" stroke-miterlimit="10" stroke-width="2"/>
  <line x1="138.75" y1="314.02" x2="138.42" y2="356.07" fill="none" stroke="#fff" stroke-miterlimit="10" stroke-width="2"/>
  <path d="M195.02,308.25c-4.93-3.59-12.14-2.92-16.12,1.48" fill="none" stroke="#fff" stroke-miterlimit="10" stroke-width="2"/>
  <path d="M153.15,313.28c-4.56-3.14-11.22-2.56-14.9,1.29" fill="none" stroke="#fff" stroke-miterlimit="10" stroke-width="2"/>
  <path d="M174.36,311.12c-4.93-3.59-12.14-2.92-16.12,1.48" fill="none" stroke="#fff" stroke-miterlimit="10" stroke-width="2"/>
  <line x1="215.63" y1="296.1" x2="215.63" y2="316.01" fill="none" stroke="#fff" stroke-miterlimit="10"/>
  <line x1="233.98" y1="293.55" x2="233.98" y2="315.68" fill="none" stroke="#fff" stroke-miterlimit="10"/>
  <line x1="140.19" y1="271.97" x2="140.19" y2="291.89" fill="none" stroke="#fff" stroke-miterlimit="10" stroke-width="2"/>
  <line x1="127.35" y1="308.21" x2="127.35" y2="322.05" fill="none" stroke="#fff" stroke-miterlimit="10"/>
  <polygon points="203.54 295.28 133.18 304.76 134.62 308.48 204.98 299 203.54 295.28" fill="none" stroke="#fff" stroke-miterlimit="10"/>
  <line x1="102.69" y1="274.19" x2="102.7" y2="353.86" fill="none" stroke="#fff" stroke-miterlimit="10" stroke-width="4"/>
  <line x1="206.21" y1="280.75" x2="223.9" y2="259.89" fill="none" stroke="#fff" stroke-miterlimit="10"/>
  <line x1="115.32" y1="296.28" x2="121.94" y2="286.39" fill="none" stroke="#fff" stroke-miterlimit="10"/>
  <line x1="142.42" y1="258.67" x2="111.13" y2="267.58" fill="none" stroke="#fff" stroke-miterlimit="10" stroke-width="2"/>
  <line x1="256.03" y1="227.97" x2="203.72" y2="241.85" fill="none" stroke="#fff" stroke-miterlimit="10" stroke-width="2"/>
  <line x1="405.27" y1="275.17" x2="405.27" y2="296.2" fill="none" stroke="#fff" stroke-miterlimit="10"/>
  <line x1="223.6" y1="253.99" x2="200.1" y2="282.21" fill="none" stroke="#fff" stroke-miterlimit="10" stroke-width="2"/>
  <line x1="274.11" y1="237.34" x2="274.11" y2="357.95" fill="none" stroke="#fff" stroke-miterlimit="10" stroke-width="2"/>
  <line x1="255.76" y1="247.51" x2="255.76" y2="354.84" fill="none" stroke="#fff" stroke-miterlimit="10" stroke-width="2"/>
  <line x1="247.45" y1="274.34" x2="222.23" y2="253.87" fill="none" stroke="#fff" stroke-miterlimit="10" stroke-width="2"/>
  <line x1="131.79" y1="294.06" x2="121.53" y2="286.02" fill="none" stroke="#fff" stroke-miterlimit="10"/>
  <line x1="223.35" y1="260.07" x2="242.88" y2="275.35" fill="none" stroke="#fff" stroke-miterlimit="10"/>
  <line x1="356.51" y1="360.6" x2="501.72" y2="382.98" fill="none" stroke="#fff" stroke-miterlimit="10" stroke-width="2"/>
  <line x1="410.54" y1="306.16" x2="410.54" y2="337.14" fill="none" stroke="#fff" stroke-miterlimit="10" stroke-width="2"/>
  <path d="M503.41,345.77c-41.92,15.34-46.43,9.96-92.87,9.96" fill="none" stroke="#fff" stroke-miterlimit="10" stroke-width="4"/>
  <line x1="197.06" y1="257.09" x2="197.06" y2="283.09" fill="none" stroke="#fff" stroke-miterlimit="10" stroke-width="2"/>
  <polygon points="188.15 265.05 147.42 275.04 149.09 278.62 189.83 268.63 188.15 265.05" fill="none" stroke="#fff" stroke-miterlimit="10"/>
  <line x1="136.33" y1="293.02" x2="120.67" y2="280.37" fill="none" stroke="#fff" stroke-miterlimit="10" stroke-width="2"/>
  <line x1="236.1" y1="279.9" x2="211.21" y2="283.74" fill="none" stroke="#fff" stroke-miterlimit="10"/>
  <line x1="130.8" y1="297.78" x2="115.05" y2="300.4" fill="none" stroke="#fff" stroke-miterlimit="10"/>
  <line x1="109.77" y1="297.91" x2="121.99" y2="280.41" fill="none" stroke="#fff" stroke-miterlimit="10" stroke-width="2"/>
  <line x1="199.53" y1="285.98" x2="137.72" y2="296.46" fill="none" stroke="#fff" stroke-miterlimit="10"/>
  <line x1="118.18" y1="309.04" x2="118.18" y2="322.32" fill="none" stroke="#fff" stroke-miterlimit="10"/>
  <line x1="127.35" y1="329.51" x2="127.35" y2="340.58" fill="none" stroke="#fff" stroke-miterlimit="10"/>
  <line x1="118.18" y1="330.07" x2="118.18" y2="340.03" fill="none" stroke="#fff" stroke-miterlimit="10"/>
  <line x1="215.98" y1="326.19" x2="215.98" y2="346.11" fill="none" stroke="#fff" stroke-miterlimit="10"/>
  <line x1="233.29" y1="325.14" x2="233.29" y2="346.72" fill="none" stroke="#fff" stroke-miterlimit="10"/>
  <line x1="235.11" y1="315.89" x2="214.49" y2="316.59" fill="none" stroke="#fff" stroke-miterlimit="10"/>
  <line x1="234.87" y1="293.23" x2="214.73" y2="295.65" fill="none" stroke="#fff" stroke-miterlimit="10"/>
  <line x1="127.91" y1="329.18" x2="117.61" y2="329.61" fill="none" stroke="#fff" stroke-miterlimit="10"/>
  <line x1="127.91" y1="322.11" x2="117.61" y2="322.54" fill="none" stroke="#fff" stroke-miterlimit="10"/>
  <line x1="127.87" y1="307.8" x2="117.65" y2="309.19" fill="none" stroke="#fff" stroke-miterlimit="10"/>
  <line x1="127.91" y1="340.85" x2="117.61" y2="340.33" fill="none" stroke="#fff" stroke-miterlimit="10"/>
  <line x1="234.53" y1="325.55" x2="215.07" y2="326.59" fill="none" stroke="#fff" stroke-miterlimit="10"/>
  <line x1="234.54" y1="346.35" x2="215.06" y2="345.65" fill="none" stroke="#fff" stroke-miterlimit="10"/>
  <line x1="503.44" y1="345.47" x2="513.7" y2="346.51" fill="none" stroke="#fff" stroke-miterlimit="10" stroke-width="4"/>
  <line x1="420.86" y1="252.66" x2="420.86" y2="353.69" fill="none" stroke="#fff" stroke-miterlimit="10" stroke-width="4"/>
  <line x1="461.2" y1="442.86" x2="101.91" y2="368.63" fill="none" stroke="#fff" stroke-miterlimit="10" stroke-width="2"/>
  <line x1="116.34" y1="400.54" x2="431.64" y2="470.26" fill="none" stroke="#fff" stroke-miterlimit="10" stroke-width="2"/>
  <line x1="235.12" y1="318.88" x2="214.5" y2="319.58" fill="none" stroke="#fff" stroke-miterlimit="10"/>
  <line x1="235.12" y1="349.31" x2="214.5" y2="348.61" fill="none" stroke="#fff" stroke-miterlimit="10"/>
  <line x1="127.91" y1="324.54" x2="117.61" y2="324.97" fill="none" stroke="#fff" stroke-miterlimit="10"/>
  <line x1="127.91" y1="343.06" x2="117.61" y2="342.54" fill="none" stroke="#fff" stroke-miterlimit="10"/>
  <line x1="493.09" y1="309.04" x2="493.09" y2="348.88" fill="none" stroke="#fff" stroke-miterlimit="10" stroke-width="4"/>
  <line x1="474.55" y1="279.62" x2="449.71" y2="299.74" fill="none" stroke="#fff" stroke-miterlimit="10" stroke-width=".7"/>
  <line x1="460.42" y1="280.66" x2="445.5" y2="292.73" fill="none" stroke="#fff" stroke-miterlimit="10" stroke-width=".7"/>
  <line x1="478.85" y1="286.96" x2="461.46" y2="301.04" fill="none" stroke="#fff" stroke-miterlimit="10" stroke-width=".7"/>
  <line x1="477.42" y1="280.73" x2="452.58" y2="300.84" fill="none" stroke="#fff" stroke-miterlimit="10" stroke-width=".7"/>
  <line x1="479.05" y1="282.84" x2="456.68" y2="300.94" fill="none" stroke="#fff" stroke-miterlimit="10" stroke-width=".7"/>
  <line x1="465.14" y1="280.35" x2="446.51" y2="295.44" fill="none" stroke="#fff" stroke-miterlimit="10" stroke-width=".7"/>
  <line x1="469.82" y1="280.03" x2="448.71" y2="297.13" fill="none" stroke="#fff" stroke-miterlimit="10" stroke-width=".7"/>
  <line x1="478.61" y1="290.69" x2="467.43" y2="299.74" fill="none" stroke="#fff" stroke-miterlimit="10" stroke-width=".7"/>
  <line x1="451.95" y1="281.34" x2="439.53" y2="291.39" fill="none" stroke="#fff" stroke-miterlimit="10" stroke-width=".75"/>
  <line x1="448.14" y1="281.73" x2="439.44" y2="288.77" fill="none" stroke="#fff" stroke-miterlimit="10" stroke-width=".7"/>
  <line x1="456.13" y1="280.87" x2="442.46" y2="291.94" fill="none" stroke="#fff" stroke-miterlimit="10" stroke-width=".7"/>
  <path d="M145.02,499.65c-3.23,3.74-8.26,4.31-11.85,1.41-3.66-2.95-4.04-7.63-.69-11.5,3.29-3.81,8.04-4.48,11.85-1.41,3.8,3.06,3.86,7.83.69,11.5Z"/>
  <ellipse cx="305.15" cy="299.72" rx="303.15" ry="297.71" fill="none" stroke="#fff" stroke-miterlimit="10" stroke-width="4"/>
  <path d="M472.97,492.05c3.24,3.73,2.93,8.61-.65,11.51-3.65,2.96-8.49,2.49-11.86-1.38-3.3-3.8-3.14-8.43.65-11.51,3.79-3.07,8.67-2.29,11.86,1.38Z"/>
</svg>
